NotoSansGujarati-CondensedLight.ufo
<glyph name="quotedbl.gujr" format="2">
  <advance width="350"/>
  <unicode hex="0022"/>
  <outline>
    <contour>
      <point x="109" y="471" type="line"/>
      <point x="132" y="471" type="line"/>
      <point x="135" y="729" type="line"/>
      <point x="106" y="729" type="line"/>
    </contour>
    <contour>
      <point x="235" y="471" type="line"/>
      <point x="258" y="471" type="line"/>
      <point x="261" y="729" type="line"/>
      <point x="232" y="729" type="line"/>
    </contour>
  </outline>
</glyph>
<glyph name="plus.gujr" format="2">
  <advance width="411"/>
  <unicode hex="002B"/>
  <outline>
    <contour>
      <point x="193" y="120" type="line"/>
      <point x="219" y="120" type="line"/>
      <point x="219" y="309" type="line"/>
      <point x="373" y="309" type="line"/>
      <point x="373" y="335" type="line"/>
      <point x="219" y="335" type="line"/>
      <point x="219" y="524" type="line"/>
      <point x="193" y="524" type="line"/>
      <point x="193" y="335" type="line"/>
      <point x="38" y="335" type="line"/>
      <point x="38" y="309" type="line"/>
      <point x="193" y="309" type="line"/>
    </contour>
  </outline>
</glyph>
<glyph name="comma.gujr" format="2">
  <advance width="208"/>
  <unicode hex="002C"/>
  <outline>
    <contour>
      <point x="54" y="-129" type="curve"/>
      <point x="76" y="-129" type="line"/>
      <point x="104" y="-60"/>
      <point x="126" y="30"/>
      <point x="141" y="104" type="curve"/>
      <point x="138" y="116" type="line"/>
      <point x="110" y="116" type="line"/>
      <point x="99" y="40"/>
      <point x="83" y="-32"/>
    </contour>
  </outline>
</glyph>
<glyph name="hyphen.gujr" format="2">
  <advance width="264"/>
  <unicode hex="002D"/>
  <outline>
    <contour>
      <point x="41" y="284" type="line"/>
      <point x="222" y="284" type="line"/>
      <point x="222" y="310" type="line"/>
      <point x="41" y="310" type="line"/>
    </contour>
  </outline>
</glyph>
<glyph name="one.gujr" format="2">
  <advance width="411"/>
  <unicode hex="0031"/>
  <outline>
    <contour>
      <point x="217" y="0" type="line"/>
      <point x="243" y="0" type="line"/>
      <point x="243" y="714" type="line"/>
      <point x="220" y="714" type="line"/>
      <point x="79" y="569" type="line"/>
      <point x="97" y="550" type="line"/>
      <point x="178" y="638" type="line" smooth="yes"/>
      <point x="196" y="657"/>
      <point x="206" y="668"/>
      <point x="218" y="683" type="curve"/>
      <point x="217" y="656"/>
      <point x="217" y="626"/>
      <point x="217" y="591" type="curve" smooth="yes"/>
    </contour>
  </outline>
</glyph>
<glyph name="four.gujr" format="2">
  <advance width="411"/>
  <unicode hex="0034"/>
  <outline>
    <contour>
      <point x="275" y="0" type="line"/>
      <point x="301" y="0" type="line"/>
      <point x="301" y="193" type="line"/>
      <point x="388" y="193" type="line"/>
      <point x="388" y="219" type="line"/>
      <point x="301" y="219" type="line"/>
      <point x="301" y="721" type="line"/>
      <point x="272" y="721" type="line"/>
      <point x="22" y="217" type="line"/>
      <point x="22" y="193" type="line"/>
      <point x="275" y="193" type="line"/>
    </contour>
    <contour>
      <point x="52" y="219" type="line"/>
      <point x="242" y="607" type="line" smooth="yes"/>
      <point x="258" y="639"/>
      <point x="268" y="661"/>
      <point x="277" y="686" type="curve"/>
      <point x="279" y="685" type="line"/>
      <point x="276" y="623"/>
      <point x="276" y="577"/>
      <point x="276" y="448" type="curve" smooth="yes"/>
      <point x="276" y="219" type="line"/>
    </contour>
  </outline>
</glyph>
<glyph name="bar.gujr" format="2">
  <advance width="402"/>
  <unicode hex="007C"/>
  <outline>
    <contour>
      <point x="188" y="832" type="line"/>
      <point x="188" y="-166" type="line"/>
      <point x="214" y="-166" type="line"/>
      <point x="214" y="832" type="line"/>
    </contour>
  </outline>
</glyph>
<glyph name="braceright.gujr" format="2">
  <advance width="315"/>
  <unicode hex="007D"/>
  <outline>
    <contour>
      <point x="55" y="-166" type="line"/>
      <point x="137" y="-166"/>
      <point x="180" y="-132"/>
      <point x="180" y="-34" type="curve" smooth="yes"/>
      <point x="180" y="205" type="line" smooth="yes"/>
      <point x="180" y="290"/>
      <point x="214" y="321"/>
      <point x="272" y="321" type="curve"/>
      <point x="272" y="345" type="line"/>
      <point x="214" y="345"/>
      <point x="180" y="376"/>
      <point x="180" y="462" type="curve" smooth="yes"/>
      <point x="180" y="700" type="line" smooth="yes"/>
      <point x="180" y="798"/>
      <point x="137" y="832"/>
      <point x="55" y="832" type="curve"/>
      <point x="55" y="806" type="line"/>
      <point x="124" y="806"/>
      <point x="155" y="781"/>
      <point x="155" y="694" type="curve" smooth="yes"/>
      <point x="155" y="458" type="line" smooth="yes"/>
      <point x="155" y="387"/>
      <point x="174" y="351"/>
      <point x="224" y="334" type="curve"/>
      <point x="224" y="332" type="line"/>
      <point x="177" y="317"/>
      <point x="155" y="284"/>
      <point x="155" y="209" type="curve" smooth="yes"/>
      <point x="155" y="-28" type="line" smooth="yes"/>
      <point x="155" y="-115"/>
      <point x="124" y="-140"/>
      <point x="55" y="-140" type="curve"/>
    </contour>
  </outline>
</glyph>
<glyph name="uni0952" format="2">
  <unicode hex="0952"/>
  <outline>
    <contour>
      <point x="-369" y="-89" type="line"/>
      <point x="-369" y="-115" type="line"/>
      <point x="-141" y="-115" type="line"/>
      <point x="-141" y="-89" type="line"/>
    </contour>
  </outline>
</glyph>
<glyph name="danda.gujr" format="2">
  <advance width="317"/>
  <unicode hex="0964"/>
  <outline>
    <contour>
      <point x="185" y="0" type="line"/>
      <point x="211" y="0" type="line"/>
      <point x="211" y="597" type="line"/>
      <point x="185" y="597" type="line"/>
    </contour>
  </outline>
</glyph>
<glyph name="dbldanda.gujr" format="2">
  <advance width="480"/>
  <unicode hex="0965"/>
  <outline>
    <contour>
      <point x="347" y="0" type="line"/>
      <point x="374" y="0" type="line"/>
      <point x="374" y="598" type="line"/>
      <point x="347" y="598" type="line"/>
    </contour>
    <contour>
      <point x="185" y="0" type="line"/>
      <point x="211" y="0" type="line"/>
      <point x="211" y="598" type="line"/>
      <point x="185" y="598" type="line"/>
    </contour>
  </outline>
</glyph>
<glyph name="candrabindugujr" format="2">
  <unicode hex="0A81"/>
  <outline>
    <contour>
      <point x="-93" y="665" type="curve" smooth="yes"/>
      <point x="-17" y="665"/>
      <point x="30" y="719"/>
      <point x="43" y="800" type="curve"/>
      <point x="17" y="806" type="line"/>
      <point x="5" y="733"/>
      <point x="-29" y="691"/>
      <point x="-93" y="691" type="curve" smooth="yes"/>
      <point x="-157" y="691"/>
      <point x="-191" y="733"/>
      <point x="-203" y="806" type="curve"/>
      <point x="-229" y="800" type="line"/>
      <point x="-216" y="719"/>
      <point x="-168" y="665"/>
    </contour>
    <contour>
      <point x="-93" y="789" type="curve" smooth="yes"/>
      <point x="-76" y="789"/>
      <point x="-65" y="803"/>
      <point x="-65" y="826" type="curve" smooth="yes"/>
      <point x="-65" y="849"/>
      <point x="-76" y="863"/>
      <point x="-93" y="863" type="curve" smooth="yes"/>
      <point x="-110" y="863"/>
      <point x="-121" y="849"/>
      <point x="-121" y="826" type="curve" smooth="yes"/>
      <point x="-121" y="803"/>
      <point x="-110" y="789"/>
    </contour>
  </outline>
</glyph>
<glyph name="anusvaragujr" format="2">
  <unicode hex="0A82"/>
  <outline>
    <contour>
      <point x="-91" y="708" type="curve" smooth="yes"/>
      <point x="-74" y="708"/>
      <point x="-62" y="718"/>
      <point x="-62" y="745" type="curve" smooth="yes"/>
      <point x="-62" y="769"/>
      <point x="-73" y="782"/>
      <point x="-90" y="782" type="curve" smooth="yes"/>
      <point x="-106" y="782"/>
      <point x="-119" y="770"/>
      <point x="-119" y="745" type="curve" smooth="yes"/>
      <point x="-119" y="719"/>
      <point x="-105" y="708"/>
    </contour>
  </outline>
</glyph>
<glyph name="visargagujr" format="2">
  <advance width="160"/>
  <unicode hex="0A83"/>
  <outline>
    <contour>
      <point x="80" y="409" type="curve" smooth="yes"/>
      <point x="98" y="409"/>
      <point x="110" y="420"/>
      <point x="110" y="447" type="curve" smooth="yes"/>
      <point x="110" y="472"/>
      <point x="99" y="485"/>
      <point x="80" y="485" type="curve" smooth="yes"/>
      <point x="63" y="485"/>
      <point x="50" y="473"/>
      <point x="50" y="447" type="curve" smooth="yes"/>
      <point x="50" y="420"/>
      <point x="64" y="409"/>
    </contour>
    <contour>
      <point x="80" y="50" type="curve" smooth="yes"/>
      <point x="98" y="50"/>
      <point x="110" y="61"/>
      <point x="110" y="88" type="curve" smooth="yes"/>
      <point x="110" y="113"/>
      <point x="99" y="126"/>
      <point x="80" y="126" type="curve" smooth="yes"/>
      <point x="63" y="126"/>
      <point x="50" y="114"/>
      <point x="50" y="88" type="curve" smooth="yes"/>
      <point x="50" y="61"/>
      <point x="64" y="50"/>
    </contour>
  </outline>
</glyph>
<glyph name="aagujr" format="2">
  <advance width="776"/>
  <unicode hex="0A86"/>
  <outline>
    <contour>
      <point x="251" y="136" type="curve" smooth="yes"/>
      <point x="327" y="136"/>
      <point x="372" y="181"/>
      <point x="372" y="282" type="curve" smooth="yes"/>
      <point x="372" y="426" type="line"/>
      <point x="346" y="430" type="line"/>
      <point x="346" y="297" type="line" smooth="yes"/>
      <point x="346" y="239"/>
      <point x="338" y="208"/>
      <point x="320" y="188" type="curve" smooth="yes"/>
      <point x="304" y="171"/>
      <point x="282" y="162"/>
      <point x="251" y="162" type="curve" smooth="yes"/>
      <point x="199" y="162"/>
      <point x="161" y="185"/>
      <point x="123" y="264" type="curve"/>
      <point x="120" y="279" type="line"/>
      <point x="107" y="306"/>
      <point x="86" y="325"/>
      <point x="60" y="325" type="curve" smooth="yes"/>
      <point x="40" y="325"/>
      <point x="27" y="314"/>
      <point x="27" y="296" type="curve" smooth="yes"/>
      <point x="27" y="268"/>
      <point x="56" y="259"/>
      <point x="93" y="259" type="curve" smooth="yes"/>
      <point x="180" y="259"/>
      <point x="243" y="333"/>
      <point x="243" y="434" type="curve" smooth="yes"/>
      <point x="243" y="531"/>
      <point x="194" y="602"/>
      <point x="103" y="602" type="curve" smooth="yes"/>
      <point x="78" y="602"/>
      <point x="53" y="597"/>
      <point x="27" y="588" type="curve"/>
      <point x="35" y="563" type="line"/>
      <point x="59" y="572"/>
      <point x="81" y="576"/>
      <point x="104" y="576" type="curve" smooth="yes"/>
      <point x="179" y="576"/>
      <point x="216" y="517"/>
      <point x="216" y="434" type="curve" smooth="yes"/>
      <point x="216" y="347"/>
      <point x="167" y="281"/>
      <point x="82" y="281" type="curve"/>
      <point x="96" y="262" type="line"/>
      <point x="138" y="170"/>
      <point x="186" y="136"/>
    </contour>
    <contour>
      <point x="428" y="263" type="curve" smooth="yes"/>
      <point x="463" y="263"/>
      <point x="490" y="277"/>
      <point x="508" y="296" type="curve"/>
      <point x="508" y="333" type="line"/>
      <point x="485" y="304"/>
      <point x="459" y="289"/>
      <point x="428" y="289" type="curve" smooth="yes"/>
      <point x="399" y="289"/>
      <point x="372" y="303"/>
      <point x="356" y="326" type="curve"/>
      <point x="356" y="288" type="line"/>
      <point x="376" y="272"/>
      <point x="401" y="263"/>
    </contour>
    <contour>
      <point x="585" y="0" type="curve" smooth="yes"/>
      <point x="593" y="0" type="line"/>
      <point x="596" y="26" type="line"/>
      <point x="571" y="26"/>
      <point x="553" y="30"/>
      <point x="541" y="39" type="curve" smooth="yes"/>
      <point x="527" y="50"/>
      <point x="521" y="69"/>
      <point x="521" y="98" type="curve" smooth="yes"/>
      <point x="521" y="598" type="line"/>
      <point x="495" y="602" type="line"/>
      <point x="495" y="98" type="line" smooth="yes"/>
      <point x="495" y="61"/>
      <point x="504" y="35"/>
      <point x="523" y="19" type="curve" smooth="yes"/>
      <point x="538" y="6"/>
      <point x="558" y="0"/>
    </contour>
    <contour>
      <point x="762" y="0" type="curve" smooth="yes"/>
      <point x="770" y="0" type="line"/>
      <point x="773" y="26" type="line"/>
      <point x="748" y="26"/>
      <point x="730" y="30"/>
      <point x="718" y="39" type="curve" smooth="yes"/>
      <point x="704" y="50"/>
      <point x="698" y="69"/>
      <point x="698" y="98" type="curve" smooth="yes"/>
      <point x="698" y="598" type="line"/>
      <point x="672" y="602" type="line"/>
      <point x="672" y="98" type="line" smooth="yes"/>
      <point x="672" y="61"/>
      <point x="681" y="35"/>
      <point x="700" y="19" type="curve" smooth="yes"/>
      <point x="715" y="6"/>
      <point x="735" y="0"/>
    </contour>
  </outline>
</glyph>
<glyph name="igujr" format="2">
  <advance width="459"/>
  <unicode hex="0A87"/>
  <outline>
    <contour>
      <point x="237" y="-10" type="curve" smooth="yes"/>
      <point x="355" y="-10"/>
      <point x="421" y="74"/>
      <point x="421" y="204" type="curve" smooth="yes"/>
      <point x="421" y="294"/>
      <point x="397" y="361"/>
      <point x="374" y="422" type="curve" smooth="yes"/>
      <point x="354" y="474"/>
      <point x="337" y="524"/>
      <point x="337" y="578" type="curve" smooth="yes"/>
      <point x="337" y="633"/>
      <point x="356" y="666"/>
      <point x="398" y="705" type="curve"/>
      <point x="380" y="725" type="line"/>
      <point x="328" y="678"/>
      <point x="310" y="635"/>
      <point x="310" y="578" type="curve" smooth="yes"/>
      <point x="310" y="522"/>
      <point x="329" y="466"/>
      <point x="349" y="414" type="curve" smooth="yes"/>
      <point x="371" y="356"/>
      <point x="394" y="290"/>
      <point x="394" y="204" type="curve" smooth="yes"/>
      <point x="394" y="89"/>
      <point x="340" y="16"/>
      <point x="237" y="16" type="curve" smooth="yes"/>
      <point x="150" y="16"/>
      <point x="93" y="78"/>
      <point x="93" y="171" type="curve" smooth="yes"/>
      <point x="93" y="254"/>
      <point x="138" y="319"/>
      <point x="214" y="319" type="curve" smooth="yes"/>
      <point x="219" y="319"/>
      <point x="225" y="319"/>
      <point x="231" y="318" type="curve"/>
      <point x="234" y="344" type="line"/>
      <point x="227" y="345"/>
      <point x="221" y="345"/>
      <point x="214" y="345" type="curve" smooth="yes"/>
      <point x="125" y="345"/>
      <point x="66" y="272"/>
      <point x="66" y="171" type="curve" smooth="yes"/>
      <point x="66" y="62"/>
      <point x="134" y="-10"/>
    </contour>
    <contour>
      <point x="128" y="296" type="curve"/>
      <point x="145" y="315" type="line"/>
      <point x="97" y="355"/>
      <point x="65" y="404"/>
      <point x="65" y="468" type="curve" smooth="yes"/>
      <point x="65" y="532"/>
      <point x="104" y="577"/>
      <point x="177" y="577" type="curve" smooth="yes"/>
      <point x="190" y="577"/>
      <point x="202" y="576"/>
      <point x="217" y="572" type="curve"/>
      <point x="223" y="597" type="line"/>
      <point x="207" y="601"/>
      <point x="191" y="603"/>
      <point x="177" y="603" type="curve" smooth="yes"/>
      <point x="80" y="603"/>
      <point x="38" y="541"/>
      <point x="38" y="469" type="curve" smooth="yes"/>
      <point x="38" y="398"/>
      <point x="72" y="342"/>
    </contour>
  </outline>
</glyph>
<glyph name="iigujr" format="2">
  <advance width="459"/>
  <unicode hex="0A88"/>
  <outline>
    <contour>
      <point x="236" y="-10" type="curve" smooth="yes"/>
      <point x="355" y="-10"/>
      <point x="421" y="76"/>
      <point x="421" y="201" type="curve" smooth="yes"/>
      <point x="421" y="283"/>
      <point x="396" y="383"/>
      <point x="352" y="505" type="curve" smooth="yes"/>
      <point x="312" y="617"/>
      <point x="292" y="685"/>
      <point x="292" y="753" type="curve" smooth="yes"/>
      <point x="292" y="827"/>
      <point x="322" y="870"/>
      <point x="376" y="870" type="curve" smooth="yes"/>
      <point x="426" y="870"/>
      <point x="454" y="836"/>
      <point x="475" y="759" type="curve"/>
      <point x="499" y="766" type="line"/>
      <point x="477" y="853"/>
      <point x="440" y="896"/>
      <point x="376" y="896" type="curve" smooth="yes"/>
      <point x="306" y="896"/>
      <point x="265" y="841"/>
      <point x="265" y="753" type="curve" smooth="yes"/>
      <point x="265" y="684"/>
      <point x="285" y="609"/>
      <point x="327" y="496" type="curve" smooth="yes"/>
      <point x="372" y="376"/>
      <point x="394" y="280"/>
      <point x="394" y="201" type="curve" smooth="yes"/>
      <point x="394" y="96"/>
      <point x="344" y="16"/>
      <point x="236" y="16" type="curve" smooth="yes"/>
      <point x="150" y="16"/>
      <point x="93" y="78"/>
      <point x="93" y="171" type="curve" smooth="yes"/>
      <point x="93" y="254"/>
      <point x="138" y="319"/>
      <point x="214" y="319" type="curve" smooth="yes"/>
      <point x="219" y="319"/>
      <point x="225" y="319"/>
      <point x="231" y="318" type="curve"/>
      <point x="234" y="344" type="line"/>
      <point x="227" y="345"/>
      <point x="221" y="345"/>
      <point x="214" y="345" type="curve" smooth="yes"/>
      <point x="125" y="345"/>
      <point x="66" y="272"/>
      <point x="66" y="171" type="curve" smooth="yes"/>
      <point x="66" y="66"/>
      <point x="131" y="-10"/>
    </contour>
    <contour>
      <point x="128" y="296" type="curve"/>
      <point x="145" y="315" type="line"/>
      <point x="97" y="355"/>
      <point x="65" y="404"/>
      <point x="65" y="468" type="curve" smooth="yes"/>
      <point x="65" y="532"/>
      <point x="104" y="577"/>
      <point x="177" y="577" type="curve" smooth="yes"/>
      <point x="190" y="577"/>
      <point x="202" y="576"/>
      <point x="217" y="572" type="curve"/>
      <point x="223" y="597" type="line"/>
      <point x="207" y="601"/>
      <point x="191" y="603"/>
      <point x="177" y="603" type="curve" smooth="yes"/>
      <point x="80" y="603"/>
      <point x="38" y="541"/>
      <point x="38" y="469" type="curve" smooth="yes"/>
      <point x="38" y="398"/>
      <point x="72" y="342"/>
    </contour>
  </outline>
</glyph>
<glyph name="ugujr" format="2">
  <advance width="457"/>
  <unicode hex="0A89"/>
  <outline>
    <contour>
      <point x="265" y="-10" type="curve" smooth="yes"/>
      <point x="357" y="-10"/>
      <point x="415" y="48"/>
      <point x="415" y="160" type="curve" smooth="yes"/>
      <point x="415" y="229"/>
      <point x="384" y="295"/>
      <point x="335" y="333" type="curve"/>
      <point x="313" y="331" type="line"/>
      <point x="314" y="316" type="line"/>
      <point x="361" y="285"/>
      <point x="388" y="227"/>
      <point x="388" y="160" type="curve" smooth="yes"/>
      <point x="388" y="66"/>
      <point x="343" y="16"/>
      <point x="265" y="16" type="curve" smooth="yes"/>
      <point x="138" y="16"/>
      <point x="77" y="148"/>
      <point x="77" y="368" type="curve" smooth="yes"/>
      <point x="77" y="639"/>
      <point x="156" y="808"/>
      <point x="325" y="808" type="curve" smooth="yes"/>
      <point x="347" y="808"/>
      <point x="362" y="806"/>
      <point x="378" y="802" type="curve"/>
      <point x="383" y="827" type="line"/>
      <point x="365" y="832"/>
      <point x="347" y="834"/>
      <point x="325" y="834" type="curve" smooth="yes"/>
      <point x="141" y="834"/>
      <point x="50" y="656"/>
      <point x="50" y="368" type="curve" smooth="yes"/>
      <point x="50" y="126"/>
      <point x="123" y="-10"/>
    </contour>
    <contour>
      <point x="226" y="294" type="line"/>
      <point x="347" y="309"/>
      <point x="409" y="365"/>
      <point x="409" y="462" type="curve" smooth="yes"/>
      <point x="409" y="542"/>
      <point x="360" y="602"/>
      <point x="269" y="602" type="curve" smooth="yes"/>
      <point x="224" y="602"/>
      <point x="193" y="594"/>
      <point x="161" y="582" type="curve"/>
      <point x="171" y="558" type="line"/>
      <point x="203" y="570"/>
      <point x="231" y="576"/>
      <point x="269" y="576" type="curve" smooth="yes"/>
      <point x="348" y="576"/>
      <point x="382" y="525"/>
      <point x="382" y="462" type="curve" smooth="yes"/>
      <point x="382" y="377"/>
      <point x="328" y="332"/>
      <point x="221" y="320" type="curve"/>
    </contour>
  </outline>
</glyph>
<glyph name="uugujr" format="2">
  <advance width="639"/>
  <unicode hex="0A8A"/>
  <outline>
    <contour>
      <point x="267" y="-10" type="curve" smooth="yes"/>
      <point x="357" y="-10"/>
      <point x="415" y="48"/>
      <point x="415" y="160" type="curve" smooth="yes"/>
      <point x="415" y="229"/>
      <point x="384" y="295"/>
      <point x="335" y="333" type="curve"/>
      <point x="313" y="331" type="line"/>
      <point x="314" y="316" type="line"/>
      <point x="361" y="285"/>
      <point x="388" y="227"/>
      <point x="388" y="160" type="curve" smooth="yes"/>
      <point x="388" y="66"/>
      <point x="343" y="16"/>
      <point x="267" y="16" type="curve" smooth="yes"/>
      <point x="136" y="16"/>
      <point x="77" y="148"/>
      <point x="77" y="388" type="curve" smooth="yes"/>
      <point x="77" y="639"/>
      <point x="157" y="808"/>
      <point x="330" y="808" type="curve" smooth="yes"/>
      <point x="459" y="808"/>
      <point x="517" y="689"/>
      <point x="535" y="572" type="curve"/>
      <point x="535" y="98" type="line" smooth="yes"/>
      <point x="535" y="61"/>
      <point x="544" y="35"/>
      <point x="563" y="19" type="curve" smooth="yes"/>
      <point x="578" y="6"/>
      <point x="598" y="0"/>
      <point x="625" y="0" type="curve" smooth="yes"/>
      <point x="633" y="0" type="line"/>
      <point x="636" y="26" type="line"/>
      <point x="611" y="26"/>
      <point x="593" y="30"/>
      <point x="581" y="39" type="curve" smooth="yes"/>
      <point x="567" y="50"/>
      <point x="561" y="69"/>
      <point x="561" y="98" type="curve" smooth="yes"/>
      <point x="561" y="577" type="line"/>
      <point x="539" y="709"/>
      <point x="472" y="834"/>
      <point x="330" y="834" type="curve" smooth="yes"/>
      <point x="143" y="834"/>
      <point x="50" y="663"/>
      <point x="50" y="388" type="curve" smooth="yes"/>
      <point x="50" y="123"/>
      <point x="123" y="-10"/>
    </contour>
    <contour>
      <point x="226" y="294" type="line"/>
      <point x="347" y="309"/>
      <point x="409" y="365"/>
      <point x="409" y="462" type="curve" smooth="yes"/>
      <point x="409" y="542"/>
      <point x="360" y="602"/>
      <point x="269" y="602" type="curve" smooth="yes"/>
      <point x="224" y="602"/>
      <point x="193" y="594"/>
      <point x="161" y="582" type="curve"/>
      <point x="171" y="558" type="line"/>
      <point x="203" y="570"/>
      <point x="231" y="576"/>
      <point x="269" y="576" type="curve" smooth="yes"/>
      <point x="348" y="576"/>
      <point x="382" y="525"/>
      <point x="382" y="462" type="curve" smooth="yes"/>
      <point x="382" y="377"/>
      <point x="328" y="332"/>
      <point x="221" y="320" type="curve"/>
    </contour>
  </outline>
</glyph>
<glyph name="rvocalicgujr" format="2">
  <advance width="596"/>
  <unicode hex="0A8B"/>
  <outline>
    <contour>
      <point x="478" y="90" type="line"/>
      <point x="536" y="127"/>
      <point x="558" y="165"/>
      <point x="558" y="223" type="curve" smooth="yes"/>
      <point x="558" y="267"/>
      <point x="542" y="312"/>
      <point x="514" y="371" type="curve"/>
      <point x="499" y="383" type="line"/>
      <point x="480" y="370"/>
      <point x="458" y="363"/>
      <point x="433" y="363" type="curve" smooth="yes"/>
      <point x="391" y="363"/>
      <point x="359" y="378"/>
      <point x="327" y="402" type="curve"/>
      <point x="321" y="375" type="line"/>
      <point x="356" y="350"/>
      <point x="395" y="337"/>
      <point x="434" y="337" type="curve" smooth="yes"/>
      <point x="492" y="337"/>
      <point x="546" y="373"/>
      <point x="546" y="419" type="curve" smooth="yes"/>
      <point x="546" y="444"/>
      <point x="533" y="462"/>
      <point x="509" y="462" type="curve" smooth="yes"/>
      <point x="486" y="462"/>
      <point x="472" y="445"/>
      <point x="472" y="422" type="curve" smooth="yes"/>
      <point x="472" y="404"/>
      <point x="478" y="388"/>
      <point x="490" y="367" type="curve"/>
      <point x="495" y="355" type="line"/>
      <point x="519" y="304"/>
      <point x="531" y="262"/>
      <point x="531" y="223" type="curve" smooth="yes"/>
      <point x="531" y="174"/>
      <point x="510" y="142"/>
      <point x="462" y="112" type="curve"/>
    </contour>
    <contour>
      <point x="93" y="165" type="line"/>
      <point x="323" y="351" type="line"/>
      <point x="313" y="375" type="line"/>
      <point x="75" y="186" type="line"/>
    </contour>
    <contour>
      <point x="284" y="343" type="curve"/>
      <point x="303" y="358" type="line"/>
      <point x="222" y="470"/>
      <point x="174" y="510"/>
      <point x="101" y="510" type="curve" smooth="yes"/>
      <point x="67" y="510"/>
      <point x="35" y="501"/>
      <point x="7" y="489" type="curve"/>
      <point x="17" y="464" type="line"/>
      <point x="48" y="477"/>
      <point x="68" y="484"/>
      <point x="101" y="484" type="curve" smooth="yes"/>
      <point x="163" y="484"/>
      <point x="201" y="455"/>
    </contour>
    <contour>
      <point x="398" y="0" type="curve" smooth="yes"/>
      <point x="406" y="0" type="line"/>
      <point x="409" y="26" type="line"/>
      <point x="384" y="26"/>
      <point x="366" y="30"/>
      <point x="354" y="39" type="curve" smooth="yes"/>
      <point x="340" y="50"/>
      <point x="334" y="69"/>
      <point x="334" y="98" type="curve" smooth="yes"/>
      <point x="334" y="598" type="line"/>
      <point x="308" y="602" type="line"/>
      <point x="308" y="98" type="line" smooth="yes"/>
      <point x="308" y="61"/>
      <point x="317" y="35"/>
      <point x="336" y="19" type="curve" smooth="yes"/>
      <point x="351" y="6"/>
      <point x="371" y="0"/>
    </contour>
  </outline>
</glyph>
<glyph name="lvocalicgujr" format="2">
  <advance width="510"/>
  <unicode hex="0A8C"/>
  <outline>
    <contour>
      <point x="150" y="48" type="curve"/>
      <point x="171" y="64" type="line"/>
      <point x="105" y="146"/>
      <point x="65" y="224"/>
      <point x="65" y="303" type="curve" smooth="yes"/>
      <point x="65" y="379"/>
      <point x="105" y="424"/>
      <point x="168" y="424" type="curve" smooth="yes"/>
      <point x="211" y="424"/>
      <point x="241" y="406"/>
      <point x="269" y="380" type="curve"/>
      <point x="283" y="398" type="line"/>
      <point x="251" y="428"/>
      <point x="215" y="450"/>
      <point x="167" y="450" type="curve" smooth="yes"/>
      <point x="90" y="450"/>
      <point x="38" y="392"/>
      <point x="38" y="303" type="curve" smooth="yes"/>
      <point x="38" y="214"/>
      <point x="82" y="136"/>
    </contour>
    <contour>
      <point x="447" y="-73" type="curve" smooth="yes"/>
      <point x="480" y="-73"/>
      <point x="505" y="-66"/>
      <point x="532" y="-53" type="curve"/>
      <point x="522" y="-28" type="line"/>
      <point x="496" y="-41"/>
      <point x="474" y="-47"/>
      <point x="447" y="-47" type="curve" smooth="yes"/>
      <point x="391" y="-47"/>
      <point x="351" y="-9"/>
      <point x="351" y="45" type="curve" smooth="yes"/>
      <point x="351" y="110"/>
      <point x="391" y="137"/>
      <point x="442" y="158" type="curve"/>
      <point x="433" y="180" type="line"/>
      <point x="372" y="156"/>
      <point x="324" y="119"/>
      <point x="324" y="47" type="curve" smooth="yes"/>
      <point x="324" y="-23"/>
      <point x="376" y="-73"/>
    </contour>
    <contour>
      <point x="442" y="158" type="line"/>
      <point x="459" y="205"/>
      <point x="473" y="253"/>
      <point x="473" y="304" type="curve" smooth="yes"/>
      <point x="473" y="399"/>
      <point x="431" y="450"/>
      <point x="370" y="450" type="curve" smooth="yes"/>
      <point x="296" y="450"/>
      <point x="243" y="388"/>
      <point x="219" y="253" type="curve"/>
      <point x="246" y="245" type="line"/>
      <point x="267" y="367"/>
      <point x="309" y="424"/>
      <point x="369" y="424" type="curve" smooth="yes"/>
      <point x="416" y="424"/>
      <point x="446" y="388"/>
      <point x="446" y="305" type="curve" smooth="yes"/>
      <point x="446" y="253"/>
      <point x="435" y="213"/>
      <point x="417" y="170" type="curve"/>
    </contour>
    <contour>
      <point x="360" y="437" type="line"/>
      <point x="386" y="437" type="line"/>
      <point x="386" y="598" type="line"/>
      <point x="360" y="602" type="line"/>
    </contour>
  </outline>
</glyph>
<glyph name="khagujr" format="2">
  <advance width="523"/>
  <unicode hex="0A96"/>
  <outline>
    <contour>
      <point x="185" y="163" type="curve" smooth="yes"/>
      <point x="256" y="163"/>
      <point x="296" y="211"/>
      <point x="296" y="289" type="curve" smooth="yes"/>
      <point x="296" y="460" type="line"/>
      <point x="270" y="463" type="line"/>
      <point x="270" y="307" type="line" smooth="yes"/>
      <point x="270" y="252"/>
      <point x="261" y="227"/>
      <point x="244" y="210" type="curve" smooth="yes"/>
      <point x="230" y="196"/>
      <point x="210" y="189"/>
      <point x="185" y="189" type="curve" smooth="yes"/>
      <point x="159" y="189"/>
      <point x="139" y="196"/>
      <point x="125" y="211" type="curve" smooth="yes"/>
      <point x="108" y="229"/>
      <point x="100" y="257"/>
      <point x="100" y="301" type="curve" smooth="yes"/>
      <point x="100" y="494" type="line" smooth="yes"/>
      <point x="100" y="529"/>
      <point x="92" y="554"/>
      <point x="77" y="570" type="curve" smooth="yes"/>
      <point x="63" y="585"/>
      <point x="42" y="592"/>
      <point x="15" y="592" type="curve" smooth="yes"/>
      <point x="11" y="592" type="line"/>
      <point x="9" y="566" type="line"/>
      <point x="30" y="566"/>
      <point x="45" y="562"/>
      <point x="55" y="554" type="curve" smooth="yes"/>
      <point x="69" y="543"/>
      <point x="74" y="524"/>
      <point x="74" y="494" type="curve" smooth="yes"/>
      <point x="74" y="304" type="line" smooth="yes"/>
      <point x="74" y="246"/>
      <point x="86" y="215"/>
      <point x="107" y="193" type="curve" smooth="yes"/>
      <point x="126" y="173"/>
      <point x="152" y="163"/>
    </contour>
    <contour>
      <point x="352" y="285" type="curve" smooth="yes"/>
      <point x="387" y="285"/>
      <point x="414" y="299"/>
      <point x="432" y="318" type="curve"/>
      <point x="432" y="355" type="line"/>
      <point x="409" y="326"/>
      <point x="383" y="311"/>
      <point x="352" y="311" type="curve" smooth="yes"/>
      <point x="323" y="311"/>
      <point x="296" y="325"/>
      <point x="280" y="348" type="curve"/>
      <point x="280" y="310" type="line"/>
      <point x="300" y="294"/>
      <point x="325" y="285"/>
    </contour>
    <contour>
      <point x="509" y="0" type="curve" smooth="yes"/>
      <point x="517" y="0" type="line"/>
      <point x="520" y="26" type="line"/>
      <point x="495" y="26"/>
      <point x="477" y="30"/>
      <point x="465" y="39" type="curve" smooth="yes"/>
      <point x="451" y="50"/>
      <point x="445" y="69"/>
      <point x="445" y="98" type="curve" smooth="yes"/>
      <point x="445" y="598" type="line"/>
      <point x="419" y="602" type="line"/>
      <point x="419" y="98" type="line" smooth="yes"/>
      <point x="419" y="61"/>
      <point x="428" y="35"/>
      <point x="447" y="19" type="curve" smooth="yes"/>
      <point x="462" y="6"/>
      <point x="482" y="0"/>
    </contour>
  </outline>
</glyph>
<glyph name="gagujr" format="2">
  <advance width="453"/>
  <unicode hex="0A97"/>
  <outline>
    <contour>
      <point x="140" y="193" type="curve" smooth="yes"/>
      <point x="224" y="193"/>
      <point x="257" y="269"/>
      <point x="257" y="386" type="curve" smooth="yes"/>
      <point x="257" y="515"/>
      <point x="217" y="602"/>
      <point x="121" y="602" type="curve" smooth="yes"/>
      <point x="94" y="602"/>
      <point x="66" y="595"/>
      <point x="42" y="584" type="curve"/>
      <point x="52" y="560" type="line"/>
      <point x="74" y="569"/>
      <point x="97" y="576"/>
      <point x="121" y="576" type="curve" smooth="yes"/>
      <point x="201" y="576"/>
      <point x="230" y="501"/>
      <point x="230" y="386" type="curve" smooth="yes"/>
      <point x="230" y="283"/>
      <point x="207" y="219"/>
      <point x="139" y="219" type="curve" smooth="yes"/>
      <point x="90" y="219"/>
      <point x="58" y="253"/>
      <point x="35" y="327" type="curve"/>
      <point x="11" y="317" type="line"/>
      <point x="38" y="229"/>
      <point x="82" y="193"/>
    </contour>
    <contour>
      <point x="439" y="0" type="curve" smooth="yes"/>
      <point x="447" y="0" type="line"/>
      <point x="450" y="26" type="line"/>
      <point x="425" y="26"/>
      <point x="407" y="30"/>
      <point x="395" y="39" type="curve" smooth="yes"/>
      <point x="381" y="50"/>
      <point x="375" y="69"/>
      <point x="375" y="98" type="curve" smooth="yes"/>
      <point x="375" y="598" type="line"/>
      <point x="349" y="602" type="line"/>
      <point x="349" y="98" type="line" smooth="yes"/>
      <point x="349" y="61"/>
      <point x="358" y="35"/>
      <point x="377" y="19" type="curve" smooth="yes"/>
      <point x="392" y="6"/>
      <point x="412" y="0"/>
    </contour>
  </outline>
</glyph>
<glyph name="cagujr" format="2">
  <advance width="451"/>
  <unicode hex="0A9A"/>
  <outline>
    <contour>
      <point x="253" y="149" type="curve" smooth="yes"/>
      <point x="298" y="149"/>
      <point x="332" y="168"/>
      <point x="352" y="191" type="curve"/>
      <point x="352" y="228" type="line"/>
      <point x="328" y="196"/>
      <point x="297" y="175"/>
      <point x="253" y="175" type="curve" smooth="yes"/>
      <point x="191" y="175"/>
      <point x="148" y="207"/>
      <point x="121" y="268" type="curve"/>
      <point x="120" y="279" type="line"/>
      <point x="106" y="307"/>
      <point x="89" y="325"/>
      <point x="60" y="325" type="curve" smooth="yes"/>
      <point x="40" y="325"/>
      <point x="27" y="314"/>
      <point x="27" y="296" type="curve" smooth="yes"/>
      <point x="27" y="268"/>
      <point x="53" y="259"/>
      <point x="93" y="259" type="curve" smooth="yes"/>
      <point x="180" y="259"/>
      <point x="243" y="333"/>
      <point x="243" y="434" type="curve" smooth="yes"/>
      <point x="243" y="531"/>
      <point x="194" y="602"/>
      <point x="103" y="602" type="curve" smooth="yes"/>
      <point x="78" y="602"/>
      <point x="53" y="597"/>
      <point x="27" y="588" type="curve"/>
      <point x="35" y="563" type="line"/>
      <point x="59" y="572"/>
      <point x="81" y="576"/>
      <point x="104" y="576" type="curve" smooth="yes"/>
      <point x="179" y="576"/>
      <point x="216" y="517"/>
      <point x="216" y="434" type="curve" smooth="yes"/>
      <point x="216" y="348"/>
      <point x="167" y="281"/>
      <point x="82" y="281" type="curve"/>
      <point x="91" y="269" type="line"/>
      <point x="94" y="267" type="line"/>
      <point x="129" y="185"/>
      <point x="186" y="149"/>
    </contour>
    <contour>
      <point x="437" y="0" type="curve" smooth="yes"/>
      <point x="445" y="0" type="line"/>
      <point x="448" y="26" type="line"/>
      <point x="423" y="26"/>
      <point x="405" y="30"/>
      <point x="393" y="39" type="curve" smooth="yes"/>
      <point x="379" y="50"/>
      <point x="373" y="69"/>
      <point x="373" y="98" type="curve" smooth="yes"/>
      <point x="373" y="598" type="line"/>
      <point x="347" y="602" type="line"/>
      <point x="347" y="98" type="line" smooth="yes"/>
      <point x="347" y="61"/>
      <point x="356" y="35"/>
      <point x="375" y="19" type="curve" smooth="yes"/>
      <point x="390" y="6"/>
      <point x="410" y="0"/>
    </contour>
  </outline>
</glyph>
<glyph name="chagujr" format="2">
  <advance width="548"/>
  <unicode hex="0A9B"/>
  <outline>
    <contour>
      <point x="250" y="-10" type="curve" smooth="yes"/>
      <point x="427" y="-10"/>
      <point x="503" y="172"/>
      <point x="503" y="382" type="curve" smooth="yes"/>
      <point x="503" y="522"/>
      <point x="462" y="602"/>
      <point x="382" y="602" type="curve" smooth="yes"/>
      <point x="315" y="602"/>
      <point x="278" y="547"/>
      <point x="278" y="474" type="curve" smooth="yes"/>
      <point x="278" y="385"/>
      <point x="339" y="306"/>
      <point x="438" y="277" type="curve"/>
      <point x="444" y="302" type="line"/>
      <point x="362" y="325"/>
      <point x="305" y="392"/>
      <point x="305" y="474" type="curve" smooth="yes"/>
      <point x="305" y="533"/>
      <point x="331" y="576"/>
      <point x="382" y="576" type="curve" smooth="yes"/>
      <point x="446" y="576"/>
      <point x="476" y="501"/>
      <point x="476" y="382" type="curve" smooth="yes"/>
      <point x="476" y="185"/>
      <point x="407" y="16"/>
      <point x="250" y="16" type="curve" smooth="yes"/>
      <point x="161" y="16"/>
      <point x="96" y="76"/>
      <point x="96" y="174" type="curve" smooth="yes"/>
      <point x="96" y="266"/>
      <point x="149" y="319"/>
      <point x="223" y="319" type="curve" smooth="yes"/>
      <point x="231" y="319"/>
      <point x="240" y="318"/>
      <point x="245" y="317" type="curve"/>
      <point x="248" y="343" type="line"/>
      <point x="242" y="344"/>
      <point x="232" y="345"/>
      <point x="223" y="345" type="curve" smooth="yes"/>
      <point x="136" y="345"/>
      <point x="69" y="278"/>
      <point x="69" y="174" type="curve" smooth="yes"/>
      <point x="69" y="63"/>
      <point x="146" y="-10"/>
    </contour>
    <contour>
      <point x="123" y="294" type="curve"/>
      <point x="139" y="313" type="line"/>
      <point x="97" y="346"/>
      <point x="65" y="396"/>
      <point x="65" y="460" type="curve" smooth="yes"/>
      <point x="65" y="538"/>
      <point x="108" y="576"/>
      <point x="167" y="576" type="curve" smooth="yes"/>
      <point x="182" y="576"/>
      <point x="199" y="575"/>
      <point x="213" y="571" type="curve"/>
      <point x="217" y="596" type="line"/>
      <point x="205" y="600"/>
      <point x="184" y="602"/>
      <point x="167" y="602" type="curve" smooth="yes"/>
      <point x="95" y="602"/>
      <point x="38" y="553"/>
      <point x="38" y="460" type="curve" smooth="yes"/>
      <point x="38" y="387"/>
      <point x="76" y="331"/>
    </contour>
  </outline>
</glyph>
<glyph name="jagujr" format="2">
  <advance width="585"/>
  <unicode hex="0A9C"/>
  <outline>
    <contour>
      <point x="387" y="-10" type="curve" smooth="yes"/>
      <point x="462" y="-10"/>
      <point x="502" y="54"/>
      <point x="502" y="165" type="curve" smooth="yes"/>
      <point x="502" y="283"/>
      <point x="473" y="368"/>
      <point x="427" y="444" type="curve"/>
      <point x="370" y="537"/>
      <point x="292" y="602"/>
      <point x="182" y="602" type="curve" smooth="yes"/>
      <point x="98" y="602"/>
      <point x="34" y="539"/>
      <point x="34" y="435" type="curve" smooth="yes"/>
      <point x="34" y="354"/>
      <point x="73" y="299"/>
      <point x="139" y="299" type="curve" smooth="yes"/>
      <point x="209" y="299"/>
      <point x="243" y="348"/>
      <point x="243" y="428" type="curve" smooth="yes"/>
      <point x="243" y="496"/>
      <point x="216" y="548"/>
      <point x="182" y="587" type="curve"/>
      <point x="155" y="584" type="line"/>
      <point x="194" y="537"/>
      <point x="216" y="493"/>
      <point x="216" y="428" type="curve" smooth="yes"/>
      <point x="216" y="362"/>
      <point x="191" y="325"/>
      <point x="139" y="325" type="curve" smooth="yes"/>
      <point x="89" y="325"/>
      <point x="61" y="368"/>
      <point x="61" y="436" type="curve" smooth="yes"/>
      <point x="61" y="523"/>
      <point x="111" y="577"/>
      <point x="182" y="577" type="curve" smooth="yes"/>
      <point x="274" y="577"/>
      <point x="358" y="518"/>
      <point x="410" y="423" type="curve"/>
      <point x="454" y="351"/>
      <point x="475" y="265"/>
      <point x="475" y="165" type="curve" smooth="yes"/>
      <point x="475" y="75"/>
      <point x="448" y="16"/>
      <point x="387" y="16" type="curve" smooth="yes"/>
      <point x="328" y="16"/>
      <point x="300" y="67"/>
      <point x="300" y="150" type="curve" smooth="yes"/>
      <point x="300" y="247"/>
      <point x="344" y="327"/>
      <point x="427" y="424" type="curve"/>
      <point x="469" y="471"/>
      <point x="519" y="525"/>
      <point x="583" y="586" type="curve"/>
      <point x="564" y="604" type="line"/>
      <point x="503" y="545"/>
      <point x="447" y="486"/>
      <point x="411" y="444" type="curve"/>
      <point x="321" y="340"/>
      <point x="273" y="253"/>
      <point x="273" y="150" type="curve" smooth="yes"/>
      <point x="273" y="47"/>
      <point x="316" y="-10"/>
    </contour>
  </outline>
</glyph>
<glyph name="jhagujr" format="2">
  <advance width="506"/>
  <unicode hex="0A9D"/>
  <outline>
    <contour>
      <point x="149" y="-10" type="curve" smooth="yes"/>
      <point x="237" y="-10"/>
      <point x="281" y="73"/>
      <point x="281" y="238" type="curve" smooth="yes"/>
      <point x="281" y="400"/>
      <point x="222" y="492"/>
      <point x="127" y="492" type="curve" smooth="yes"/>
      <point x="97" y="492"/>
      <point x="69" y="485"/>
      <point x="44" y="474" type="curve"/>
      <point x="54" y="450" type="line"/>
      <point x="79" y="461"/>
      <point x="104" y="466"/>
      <point x="127" y="466" type="curve" smooth="yes"/>
      <point x="209" y="466"/>
      <point x="254" y="386"/>
      <point x="254" y="238" type="curve" smooth="yes"/>
      <point x="254" y="89"/>
      <point x="219" y="16"/>
      <point x="148" y="16" type="curve" smooth="yes"/>
      <point x="92" y="16"/>
      <point x="59" y="58"/>
      <point x="37" y="140" type="curve"/>
      <point x="13" y="130" type="line"/>
      <point x="37" y="43"/>
      <point x="79" y="-10"/>
    </contour>
    <contour>
      <point x="372" y="-6" type="line"/>
      <point x="434" y="61"/>
      <point x="469" y="130"/>
      <point x="469" y="232" type="curve" smooth="yes"/>
      <point x="469" y="334"/>
      <point x="417" y="412"/>
      <point x="330" y="412" type="curve" smooth="yes"/>
      <point x="302" y="412"/>
      <point x="273" y="403"/>
      <point x="246" y="388" type="curve"/>
      <point x="258" y="364" type="line"/>
      <point x="282" y="379"/>
      <point x="306" y="386"/>
      <point x="331" y="386" type="curve" smooth="yes"/>
      <point x="403" y="386"/>
      <point x="442" y="322"/>
      <point x="442" y="232" type="curve" smooth="yes"/>
      <point x="442" y="139"/>
      <point x="407" y="72"/>
      <point x="349" y="13" type="curve"/>
    </contour>
    <contour>
      <point x="353" y="398" type="line"/>
      <point x="379" y="398" type="line"/>
      <point x="379" y="598" type="line"/>
      <point x="353" y="602" type="line"/>
    </contour>
  </outline>
</glyph>
<glyph name="nyagujr" format="2">
  <advance width="489"/>
  <unicode hex="0A9E"/>
  <outline>
    <contour>
      <point x="141" y="193" type="curve" smooth="yes"/>
      <point x="225" y="193"/>
      <point x="258" y="269"/>
      <point x="258" y="386" type="curve" smooth="yes"/>
      <point x="258" y="515"/>
      <point x="218" y="602"/>
      <point x="122" y="602" type="curve" smooth="yes"/>
      <point x="95" y="602"/>
      <point x="67" y="595"/>
      <point x="43" y="584" type="curve"/>
      <point x="53" y="560" type="line"/>
      <point x="75" y="569"/>
      <point x="98" y="576"/>
      <point x="122" y="576" type="curve" smooth="yes"/>
      <point x="202" y="576"/>
      <point x="231" y="501"/>
      <point x="231" y="386" type="curve" smooth="yes"/>
      <point x="231" y="283"/>
      <point x="208" y="219"/>
      <point x="140" y="219" type="curve" smooth="yes"/>
      <point x="91" y="219"/>
      <point x="59" y="253"/>
      <point x="36" y="327" type="curve"/>
      <point x="12" y="317" type="line"/>
      <point x="39" y="229"/>
      <point x="83" y="193"/>
    </contour>
    <contour>
      <point x="306" y="354" type="curve" smooth="yes"/>
      <point x="347" y="354"/>
      <point x="379" y="367"/>
      <point x="403" y="393" type="curve"/>
      <point x="403" y="433" type="line"/>
      <point x="381" y="399"/>
      <point x="347" y="380"/>
      <point x="303" y="380" type="curve" smooth="yes"/>
      <point x="280" y="380"/>
      <point x="259" y="385"/>
      <point x="238" y="400" type="curve"/>
      <point x="238" y="372" type="line"/>
      <point x="258" y="360"/>
      <point x="283" y="354"/>
    </contour>
    <contour>
      <point x="475" y="0" type="curve" smooth="yes"/>
      <point x="483" y="0" type="line"/>
      <point x="486" y="26" type="line"/>
      <point x="461" y="26"/>
      <point x="443" y="30"/>
      <point x="431" y="39" type="curve" smooth="yes"/>
      <point x="417" y="50"/>
      <point x="411" y="69"/>
      <point x="411" y="98" type="curve" smooth="yes"/>
      <point x="411" y="598" type="line"/>
      <point x="385" y="602" type="line"/>
      <point x="385" y="98" type="line" smooth="yes"/>
      <point x="385" y="61"/>
      <point x="394" y="35"/>
      <point x="413" y="19" type="curve" smooth="yes"/>
      <point x="428" y="6"/>
      <point x="448" y="0"/>
    </contour>
  </outline>
</glyph>
<glyph name="ttagujr" format="2">
  <advance width="329"/>
  <unicode hex="0A9F"/>
  <outline>
    <contour>
      <point x="198" y="-10" type="curve" smooth="yes"/>
      <point x="248" y="-10"/>
      <point x="280" y="0"/>
      <point x="324" y="27" type="curve"/>
      <point x="310" y="52" type="line"/>
      <point x="269" y="25"/>
      <point x="239" y="16"/>
      <point x="198" y="16" type="curve" smooth="yes"/>
      <point x="118" y="16"/>
      <point x="67" y="70"/>
      <point x="67" y="142" type="curve" smooth="yes"/>
      <point x="67" y="206"/>
      <point x="96" y="249"/>
      <point x="175" y="317" type="curve" smooth="yes"/>
      <point x="256" y="386"/>
      <point x="291" y="427"/>
      <point x="291" y="493" type="curve" smooth="yes"/>
      <point x="291" y="558"/>
      <point x="245" y="602"/>
      <point x="169" y="602" type="curve" smooth="yes"/>
      <point x="139" y="602"/>
      <point x="107" y="595"/>
      <point x="78" y="583" type="curve"/>
      <point x="87" y="559" type="line"/>
      <point x="116" y="571"/>
      <point x="145" y="576"/>
      <point x="169" y="576" type="curve" smooth="yes"/>
      <point x="233" y="576"/>
      <point x="264" y="545"/>
      <point x="264" y="493" type="curve" smooth="yes"/>
      <point x="264" y="436"/>
      <point x="233" y="403"/>
      <point x="156" y="336" type="curve" smooth="yes"/>
      <point x="73" y="264"/>
      <point x="40" y="213"/>
      <point x="40" y="142" type="curve" smooth="yes"/>
      <point x="40" y="56"/>
      <point x="104" y="-10"/>
    </contour>
  </outline>
</glyph>
<glyph name="tthagujr" format="2">
  <advance width="368"/>
  <unicode hex="0AA0"/>
  <outline>
    <contour>
      <point x="189" y="-10" type="curve" smooth="yes"/>
      <point x="282" y="-10"/>
      <point x="337" y="46"/>
      <point x="337" y="148" type="curve" smooth="yes"/>
      <point x="337" y="240"/>
      <point x="293" y="290"/>
      <point x="222" y="356" type="curve" smooth="yes"/>
      <point x="160" y="414"/>
      <point x="135" y="441"/>
      <point x="135" y="496" type="curve" smooth="yes"/>
      <point x="135" y="550"/>
      <point x="178" y="576"/>
      <point x="230" y="576" type="curve" smooth="yes"/>
      <point x="249" y="576"/>
      <point x="268" y="574"/>
      <point x="284" y="569" type="curve"/>
      <point x="290" y="595" type="line"/>
      <point x="270" y="600"/>
      <point x="251" y="602"/>
      <point x="230" y="602" type="curve" smooth="yes"/>
      <point x="159" y="602"/>
      <point x="108" y="562"/>
      <point x="108" y="496" type="curve" smooth="yes"/>
      <point x="108" y="438"/>
      <point x="140" y="398"/>
      <point x="198" y="345" type="curve"/>
      <point x="207" y="334" type="line"/>
      <point x="276" y="275"/>
      <point x="310" y="227"/>
      <point x="310" y="148" type="curve" smooth="yes"/>
      <point x="310" y="64"/>
      <point x="269" y="16"/>
      <point x="189" y="16" type="curve" smooth="yes"/>
      <point x="111" y="16"/>
      <point x="67" y="72"/>
      <point x="67" y="155" type="curve" smooth="yes"/>
      <point x="67" y="274"/>
      <point x="146" y="323"/>
      <point x="225" y="323" type="curve" smooth="yes"/>
      <point x="240" y="323"/>
      <point x="245" y="323"/>
      <point x="254" y="321" type="curve"/>
      <point x="231" y="342" type="line"/>
      <point x="212" y="348" type="line"/>
      <point x="125" y="341"/>
      <point x="40" y="287"/>
      <point x="40" y="154" type="curve" smooth="yes"/>
      <point x="40" y="50"/>
      <point x="104" y="-10"/>
    </contour>
  </outline>
</glyph>
<glyph name="ddagujr" format="2">
  <advance width="342"/>
  <unicode hex="0AA1"/>
  <outline>
    <contour>
      <point x="188" y="-10" type="curve" smooth="yes"/>
      <point x="265" y="-10"/>
      <point x="312" y="48"/>
      <point x="312" y="125" type="curve" smooth="yes"/>
      <point x="312" y="197"/>
      <point x="285" y="244"/>
      <point x="207" y="329" type="curve" smooth="yes"/>
      <point x="146" y="395"/>
      <point x="124" y="430"/>
      <point x="124" y="484" type="curve" smooth="yes"/>
      <point x="124" y="540"/>
      <point x="162" y="576"/>
      <point x="219" y="576" type="curve" smooth="yes"/>
      <point x="238" y="576"/>
      <point x="257" y="573"/>
      <point x="271" y="569" type="curve"/>
      <point x="277" y="595" type="line"/>
      <point x="258" y="599"/>
      <point x="241" y="602"/>
      <point x="219" y="602" type="curve" smooth="yes"/>
      <point x="145" y="602"/>
      <point x="97" y="555"/>
      <point x="97" y="484" type="curve" smooth="yes"/>
      <point x="97" y="421"/>
      <point x="125" y="379"/>
      <point x="188" y="312" type="curve" smooth="yes"/>
      <point x="260" y="236"/>
      <point x="285" y="192"/>
      <point x="285" y="125" type="curve" smooth="yes"/>
      <point x="285" y="63"/>
      <point x="250" y="16"/>
      <point x="188" y="16" type="curve" smooth="yes"/>
      <point x="116" y="16"/>
      <point x="78" y="65"/>
      <point x="39" y="148" type="curve"/>
      <point x="15" y="137" type="line"/>
      <point x="60" y="42"/>
      <point x="106" y="-10"/>
    </contour>
  </outline>
</glyph>
<glyph name="ddhagujr" format="2">
  <advance width="380"/>
  <unicode hex="0AA2"/>
  <outline>
    <contour>
      <point x="205" y="-10" type="curve" smooth="yes"/>
      <point x="298" y="-10"/>
      <point x="358" y="51"/>
      <point x="358" y="138" type="curve" smooth="yes"/>
      <point x="358" y="205"/>
      <point x="326" y="248"/>
      <point x="269" y="248" type="curve" smooth="yes"/>
      <point x="206" y="248"/>
      <point x="171" y="196"/>
      <point x="171" y="132" type="curve" smooth="yes"/>
      <point x="171" y="79"/>
      <point x="185" y="44"/>
      <point x="205" y="3" type="curve"/>
      <point x="230" y="11" type="line"/>
      <point x="208" y="50"/>
      <point x="198" y="88"/>
      <point x="198" y="131" type="curve" smooth="yes"/>
      <point x="198" y="181"/>
      <point x="222" y="222"/>
      <point x="269" y="222" type="curve" smooth="yes"/>
      <point x="315" y="222"/>
      <point x="331" y="182"/>
      <point x="331" y="138" type="curve" smooth="yes"/>
      <point x="331" y="63"/>
      <point x="281" y="15"/>
      <point x="208" y="15" type="curve" smooth="yes"/>
      <point x="202" y="15" type="line" smooth="yes"/>
      <point x="121" y="15"/>
      <point x="67" y="69"/>
      <point x="67" y="152" type="curve" smooth="yes"/>
      <point x="67" y="212"/>
      <point x="91" y="256"/>
      <point x="163" y="315" type="curve" smooth="yes"/>
      <point x="208" y="352" type="line" smooth="yes"/>
      <point x="259" y="394"/>
      <point x="296" y="432"/>
      <point x="296" y="495" type="curve" smooth="yes"/>
      <point x="296" y="554"/>
      <point x="256" y="602"/>
      <point x="183" y="602" type="curve" smooth="yes"/>
      <point x="150" y="602"/>
      <point x="114" y="594"/>
      <point x="83" y="582" type="curve"/>
      <point x="92" y="556" type="line"/>
      <point x="122" y="568"/>
      <point x="156" y="576"/>
      <point x="183" y="576" type="curve" smooth="yes"/>
      <point x="243" y="576"/>
      <point x="269" y="542"/>
      <point x="269" y="495" type="curve" smooth="yes"/>
      <point x="269" y="451"/>
      <point x="245" y="416"/>
      <point x="190" y="371" type="curve" smooth="yes"/>
      <point x="145" y="334" type="line" smooth="yes"/>
      <point x="70" y="273"/>
      <point x="40" y="221"/>
      <point x="40" y="152" type="curve" smooth="yes"/>
      <point x="40" y="58"/>
      <point x="102" y="-10"/>
    </contour>
  </outline>
</glyph>
<glyph name="nnagujr" format="2">
  <advance width="572"/>
  <unicode hex="0AA3"/>
  <outline>
    <contour>
      <point x="300" y="-141" type="line"/>
      <point x="324" y="-114"/>
      <point x="340" y="-89"/>
      <point x="340" y="-54" type="curve" smooth="yes"/>
      <point x="340" y="-11"/>
      <point x="322" y="18"/>
      <point x="286" y="45" type="curve" smooth="yes"/>
      <point x="139" y="154" type="line" smooth="yes"/>
      <point x="85" y="194"/>
      <point x="85" y="227"/>
      <point x="85" y="276" type="curve" smooth="yes"/>
      <point x="85" y="598" type="line"/>
      <point x="59" y="602" type="line"/>
      <point x="59" y="277" type="line" smooth="yes"/>
      <point x="59" y="204"/>
      <point x="71" y="171"/>
      <point x="120" y="135" type="curve" smooth="yes"/>
      <point x="268" y="26" type="line" smooth="yes"/>
      <point x="303" y="0"/>
      <point x="314" y="-19"/>
      <point x="314" y="-54" type="curve" smooth="yes"/>
      <point x="314" y="-79"/>
      <point x="301" y="-102"/>
      <point x="278" y="-125" type="curve"/>
    </contour>
    <contour>
      <point x="276" y="223" type="curve" smooth="yes"/>
      <point x="350" y="223"/>
      <point x="384" y="296"/>
      <point x="384" y="409" type="curve" smooth="yes"/>
      <point x="384" y="523"/>
      <point x="346" y="602"/>
      <point x="260" y="602" type="curve" smooth="yes"/>
      <point x="233" y="602"/>
      <point x="205" y="595"/>
      <point x="180" y="584" type="curve"/>
      <point x="190" y="560" type="line"/>
      <point x="212" y="569"/>
      <point x="236" y="576"/>
      <point x="260" y="576" type="curve" smooth="yes"/>
      <point x="331" y="576"/>
      <point x="357" y="506"/>
      <point x="357" y="409" type="curve" smooth="yes"/>
      <point x="357" y="311"/>
      <point x="333" y="249"/>
      <point x="275" y="249" type="curve" smooth="yes"/>
      <point x="226" y="249"/>
      <point x="194" y="283"/>
      <point x="171" y="357" type="curve"/>
      <point x="147" y="347" type="line"/>
      <point x="174" y="259"/>
      <point x="218" y="223"/>
    </contour>
    <contour>
      <point x="558" y="0" type="curve" smooth="yes"/>
      <point x="566" y="0" type="line"/>
      <point x="569" y="26" type="line"/>
      <point x="544" y="26"/>
      <point x="526" y="30"/>
      <point x="514" y="39" type="curve" smooth="yes"/>
      <point x="500" y="50"/>
      <point x="494" y="69"/>
      <point x="494" y="98" type="curve" smooth="yes"/>
      <point x="494" y="598" type="line"/>
      <point x="468" y="602" type="line"/>
      <point x="468" y="98" type="line" smooth="yes"/>
      <point x="468" y="61"/>
      <point x="477" y="35"/>
      <point x="496" y="19" type="curve" smooth="yes"/>
      <point x="511" y="6"/>
      <point x="531" y="0"/>
    </contour>
  </outline>
</glyph>
<glyph name="tagujr" format="2">
  <advance width="407"/>
  <unicode hex="0AA4"/>
  <outline>
    <contour>
      <point x="164" y="7" type="curve"/>
      <point x="184" y="24" type="line"/>
      <point x="116" y="98"/>
      <point x="65" y="175"/>
      <point x="65" y="256" type="curve" smooth="yes"/>
      <point x="65" y="296"/>
      <point x="77" y="327"/>
      <point x="100" y="350" type="curve" smooth="yes"/>
      <point x="126" y="376"/>
      <point x="165" y="389"/>
      <point x="232" y="389" type="curve" smooth="yes"/>
      <point x="313" y="389" type="line"/>
      <point x="313" y="415" type="line"/>
      <point x="226" y="415" type="line" smooth="yes"/>
      <point x="160" y="415"/>
      <point x="116" y="400"/>
      <point x="85" y="372" type="curve" smooth="yes"/>
      <point x="55" y="345"/>
      <point x="38" y="305"/>
      <point x="38" y="256" type="curve" smooth="yes"/>
      <point x="38" y="169"/>
      <point x="90" y="88"/>
    </contour>
    <contour>
      <point x="393" y="0" type="curve" smooth="yes"/>
      <point x="401" y="0" type="line"/>
      <point x="404" y="26" type="line"/>
      <point x="378" y="26"/>
      <point x="359" y="31"/>
      <point x="348" y="42" type="curve" smooth="yes"/>
      <point x="334" y="56"/>
      <point x="329" y="75"/>
      <point x="329" y="105" type="curve" smooth="yes"/>
      <point x="329" y="598" type="line"/>
      <point x="303" y="602" type="line"/>
      <point x="303" y="104" type="line" smooth="yes"/>
      <point x="303" y="68"/>
      <point x="311" y="42"/>
      <point x="326" y="25" type="curve" smooth="yes"/>
      <point x="341" y="8"/>
      <point x="364" y="0"/>
    </contour>
  </outline>
</glyph>
<glyph name="dagujr" format="2">
  <advance width="335"/>
  <unicode hex="0AA6"/>
  <outline>
    <contour>
      <point x="228" y="-10" type="curve" smooth="yes"/>
      <point x="286" y="-10"/>
      <point x="338" y="21"/>
      <point x="338" y="71" type="curve" smooth="yes"/>
      <point x="338" y="100"/>
      <point x="323" y="118"/>
      <point x="301" y="118" type="curve" smooth="yes"/>
      <point x="280" y="118"/>
      <point x="264" y="102"/>
      <point x="264" y="76" type="curve" smooth="yes"/>
      <point x="264" y="56"/>
      <point x="274" y="37"/>
      <point x="294" y="27" type="curve"/>
      <point x="294" y="40" type="line"/>
      <point x="278" y="24"/>
      <point x="255" y="16"/>
      <point x="228" y="16" type="curve" smooth="yes"/>
      <point x="152" y="16"/>
      <point x="96" y="80"/>
      <point x="96" y="167" type="curve" smooth="yes"/>
      <point x="96" y="259"/>
      <point x="158" y="317"/>
      <point x="231" y="317" type="curve" smooth="yes"/>
      <point x="245" y="317"/>
      <point x="257" y="316"/>
      <point x="267" y="314" type="curve"/>
      <point x="272" y="339" type="line"/>
      <point x="257" y="342"/>
      <point x="246" y="343"/>
      <point x="231" y="343" type="curve" smooth="yes"/>
      <point x="144" y="343"/>
      <point x="69" y="273"/>
      <point x="69" y="167" type="curve" smooth="yes"/>
      <point x="69" y="66"/>
      <point x="139" y="-10"/>
    </contour>
    <contour>
      <point x="126" y="288" type="curve"/>
      <point x="147" y="304" type="line"/>
      <point x="95" y="340"/>
      <point x="65" y="390"/>
      <point x="65" y="456" type="curve" smooth="yes"/>
      <point x="65" y="528"/>
      <point x="112" y="576"/>
      <point x="181" y="576" type="curve" smooth="yes"/>
      <point x="200" y="576"/>
      <point x="223" y="573"/>
      <point x="238" y="569" type="curve"/>
      <point x="244" y="594" type="line"/>
      <point x="224" y="599"/>
      <point x="206" y="602"/>
      <point x="181" y="602" type="curve" smooth="yes"/>
      <point x="98" y="602"/>
      <point x="38" y="542"/>
      <point x="38" y="456" type="curve" smooth="yes"/>
      <point x="38" y="381"/>
      <point x="74" y="325"/>
    </contour>
  </outline>
</glyph>
<glyph name="dhagujr" format="2">
  <advance width="437"/>
  <unicode hex="0AA7"/>
  <outline>
    <contour>
      <point x="221" y="117" type="curve" smooth="yes"/>
      <point x="262" y="117"/>
      <point x="314" y="131"/>
      <point x="348" y="163" type="curve"/>
      <point x="348" y="197" type="line"/>
      <point x="315" y="161"/>
      <point x="268" y="143"/>
      <point x="221" y="143" type="curve" smooth="yes"/>
      <point x="144" y="143"/>
      <point x="96" y="188"/>
      <point x="96" y="258" type="curve" smooth="yes"/>
      <point x="96" y="322"/>
      <point x="144" y="368"/>
      <point x="212" y="368" type="curve" smooth="yes"/>
      <point x="220" y="368"/>
      <point x="230" y="367"/>
      <point x="235" y="366" type="curve"/>
      <point x="238" y="392" type="line"/>
      <point x="230" y="393"/>
      <point x="221" y="394"/>
      <point x="212" y="394" type="curve" smooth="yes"/>
      <point x="133" y="394"/>
      <point x="69" y="336"/>
      <point x="69" y="258" type="curve" smooth="yes"/>
      <point x="69" y="174"/>
      <point x="130" y="117"/>
    </contour>
    <contour>
      <point x="117" y="344" type="curve"/>
      <point x="137" y="360" type="line"/>
      <point x="99" y="394"/>
      <point x="67" y="429"/>
      <point x="67" y="484" type="curve" smooth="yes"/>
      <point x="67" y="537"/>
      <point x="102" y="576"/>
      <point x="183" y="614" type="curve"/>
      <point x="171" y="638" type="line"/>
      <point x="92" y="601"/>
      <point x="40" y="557"/>
      <point x="40" y="484" type="curve" smooth="yes"/>
      <point x="40" y="425"/>
      <point x="77" y="379"/>
    </contour>
    <contour>
      <point x="423" y="0" type="curve" smooth="yes"/>
      <point x="431" y="0" type="line"/>
      <point x="434" y="26" type="line"/>
      <point x="409" y="26"/>
      <point x="391" y="30"/>
      <point x="379" y="39" type="curve" smooth="yes"/>
      <point x="365" y="50"/>
      <point x="359" y="69"/>
      <point x="359" y="98" type="curve" smooth="yes"/>
      <point x="359" y="598" type="line"/>
      <point x="333" y="602" type="line"/>
      <point x="333" y="98" type="line" smooth="yes"/>
      <point x="333" y="61"/>
      <point x="342" y="35"/>
      <point x="361" y="19" type="curve" smooth="yes"/>
      <point x="376" y="6"/>
      <point x="396" y="0"/>
    </contour>
  </outline>
</glyph>
<glyph name="pagujr" format="2">
  <advance width="397"/>
  <unicode hex="0AAA"/>
  <outline>
    <contour>
      <point x="201" y="171" type="curve" smooth="yes"/>
      <point x="240" y="171"/>
      <point x="276" y="184"/>
      <point x="301" y="203" type="curve"/>
      <point x="301" y="237" type="line"/>
      <point x="271" y="211"/>
      <point x="237" y="197"/>
      <point x="201" y="197" type="curve" smooth="yes"/>
      <point x="169" y="197"/>
      <point x="144" y="205"/>
      <point x="127" y="222" type="curve" smooth="yes"/>
      <point x="109" y="240"/>
      <point x="100" y="267"/>
      <point x="100" y="303" type="curve" smooth="yes"/>
      <point x="100" y="494" type="line" smooth="yes"/>
      <point x="100" y="529"/>
      <point x="92" y="554"/>
      <point x="77" y="570" type="curve" smooth="yes"/>
      <point x="63" y="585"/>
      <point x="42" y="592"/>
      <point x="15" y="592" type="curve" smooth="yes"/>
      <point x="11" y="592" type="line"/>
      <point x="9" y="566" type="line"/>
      <point x="30" y="566"/>
      <point x="45" y="562"/>
      <point x="55" y="554" type="curve" smooth="yes"/>
      <point x="69" y="543"/>
      <point x="74" y="524"/>
      <point x="74" y="494" type="curve" smooth="yes"/>
      <point x="74" y="303" type="line" smooth="yes"/>
      <point x="74" y="257"/>
      <point x="88" y="221"/>
      <point x="114" y="199" type="curve" smooth="yes"/>
      <point x="135" y="181"/>
      <point x="165" y="171"/>
    </contour>
    <contour>
      <point x="383" y="0" type="curve" smooth="yes"/>
      <point x="391" y="0" type="line"/>
      <point x="394" y="26" type="line"/>
      <point x="369" y="26"/>
      <point x="351" y="30"/>
      <point x="339" y="39" type="curve" smooth="yes"/>
      <point x="325" y="50"/>
      <point x="319" y="69"/>
      <point x="319" y="98" type="curve" smooth="yes"/>
      <point x="319" y="598" type="line"/>
      <point x="293" y="602" type="line"/>
      <point x="293" y="98" type="line" smooth="yes"/>
      <point x="293" y="61"/>
      <point x="302" y="35"/>
      <point x="321" y="19" type="curve" smooth="yes"/>
      <point x="336" y="6"/>
      <point x="356" y="0"/>
    </contour>
  </outline>
</glyph>
<glyph name="bagujr" format="2">
  <advance width="506"/>
  <unicode hex="0AAC"/>
  <outline>
    <contour>
      <point x="164" y="167" type="curve" smooth="yes"/>
      <point x="241" y="167"/>
      <point x="279" y="228"/>
      <point x="279" y="324" type="curve" smooth="yes"/>
      <point x="279" y="422" type="line"/>
      <point x="253" y="426" type="line"/>
      <point x="253" y="331" type="line" smooth="yes"/>
      <point x="253" y="281"/>
      <point x="247" y="249"/>
      <point x="226" y="221" type="curve" smooth="yes"/>
      <point x="214" y="205"/>
      <point x="194" y="193"/>
      <point x="164" y="193" type="curve" smooth="yes"/>
      <point x="102" y="193"/>
      <point x="64" y="241"/>
      <point x="64" y="338" type="curve" smooth="yes"/>
      <point x="64" y="447"/>
      <point x="122" y="525"/>
      <point x="192" y="582" type="curve"/>
      <point x="176" y="602" type="line"/>
      <point x="99" y="537"/>
      <point x="38" y="455"/>
      <point x="38" y="338" type="curve" smooth="yes"/>
      <point x="38" y="226"/>
      <point x="88" y="167"/>
    </contour>
    <contour>
      <point x="339" y="254" type="curve" smooth="yes"/>
      <point x="373" y="254"/>
      <point x="396" y="269"/>
      <point x="413" y="291" type="curve"/>
      <point x="410" y="324" type="line"/>
      <point x="390" y="294"/>
      <point x="368" y="280"/>
      <point x="339" y="280" type="curve" smooth="yes"/>
      <point x="313" y="280"/>
      <point x="289" y="293"/>
      <point x="274" y="314" type="curve"/>
      <point x="264" y="288" type="line"/>
      <point x="286" y="266"/>
      <point x="311" y="254"/>
    </contour>
    <contour>
      <point x="492" y="0" type="curve" smooth="yes"/>
      <point x="500" y="0" type="line"/>
      <point x="503" y="26" type="line"/>
      <point x="478" y="26"/>
      <point x="460" y="30"/>
      <point x="448" y="39" type="curve" smooth="yes"/>
      <point x="434" y="50"/>
      <point x="428" y="69"/>
      <point x="428" y="98" type="curve" smooth="yes"/>
      <point x="428" y="598" type="line"/>
      <point x="402" y="602" type="line"/>
      <point x="402" y="98" type="line" smooth="yes"/>
      <point x="402" y="61"/>
      <point x="411" y="35"/>
      <point x="430" y="19" type="curve" smooth="yes"/>
      <point x="445" y="6"/>
      <point x="465" y="0"/>
    </contour>
  </outline>
</glyph>
<glyph name="yagujr" format="2">
  <advance width="413"/>
  <unicode hex="0AAF"/>
  <outline>
    <contour>
      <point x="202" y="169" type="curve" smooth="yes"/>
      <point x="251" y="169"/>
      <point x="291" y="189"/>
      <point x="317" y="218" type="curve"/>
      <point x="317" y="258" type="line"/>
      <point x="285" y="215"/>
      <point x="249" y="195"/>
      <point x="202" y="195" type="curve" smooth="yes"/>
      <point x="139" y="195"/>
      <point x="89" y="231"/>
      <point x="57" y="310" type="curve"/>
      <point x="49" y="295" type="line"/>
      <point x="120" y="335"/>
      <point x="169" y="381"/>
      <point x="169" y="467" type="curve" smooth="yes"/>
      <point x="169" y="547"/>
      <point x="126" y="602"/>
      <point x="59" y="602" type="curve" smooth="yes"/>
      <point x="40" y="602"/>
      <point x="22" y="599"/>
      <point x="6" y="593" type="curve"/>
      <point x="14" y="568" type="line"/>
      <point x="30" y="573"/>
      <point x="44" y="576"/>
      <point x="59" y="576" type="curve" smooth="yes"/>
      <point x="112" y="576"/>
      <point x="142" y="529"/>
      <point x="142" y="467" type="curve" smooth="yes"/>
      <point x="142" y="389"/>
      <point x="95" y="351"/>
      <point x="27" y="316" type="curve"/>
      <point x="59" y="220"/>
      <point x="123" y="169"/>
    </contour>
    <contour>
      <point x="399" y="0" type="curve" smooth="yes"/>
      <point x="407" y="0" type="line"/>
      <point x="410" y="26" type="line"/>
      <point x="385" y="26"/>
      <point x="367" y="30"/>
      <point x="355" y="39" type="curve" smooth="yes"/>
      <point x="341" y="50"/>
      <point x="335" y="69"/>
      <point x="335" y="98" type="curve" smooth="yes"/>
      <point x="335" y="598" type="line"/>
      <point x="309" y="602" type="line"/>
      <point x="309" y="98" type="line" smooth="yes"/>
      <point x="309" y="61"/>
      <point x="318" y="35"/>
      <point x="337" y="19" type="curve" smooth="yes"/>
      <point x="352" y="6"/>
      <point x="372" y="0"/>
    </contour>
  </outline>
</glyph>
<glyph name="ragujr" format="2">
  <advance width="307"/>
  <unicode hex="0AB0"/>
  <guideline x="37" y="481" angle="0"/>
  <outline>
    <contour>
      <point x="292" y="0" type="curve" smooth="yes"/>
      <point x="298" y="0" type="line"/>
      <point x="301" y="26" type="line"/>
      <point x="292" y="26" type="line" smooth="yes"/>
      <point x="232" y="26"/>
      <point x="180" y="77"/>
      <point x="113" y="224" type="curve"/>
      <point x="113" y="232" type="line"/>
      <point x="100" y="259"/>
      <point x="81" y="274"/>
      <point x="57" y="274" type="curve" smooth="yes"/>
      <point x="34" y="274"/>
      <point x="21" y="262"/>
      <point x="21" y="245" type="curve" smooth="yes"/>
      <point x="21" y="221"/>
      <point x="42" y="207"/>
      <point x="80" y="207" type="curve" smooth="yes"/>
      <point x="180" y="207"/>
      <point x="266" y="278"/>
      <point x="266" y="410" type="curve" smooth="yes"/>
      <point x="266" y="528"/>
      <point x="204" y="602"/>
      <point x="102" y="602" type="curve" smooth="yes"/>
      <point x="72" y="602"/>
      <point x="47" y="597"/>
      <point x="20" y="587" type="curve"/>
      <point x="29" y="562" type="line"/>
      <point x="54" y="571"/>
      <point x="77" y="576"/>
      <point x="102" y="576" type="curve" smooth="yes"/>
      <point x="188" y="576"/>
      <point x="239" y="514"/>
      <point x="239" y="410" type="curve" smooth="yes"/>
      <point x="239" y="292"/>
      <point x="166" y="237"/>
      <point x="90" y="233" type="curve"/>
      <point x="87" y="220" type="line"/>
      <point x="159" y="61"/>
      <point x="221" y="0"/>
    </contour>
  </outline>
</glyph>
<glyph name="lagujr" format="2">
  <advance width="456"/>
  <unicode hex="0AB2"/>
  <outline>
    <contour>
      <point x="222" y="113" type="curve" smooth="yes"/>
      <point x="248" y="113"/>
      <point x="276" y="119"/>
      <point x="298" y="129" type="curve"/>
      <point x="289" y="153" type="line"/>
      <point x="266" y="143"/>
      <point x="243" y="139"/>
      <point x="222" y="139" type="curve" smooth="yes"/>
      <point x="124" y="139"/>
      <point x="65" y="214"/>
      <point x="65" y="335" type="curve" smooth="yes"/>
      <point x="65" y="457"/>
      <point x="137" y="534"/>
      <point x="234" y="579" type="curve"/>
      <point x="223" y="602" type="line"/>
      <point x="117" y="554"/>
      <point x="38" y="467"/>
      <point x="38" y="335" type="curve" smooth="yes"/>
      <point x="38" y="200"/>
      <point x="111" y="113"/>
    </contour>
    <contour>
      <point x="178" y="329" type="line"/>
      <point x="364" y="384" type="line"/>
      <point x="364" y="410" type="line"/>
      <point x="170" y="354" type="line"/>
    </contour>
    <contour>
      <point x="442" y="0" type="curve" smooth="yes"/>
      <point x="450" y="0" type="line"/>
      <point x="453" y="26" type="line"/>
      <point x="428" y="26"/>
      <point x="410" y="30"/>
      <point x="398" y="39" type="curve" smooth="yes"/>
      <point x="384" y="50"/>
      <point x="378" y="69"/>
      <point x="378" y="98" type="curve" smooth="yes"/>
      <point x="378" y="598" type="line"/>
      <point x="352" y="602" type="line"/>
      <point x="352" y="98" type="line" smooth="yes"/>
      <point x="352" y="61"/>
      <point x="361" y="35"/>
      <point x="380" y="19" type="curve" smooth="yes"/>
      <point x="395" y="6"/>
      <point x="415" y="0"/>
    </contour>
  </outline>
</glyph>
<glyph name="llagujr" format="2">
  <advance width="533"/>
  <unicode hex="0AB3"/>
  <outline>
    <contour>
      <point x="519" y="0" type="curve" smooth="yes"/>
      <point x="527" y="0" type="line"/>
      <point x="530" y="26" type="line"/>
      <point x="505" y="26"/>
      <point x="487" y="30"/>
      <point x="475" y="39" type="curve" smooth="yes"/>
      <point x="461" y="50"/>
      <point x="455" y="69"/>
      <point x="455" y="98" type="curve" smooth="yes"/>
      <point x="455" y="454" type="line" smooth="yes"/>
      <point x="455" y="496"/>
      <point x="447" y="533"/>
      <point x="427" y="559" type="curve" smooth="yes"/>
      <point x="411" y="579"/>
      <point x="388" y="592"/>
      <point x="356" y="592" type="curve" smooth="yes"/>
      <point x="322" y="592"/>
      <point x="298" y="578"/>
      <point x="282" y="555" type="curve" smooth="yes"/>
      <point x="264" y="529"/>
      <point x="257" y="493"/>
      <point x="257" y="454" type="curve" smooth="yes"/>
      <point x="257" y="295" type="line" smooth="yes"/>
      <point x="257" y="259"/>
      <point x="250" y="231"/>
      <point x="237" y="212" type="curve" smooth="yes"/>
      <point x="222" y="190"/>
      <point x="199" y="179"/>
      <point x="169" y="179" type="curve" smooth="yes"/>
      <point x="102" y="179"/>
      <point x="66" y="236"/>
      <point x="66" y="338" type="curve" smooth="yes"/>
      <point x="66" y="445"/>
      <point x="119" y="525"/>
      <point x="176" y="585" type="curve"/>
      <point x="157" y="603" type="line"/>
      <point x="94" y="538"/>
      <point x="39" y="454"/>
      <point x="39" y="338" type="curve" smooth="yes"/>
      <point x="39" y="222"/>
      <point x="88" y="153"/>
      <point x="169" y="153" type="curve" smooth="yes"/>
      <point x="209" y="153"/>
      <point x="241" y="170"/>
      <point x="260" y="200" type="curve" smooth="yes"/>
      <point x="275" y="224"/>
      <point x="283" y="253"/>
      <point x="283" y="295" type="curve" smooth="yes"/>
      <point x="283" y="454" type="line" smooth="yes"/>
      <point x="283" y="488"/>
      <point x="288" y="520"/>
      <point x="302" y="540" type="curve" smooth="yes"/>
      <point x="313" y="556"/>
      <point x="331" y="566"/>
      <point x="356" y="566" type="curve" smooth="yes"/>
      <point x="379" y="566"/>
      <point x="395" y="558"/>
      <point x="406" y="545" type="curve" smooth="yes"/>
      <point x="423" y="525"/>
      <point x="429" y="491"/>
      <point x="429" y="454" type="curve" smooth="yes"/>
      <point x="429" y="98" type="line" smooth="yes"/>
      <point x="429" y="61"/>
      <point x="438" y="35"/>
      <point x="457" y="19" type="curve" smooth="yes"/>
      <point x="472" y="6"/>
      <point x="492" y="0"/>
    </contour>
  </outline>
</glyph>
<glyph name="vagujr" format="2">
  <advance width="399"/>
  <unicode hex="0AB5"/>
  <outline>
    <contour>
      <point x="197" y="181" type="curve" smooth="yes"/>
      <point x="243" y="181"/>
      <point x="280" y="196"/>
      <point x="302" y="215" type="curve"/>
      <point x="302" y="250" type="line"/>
      <point x="275" y="223"/>
      <point x="241" y="207"/>
      <point x="197" y="207" type="curve" smooth="yes"/>
      <point x="120" y="207"/>
      <point x="65" y="261"/>
      <point x="65" y="357" type="curve" smooth="yes"/>
      <point x="65" y="450"/>
      <point x="121" y="506"/>
      <point x="198" y="506" type="curve" smooth="yes"/>
      <point x="216" y="506"/>
      <point x="230" y="504"/>
      <point x="242" y="501" type="curve"/>
      <point x="246" y="527" type="line"/>
      <point x="233" y="530"/>
      <point x="216" y="532"/>
      <point x="198" y="532" type="curve" smooth="yes"/>
      <point x="106" y="532"/>
      <point x="38" y="466"/>
      <point x="38" y="357" type="curve" smooth="yes"/>
      <point x="38" y="246"/>
      <point x="105" y="181"/>
    </contour>
    <contour>
      <point x="385" y="0" type="curve" smooth="yes"/>
      <point x="393" y="0" type="line"/>
      <point x="396" y="26" type="line"/>
      <point x="371" y="26"/>
      <point x="353" y="30"/>
      <point x="341" y="39" type="curve" smooth="yes"/>
      <point x="327" y="50"/>
      <point x="321" y="69"/>
      <point x="321" y="98" type="curve" smooth="yes"/>
      <point x="321" y="598" type="line"/>
      <point x="295" y="602" type="line"/>
      <point x="295" y="98" type="line" smooth="yes"/>
      <point x="295" y="61"/>
      <point x="304" y="35"/>
      <point x="323" y="19" type="curve" smooth="yes"/>
      <point x="338" y="6"/>
      <point x="358" y="0"/>
    </contour>
  </outline>
</glyph>
<glyph name="shagujr" format="2">
  <advance width="475"/>
  <unicode hex="0AB6"/>
  <outline>
    <contour>
      <point x="277" y="0" type="curve" smooth="yes"/>
      <point x="288" y="0" type="line"/>
      <point x="292" y="26" type="line"/>
      <point x="280" y="26" type="line" smooth="yes"/>
      <point x="234" y="26"/>
      <point x="183" y="79"/>
      <point x="120" y="217" type="curve"/>
      <point x="121" y="225" type="line"/>
      <point x="107" y="252"/>
      <point x="88" y="267"/>
      <point x="64" y="267" type="curve" smooth="yes"/>
      <point x="41" y="267"/>
      <point x="28" y="255"/>
      <point x="28" y="238" type="curve" smooth="yes"/>
      <point x="28" y="214"/>
      <point x="49" y="200"/>
      <point x="87" y="200" type="curve" smooth="yes"/>
      <point x="198" y="200"/>
      <point x="278" y="279"/>
      <point x="278" y="425" type="curve" smooth="yes"/>
      <point x="278" y="536"/>
      <point x="226" y="602"/>
      <point x="153" y="602" type="curve" smooth="yes"/>
      <point x="86" y="602"/>
      <point x="48" y="552"/>
      <point x="48" y="487" type="curve" smooth="yes"/>
      <point x="48" y="414"/>
      <point x="90" y="360"/>
      <point x="174" y="347" type="curve"/>
      <point x="181" y="374" type="line"/>
      <point x="113" y="380"/>
      <point x="74" y="423"/>
      <point x="74" y="487" type="curve" smooth="yes"/>
      <point x="74" y="538"/>
      <point x="100" y="576"/>
      <point x="153" y="576" type="curve" smooth="yes"/>
      <point x="214" y="576"/>
      <point x="252" y="520"/>
      <point x="252" y="425" type="curve" smooth="yes"/>
      <point x="252" y="296"/>
      <point x="186" y="231"/>
      <point x="97" y="226" type="curve"/>
      <point x="94" y="213" type="line"/>
      <point x="156" y="75"/>
      <point x="218" y="0"/>
    </contour>
    <contour>
      <point x="461" y="0" type="curve" smooth="yes"/>
      <point x="469" y="0" type="line"/>
      <point x="472" y="26" type="line"/>
      <point x="447" y="26"/>
      <point x="429" y="30"/>
      <point x="417" y="39" type="curve" smooth="yes"/>
      <point x="403" y="50"/>
      <point x="397" y="69"/>
      <point x="397" y="98" type="curve" smooth="yes"/>
      <point x="397" y="598" type="line"/>
      <point x="371" y="602" type="line"/>
      <point x="371" y="98" type="line" smooth="yes"/>
      <point x="371" y="61"/>
      <point x="380" y="35"/>
      <point x="399" y="19" type="curve" smooth="yes"/>
      <point x="414" y="6"/>
      <point x="434" y="0"/>
    </contour>
  </outline>
</glyph>
<glyph name="sagujr" format="2">
  <advance width="495"/>
  <unicode hex="0AB8"/>
  <outline>
    <contour>
      <point x="292" y="0" type="curve" smooth="yes"/>
      <point x="298" y="0" type="line"/>
      <point x="301" y="26" type="line"/>
      <point x="292" y="26" type="line" smooth="yes"/>
      <point x="232" y="26"/>
      <point x="180" y="77"/>
      <point x="113" y="224" type="curve"/>
      <point x="113" y="232" type="line"/>
      <point x="100" y="259"/>
      <point x="81" y="274"/>
      <point x="57" y="274" type="curve" smooth="yes"/>
      <point x="34" y="274"/>
      <point x="21" y="262"/>
      <point x="21" y="245" type="curve" smooth="yes"/>
      <point x="21" y="221"/>
      <point x="42" y="207"/>
      <point x="80" y="207" type="curve" smooth="yes"/>
      <point x="180" y="207"/>
      <point x="266" y="278"/>
      <point x="266" y="410" type="curve" smooth="yes"/>
      <point x="266" y="532"/>
      <point x="201" y="602"/>
      <point x="102" y="602" type="curve" smooth="yes"/>
      <point x="75" y="602"/>
      <point x="47" y="597"/>
      <point x="21" y="589" type="curve"/>
      <point x="29" y="564" type="line"/>
      <point x="54" y="572"/>
      <point x="80" y="576"/>
      <point x="102" y="576" type="curve" smooth="yes"/>
      <point x="187" y="576"/>
      <point x="239" y="515"/>
      <point x="239" y="410" type="curve" smooth="yes"/>
      <point x="239" y="292"/>
      <point x="166" y="237"/>
      <point x="90" y="233" type="curve"/>
      <point x="87" y="220" type="line"/>
      <point x="159" y="61"/>
      <point x="221" y="0"/>
    </contour>
    <contour>
      <point x="312" y="305" type="curve" smooth="yes"/>
      <point x="344" y="305"/>
      <point x="376" y="314"/>
      <point x="401" y="333" type="curve"/>
      <point x="401" y="368" type="line"/>
      <point x="376" y="342"/>
      <point x="347" y="331"/>
      <point x="312" y="331" type="curve" smooth="yes"/>
      <point x="291" y="331"/>
      <point x="267" y="335"/>
      <point x="246" y="350" type="curve"/>
      <point x="246" y="320" type="line"/>
      <point x="267" y="309"/>
      <point x="292" y="305"/>
    </contour>
    <contour>
      <point x="481" y="0" type="curve" smooth="yes"/>
      <point x="489" y="0" type="line"/>
      <point x="492" y="26" type="line"/>
      <point x="467" y="26"/>
      <point x="449" y="30"/>
      <point x="437" y="39" type="curve" smooth="yes"/>
      <point x="423" y="50"/>
      <point x="417" y="69"/>
      <point x="417" y="98" type="curve" smooth="yes"/>
      <point x="417" y="598" type="line"/>
      <point x="391" y="602" type="line"/>
      <point x="391" y="98" type="line" smooth="yes"/>
      <point x="391" y="61"/>
      <point x="400" y="35"/>
      <point x="419" y="19" type="curve" smooth="yes"/>
      <point x="434" y="6"/>
      <point x="454" y="0"/>
    </contour>
  </outline>
</glyph>
<glyph name="hagujr" format="2">
  <advance width="457"/>
  <unicode hex="0AB9"/>
  <outline>
    <contour>
      <point x="294" y="-10" type="curve" smooth="yes"/>
      <point x="352" y="-10"/>
      <point x="398" y="3"/>
      <point x="447" y="29" type="curve"/>
      <point x="435" y="54" type="line"/>
      <point x="389" y="29"/>
      <point x="350" y="16"/>
      <point x="294" y="16" type="curve" smooth="yes"/>
      <point x="160" y="16"/>
      <point x="67" y="110"/>
      <point x="67" y="282" type="curve" smooth="yes"/>
      <point x="67" y="347"/>
      <point x="82" y="403"/>
      <point x="105" y="458" type="curve"/>
      <point x="81" y="468" type="line"/>
      <point x="53" y="406"/>
      <point x="40" y="345"/>
      <point x="40" y="282" type="curve" smooth="yes"/>
      <point x="40" y="96"/>
      <point x="145" y="-10"/>
    </contour>
    <contour>
      <point x="288" y="164" type="curve" smooth="yes"/>
      <point x="358" y="164"/>
      <point x="403" y="208"/>
      <point x="403" y="269" type="curve" smooth="yes"/>
      <point x="403" y="329"/>
      <point x="367" y="364"/>
      <point x="303" y="409" type="curve" smooth="yes"/>
      <point x="244" y="450"/>
      <point x="225" y="472"/>
      <point x="225" y="510" type="curve" smooth="yes"/>
      <point x="225" y="556"/>
      <point x="260" y="576"/>
      <point x="305" y="576" type="curve" smooth="yes"/>
      <point x="321" y="576"/>
      <point x="339" y="574"/>
      <point x="355" y="571" type="curve"/>
      <point x="360" y="596" type="line"/>
      <point x="341" y="600"/>
      <point x="323" y="602"/>
      <point x="305" y="602" type="curve" smooth="yes"/>
      <point x="246" y="602"/>
      <point x="199" y="570"/>
      <point x="199" y="510" type="curve" smooth="yes"/>
      <point x="199" y="466"/>
      <point x="219" y="436"/>
      <point x="285" y="390" type="curve" smooth="yes"/>
      <point x="342" y="351"/>
      <point x="377" y="323"/>
      <point x="377" y="269" type="curve" smooth="yes"/>
      <point x="377" y="222"/>
      <point x="344" y="190"/>
      <point x="288" y="190" type="curve" smooth="yes"/>
      <point x="244" y="190"/>
      <point x="200" y="212"/>
      <point x="167" y="262" type="curve"/>
      <point x="144" y="248" type="line"/>
      <point x="177" y="197"/>
      <point x="231" y="164"/>
    </contour>
  </outline>
</glyph>
<glyph name="nuktagujr" format="2">
  <unicode hex="0ABC"/>
  <outline>
    <contour>
      <point x="-201" y="-171" type="curve" smooth="yes"/>
      <point x="-184" y="-171"/>
      <point x="-172" y="-161"/>
      <point x="-172" y="-134" type="curve" smooth="yes"/>
      <point x="-172" y="-110"/>
      <point x="-183" y="-97"/>
      <point x="-200" y="-97" type="curve" smooth="yes"/>
      <point x="-216" y="-97"/>
      <point x="-229" y="-109"/>
      <point x="-229" y="-134" type="curve" smooth="yes"/>
      <point x="-229" y="-160"/>
      <point x="-215" y="-171"/>
    </contour>
  </outline>
</glyph>
<glyph name="avagrahagujr" format="2">
  <advance width="334"/>
  <unicode hex="0ABD"/>
  <outline>
    <contour>
      <point x="184" y="38" type="curve" smooth="yes"/>
      <point x="254" y="38"/>
      <point x="300" y="89"/>
      <point x="300" y="157" type="curve" smooth="yes"/>
      <point x="300" y="218"/>
      <point x="282" y="258"/>
      <point x="205" y="357" type="curve" smooth="yes"/>
      <point x="150" y="427"/>
      <point x="124" y="461"/>
      <point x="124" y="508" type="curve" smooth="yes"/>
      <point x="124" y="527"/>
      <point x="131" y="544"/>
      <point x="143" y="553" type="curve" smooth="yes"/>
      <point x="154" y="562"/>
      <point x="169" y="566"/>
      <point x="192" y="566" type="curve" smooth="yes"/>
      <point x="287" y="566" type="line"/>
      <point x="287" y="592" type="line"/>
      <point x="192" y="592" type="line" smooth="yes"/>
      <point x="162" y="592"/>
      <point x="143" y="586"/>
      <point x="126" y="573" type="curve" smooth="yes"/>
      <point x="107" y="559"/>
      <point x="97" y="535"/>
      <point x="97" y="508" type="curve" smooth="yes"/>
      <point x="97" y="462"/>
      <point x="122" y="422"/>
      <point x="184" y="343" type="curve" smooth="yes"/>
      <point x="256" y="252"/>
      <point x="273" y="214"/>
      <point x="273" y="157" type="curve" smooth="yes"/>
      <point x="273" y="102"/>
      <point x="242" y="64"/>
      <point x="183" y="64" type="curve" smooth="yes"/>
      <point x="113" y="64"/>
      <point x="76" y="106"/>
      <point x="34" y="217" type="curve"/>
      <point x="10" y="206" type="line"/>
      <point x="56" y="90"/>
      <point x="101" y="38"/>
    </contour>
  </outline>
</glyph>
<glyph name="aavowelsigngujr" format="2">
  <advance width="177"/>
  <unicode hex="0ABE"/>
  <outline>
    <contour>
      <point x="163" y="0" type="curve" smooth="yes"/>
      <point x="171" y="0" type="line"/>
      <point x="174" y="26" type="line"/>
      <point x="149" y="26"/>
      <point x="131" y="30"/>
      <point x="119" y="39" type="curve" smooth="yes"/>
      <point x="105" y="50"/>
      <point x="99" y="69"/>
      <point x="99" y="98" type="curve" smooth="yes"/>
      <point x="99" y="599" type="line"/>
      <point x="73" y="603" type="line"/>
      <point x="73" y="98" type="line" smooth="yes"/>
      <point x="73" y="61"/>
      <point x="82" y="35"/>
      <point x="101" y="19" type="curve" smooth="yes"/>
      <point x="116" y="6"/>
      <point x="136" y="0"/>
    </contour>
  </outline>
</glyph>
<glyph name="iivowelsigngujr" format="2">
  <advance width="177"/>
  <unicode hex="0AC0"/>
  <outline>
    <contour>
      <point x="163" y="0" type="curve" smooth="yes"/>
      <point x="171" y="0" type="line"/>
      <point x="174" y="26" type="line"/>
      <point x="149" y="26"/>
      <point x="131" y="30"/>
      <point x="119" y="39" type="curve" smooth="yes"/>
      <point x="105" y="50"/>
      <point x="99" y="69"/>
      <point x="99" y="98" type="curve" smooth="yes"/>
      <point x="99" y="599" type="line"/>
      <point x="88" y="735"/>
      <point x="60" y="883"/>
      <point x="-34" y="883" type="curve" smooth="yes"/>
      <point x="-90" y="883"/>
      <point x="-119" y="836"/>
      <point x="-119" y="759" type="curve" smooth="yes"/>
      <point x="-119" y="722"/>
      <point x="-116" y="694"/>
      <point x="-111" y="666" type="curve"/>
      <point x="-85" y="666" type="line"/>
      <point x="-90" y="697"/>
      <point x="-93" y="722"/>
      <point x="-93" y="757" type="curve" smooth="yes"/>
      <point x="-93" y="821"/>
      <point x="-75" y="857"/>
      <point x="-34" y="857" type="curve" smooth="yes"/>
      <point x="39" y="857"/>
      <point x="64" y="725"/>
      <point x="73" y="598" type="curve"/>
      <point x="73" y="98" type="line" smooth="yes"/>
      <point x="73" y="61"/>
      <point x="82" y="35"/>
      <point x="101" y="19" type="curve" smooth="yes"/>
      <point x="116" y="6"/>
      <point x="136" y="0"/>
    </contour>
  </outline>
</glyph>
<glyph name="uvowelsigngujr" format="2">
  <unicode hex="0AC1"/>
  <outline>
    <contour>
      <point x="-108" y="-257" type="curve" smooth="yes"/>
      <point x="-33" y="-257"/>
      <point x="17" y="-216"/>
      <point x="17" y="-133" type="curve" smooth="yes"/>
      <point x="17" y="-57"/>
      <point x="-33" y="-10"/>
      <point x="-104" y="-10" type="curve" smooth="yes"/>
      <point x="-131" y="-10"/>
      <point x="-157" y="-16"/>
      <point x="-184" y="-26" type="curve"/>
      <point x="-175" y="-51" type="line"/>
      <point x="-151" y="-41"/>
      <point x="-127" y="-36"/>
      <point x="-103" y="-36" type="curve" smooth="yes"/>
      <point x="-48" y="-36"/>
      <point x="-10" y="-75"/>
      <point x="-10" y="-133" type="curve" smooth="yes"/>
      <point x="-10" y="-196"/>
      <point x="-49" y="-231"/>
      <point x="-108" y="-231" type="curve" smooth="yes"/>
      <point x="-197" y="-231"/>
      <point x="-252" y="-158"/>
      <point x="-291" y="-76" type="curve"/>
      <point x="-316" y="-86" type="line"/>
      <point x="-265" y="-189"/>
      <point x="-206" y="-257"/>
    </contour>
  </outline>
</glyph>
<glyph name="uuvowelsigngujr" format="2">
  <unicode hex="0AC2"/>
  <outline>
    <contour>
      <point x="-114" y="-257" type="curve" smooth="yes"/>
      <point x="-86" y="-257"/>
      <point x="-59" y="-252"/>
      <point x="-35" y="-243" type="curve"/>
      <point x="-42" y="-217" type="line"/>
      <point x="-66" y="-226"/>
      <point x="-86" y="-231"/>
      <point x="-114" y="-231" type="curve" smooth="yes"/>
      <point x="-172" y="-231"/>
      <point x="-208" y="-196"/>
      <point x="-208" y="-134" type="curve" smooth="yes"/>
      <point x="-208" y="-73"/>
      <point x="-163" y="-36"/>
      <point x="-104" y="-36" type="curve" smooth="yes"/>
      <point x="-11" y="-36"/>
      <point x="30" y="-108"/>
      <point x="73" y="-214" type="curve"/>
      <point x="98" y="-205" type="line"/>
      <point x="53" y="-88"/>
      <point x="2" y="-10"/>
      <point x="-105" y="-10" type="curve" smooth="yes"/>
      <point x="-176" y="-10"/>
      <point x="-235" y="-57"/>
      <point x="-235" y="-134" type="curve" smooth="yes"/>
      <point x="-235" y="-212"/>
      <point x="-186" y="-257"/>
    </contour>
  </outline>
</glyph>
<glyph name="rvocalicvowelsigngujr" format="2">
  <unicode hex="0AC3"/>
  <outline>
    <contour>
      <point x="4" y="-235" type="curve"/>
      <point x="-6" y="-210" type="line"/>
      <point x="-32" y="-224"/>
      <point x="-57" y="-231"/>
      <point x="-86" y="-231" type="curve" smooth="yes"/>
      <point x="-145" y="-231"/>
      <point x="-185" y="-196"/>
      <point x="-185" y="-135" type="curve" smooth="yes"/>
      <point x="-185" y="-76"/>
      <point x="-144" y="-38"/>
      <point x="-78" y="-27" type="curve"/>
      <point x="-78" y="1" type="line"/>
      <point x="-161" y="-12"/>
      <point x="-212" y="-63"/>
      <point x="-212" y="-135" type="curve" smooth="yes"/>
      <point x="-212" y="-210"/>
      <point x="-160" y="-257"/>
      <point x="-86" y="-257" type="curve" smooth="yes"/>
      <point x="-53" y="-257"/>
      <point x="-24" y="-249"/>
    </contour>
  </outline>
</glyph>
<glyph name="rrvocalicvowelsigngujr" format="2">
  <unicode hex="0AC4"/>
  <outline>
    <contour>
      <point x="-42" y="-381" type="curve" smooth="yes"/>
      <point x="-9" y="-381"/>
      <point x="20" y="-373"/>
      <point x="48" y="-359" type="curve"/>
      <point x="38" y="-334" type="line"/>
      <point x="12" y="-348"/>
      <point x="-13" y="-355"/>
      <point x="-42" y="-355" type="curve" smooth="yes"/>
      <point x="-101" y="-355"/>
      <point x="-141" y="-321"/>
      <point x="-141" y="-269" type="curve" smooth="yes"/>
      <point x="-141" y="-247"/>
      <point x="-134" y="-228"/>
      <point x="-121" y="-213" type="curve"/>
      <point x="-133" y="-218" type="line"/>
      <point x="-119" y="-222"/>
      <point x="-103" y="-225"/>
      <point x="-86" y="-225" type="curve" smooth="yes"/>
      <point x="-53" y="-225"/>
      <point x="-24" y="-217"/>
      <point x="4" y="-203" type="curve"/>
      <point x="-6" y="-178" type="line"/>
      <point x="-32" y="-192"/>
      <point x="-57" y="-199"/>
      <point x="-86" y="-199" type="curve" smooth="yes"/>
      <point x="-145" y="-199"/>
      <point x="-185" y="-165"/>
      <point x="-185" y="-113" type="curve" smooth="yes"/>
      <point x="-185" y="-59"/>
      <point x="-144" y="-27"/>
      <point x="-78" y="-17" type="curve"/>
      <point x="-78" y="11" type="line"/>
      <point x="-161" y="-1"/>
      <point x="-212" y="-46"/>
      <point x="-212" y="-113" type="curve" smooth="yes"/>
      <point x="-212" y="-160"/>
      <point x="-186" y="-197"/>
      <point x="-144" y="-214" type="curve"/>
      <point x="-148" y="-204" type="line"/>
      <point x="-161" y="-222"/>
      <point x="-168" y="-244"/>
      <point x="-168" y="-269" type="curve" smooth="yes"/>
      <point x="-168" y="-335"/>
      <point x="-116" y="-381"/>
    </contour>
  </outline>
</glyph>
<glyph name="ecandravowelsigngujr" format="2">
  <unicode hex="0AC5"/>
  <outline>
    <contour>
      <point x="-86" y="664" type="curve" smooth="yes"/>
      <point x="-65" y="664"/>
      <point x="-48" y="667"/>
      <point x="-30" y="674" type="curve"/>
      <point x="-38" y="700" type="line"/>
      <point x="-52" y="694"/>
      <point x="-69" y="690"/>
      <point x="-86" y="690" type="curve" smooth="yes"/>
      <point x="-156" y="690"/>
      <point x="-198" y="741"/>
      <point x="-271" y="872" type="curve"/>
      <point x="-294" y="860" type="line"/>
      <point x="-216" y="724"/>
      <point x="-166" y="664"/>
    </contour>
  </outline>
</glyph>
<glyph name="evowelsigngujr" format="2">
  <unicode hex="0AC7"/>
  <outline>
    <contour>
      <point x="-106" y="641" type="curve"/>
      <point x="-80" y="641" type="line"/>
      <point x="-120" y="837"/>
      <point x="-153" y="896"/>
      <point x="-230" y="896" type="curve" smooth="yes"/>
      <point x="-244" y="896"/>
      <point x="-259" y="894"/>
      <point x="-276" y="889" type="curve"/>
      <point x="-269" y="864" type="line"/>
      <point x="-255" y="868"/>
      <point x="-241" y="870"/>
      <point x="-230" y="870" type="curve" smooth="yes"/>
      <point x="-165" y="870"/>
      <point x="-142" y="811"/>
    </contour>
  </outline>
</glyph>
<glyph name="aivowelsigngujr" format="2">
  <unicode hex="0AC8"/>
  <outline>
    <contour>
      <point x="-103" y="641" type="curve"/>
      <point x="-80" y="641" type="line"/>
      <point x="-117" y="853"/>
      <point x="-157" y="896"/>
      <point x="-222" y="896" type="curve" smooth="yes"/>
      <point x="-237" y="896"/>
      <point x="-254" y="894"/>
      <point x="-266" y="891" type="curve"/>
      <point x="-259" y="866" type="line"/>
      <point x="-249" y="869"/>
      <point x="-236" y="870"/>
      <point x="-222" y="870" type="curve" smooth="yes"/>
      <point x="-163" y="870"/>
      <point x="-139" y="815"/>
    </contour>
    <contour>
      <point x="-128" y="636" type="curve"/>
      <point x="-110" y="647" type="line"/>
      <point x="-171" y="741"/>
      <point x="-210" y="777"/>
      <point x="-268" y="777" type="curve" smooth="yes"/>
      <point x="-288" y="777"/>
      <point x="-307" y="774"/>
      <point x="-329" y="766" type="curve"/>
      <point x="-321" y="741" type="line"/>
      <point x="-300" y="749"/>
      <point x="-288" y="751"/>
      <point x="-269" y="751" type="curve" smooth="yes"/>
      <point x="-219" y="751"/>
      <point x="-189" y="721"/>
    </contour>
  </outline>
</glyph>
<glyph name="viramagujr" format="2">
  <unicode hex="0ACD"/>
  <outline>
    <contour>
      <point x="79" y="-247" type="curve"/>
      <point x="103" y="-237" type="line"/>
      <point x="49" y="-123"/>
      <point x="5" y="-59"/>
      <point x="-82" y="-59" type="curve" smooth="yes"/>
      <point x="-100" y="-59"/>
      <point x="-120" y="-62"/>
      <point x="-136" y="-67" type="curve"/>
      <point x="-128" y="-92" type="line"/>
      <point x="-114" y="-88"/>
      <point x="-97" y="-85"/>
      <point x="-82" y="-85" type="curve" smooth="yes"/>
      <point x="-7" y="-85"/>
      <point x="31" y="-143"/>
    </contour>
  </outline>
</glyph>
<glyph name="omgujr" format="2">
  <advance width="681"/>
  <unicode hex="0AD0"/>
  <outline>
    <contour>
      <point x="189" y="-10" type="curve" smooth="yes"/>
      <point x="279" y="-10"/>
      <point x="334" y="58"/>
      <point x="334" y="151" type="curve" smooth="yes"/>
      <point x="334" y="190"/>
      <point x="326" y="225"/>
      <point x="309" y="258" type="curve"/>
      <point x="308" y="254" type="line"/>
      <point x="319" y="248"/>
      <point x="331" y="245"/>
      <point x="344" y="245" type="curve" smooth="yes"/>
      <point x="397" y="245"/>
      <point x="419" y="282"/>
      <point x="440" y="327" type="curve" smooth="yes"/>
      <point x="473" y="397" type="line" smooth="yes"/>
      <point x="493" y="439"/>
      <point x="516" y="459"/>
      <point x="547" y="459" type="curve" smooth="yes"/>
      <point x="598" y="459"/>
      <point x="622" y="395"/>
      <point x="622" y="314" type="curve" smooth="yes"/>
      <point x="622" y="232"/>
      <point x="589" y="169"/>
      <point x="524" y="169" type="curve" smooth="yes"/>
      <point x="491" y="169"/>
      <point x="465" y="182"/>
      <point x="441" y="205" type="curve"/>
      <point x="423" y="184" type="line"/>
      <point x="450" y="158"/>
      <point x="484" y="143"/>
      <point x="524" y="143" type="curve" smooth="yes"/>
      <point x="603" y="143"/>
      <point x="649" y="215"/>
      <point x="649" y="314" type="curve" smooth="yes"/>
      <point x="649" y="418"/>
      <point x="610" y="485"/>
      <point x="548" y="485" type="curve" smooth="yes"/>
      <point x="502" y="485"/>
      <point x="475" y="461"/>
      <point x="450" y="409" type="curve" smooth="yes"/>
      <point x="416" y="339" type="line" smooth="yes"/>
      <point x="394" y="293"/>
      <point x="377" y="271"/>
      <point x="341" y="271" type="curve" smooth="yes"/>
      <point x="325" y="271"/>
      <point x="314" y="274"/>
      <point x="302" y="281" type="curve"/>
      <point x="288" y="302"/>
      <point x="278" y="314"/>
      <point x="261" y="331" type="curve"/>
      <point x="303" y="362"/>
      <point x="324" y="404"/>
      <point x="324" y="462" type="curve" smooth="yes"/>
      <point x="324" y="546"/>
      <point x="269" y="602"/>
      <point x="183" y="602" type="curve" smooth="yes"/>
      <point x="145" y="602"/>
      <point x="107" y="595"/>
      <point x="68" y="578" type="curve"/>
      <point x="79" y="553" type="line"/>
      <point x="117" y="569"/>
      <point x="150" y="576"/>
      <point x="183" y="576" type="curve" smooth="yes"/>
      <point x="253" y="576"/>
      <point x="297" y="532"/>
      <point x="297" y="462" type="curve" smooth="yes"/>
      <point x="297" y="370"/>
      <point x="242" y="333"/>
      <point x="135" y="318" type="curve"/>
      <point x="141" y="292" type="line"/>
      <point x="182" y="297"/>
      <point x="212" y="305"/>
      <point x="237" y="318" type="curve"/>
      <point x="287" y="272"/>
      <point x="307" y="218"/>
      <point x="307" y="151" type="curve" smooth="yes"/>
      <point x="307" y="69"/>
      <point x="264" y="16"/>
      <point x="189" y="16" type="curve" smooth="yes"/>
      <point x="107" y="16"/>
      <point x="68" y="69"/>
      <point x="35" y="167" type="curve"/>
      <point x="10" y="158" type="line"/>
      <point x="47" y="52"/>
      <point x="97" y="-10"/>
    </contour>
    <contour>
      <point x="352" y="645" type="curve" smooth="yes"/>
      <point x="428" y="645"/>
      <point x="475" y="699"/>
      <point x="488" y="780" type="curve"/>
      <point x="462" y="786" type="line"/>
      <point x="450" y="713"/>
      <point x="416" y="671"/>
      <point x="352" y="671" type="curve" smooth="yes"/>
      <point x="288" y="671"/>
      <point x="254" y="713"/>
      <point x="242" y="786" type="curve"/>
      <point x="216" y="780" type="line"/>
      <point x="229" y="699"/>
      <point x="277" y="645"/>
    </contour>
    <contour>
      <point x="352" y="769" type="curve" smooth="yes"/>
      <point x="369" y="769"/>
      <point x="380" y="783"/>
      <point x="380" y="806" type="curve" smooth="yes"/>
      <point x="380" y="829"/>
      <point x="369" y="843"/>
      <point x="352" y="843" type="curve" smooth="yes"/>
      <point x="335" y="843"/>
      <point x="324" y="829"/>
      <point x="324" y="806" type="curve" smooth="yes"/>
      <point x="324" y="783"/>
      <point x="335" y="769"/>
    </contour>
  </outline>
</glyph>
<glyph name="rrvocalicgujr" format="2">
  <advance width="643"/>
  <unicode hex="0AE0"/>
  <outline>
    <contour>
      <point x="398" y="0" type="curve" smooth="yes"/>
      <point x="406" y="0" type="line"/>
      <point x="409" y="26" type="line"/>
      <point x="384" y="26"/>
      <point x="366" y="30"/>
      <point x="354" y="39" type="curve" smooth="yes"/>
      <point x="340" y="50"/>
      <point x="334" y="69"/>
      <point x="334" y="98" type="curve" smooth="yes"/>
      <point x="334" y="598" type="line"/>
      <point x="308" y="602" type="line"/>
      <point x="308" y="98" type="line" smooth="yes"/>
      <point x="308" y="61"/>
      <point x="317" y="35"/>
      <point x="336" y="19" type="curve" smooth="yes"/>
      <point x="351" y="6"/>
      <point x="371" y="0"/>
    </contour>
    <contour>
      <point x="93" y="165" type="line"/>
      <point x="323" y="351" type="line"/>
      <point x="313" y="375" type="line"/>
      <point x="75" y="186" type="line"/>
    </contour>
    <contour>
      <point x="284" y="343" type="curve"/>
      <point x="303" y="358" type="line"/>
      <point x="222" y="470"/>
      <point x="174" y="510"/>
      <point x="101" y="510" type="curve" smooth="yes"/>
      <point x="67" y="510"/>
      <point x="35" y="501"/>
      <point x="7" y="489" type="curve"/>
      <point x="17" y="464" type="line"/>
      <point x="48" y="477"/>
      <point x="68" y="484"/>
      <point x="101" y="484" type="curve" smooth="yes"/>
      <point x="163" y="484"/>
      <point x="201" y="455"/>
    </contour>
    <contour>
      <point x="571" y="0" type="curve" smooth="yes"/>
      <point x="606" y="0"/>
      <point x="633" y="8"/>
      <point x="661" y="22" type="curve"/>
      <point x="651" y="47" type="line"/>
      <point x="626" y="34"/>
      <point x="600" y="26"/>
      <point x="571" y="26" type="curve" smooth="yes"/>
      <point x="512" y="26"/>
      <point x="472" y="61"/>
      <point x="472" y="122" type="curve" smooth="yes"/>
      <point x="472" y="177"/>
      <point x="506" y="214"/>
      <point x="572" y="229" type="curve"/>
      <point x="554" y="252" type="line"/>
      <point x="495" y="237"/>
      <point x="445" y="193"/>
      <point x="445" y="122" type="curve" smooth="yes"/>
      <point x="445" y="47"/>
      <point x="497" y="0"/>
    </contour>
    <contour>
      <point x="572" y="229" type="line"/>
      <point x="563" y="272"/>
      <point x="544" y="327"/>
      <point x="528" y="365" type="curve"/>
      <point x="546" y="379"/>
      <point x="557" y="398"/>
      <point x="557" y="419" type="curve" smooth="yes"/>
      <point x="557" y="444"/>
      <point x="544" y="462"/>
      <point x="520" y="462" type="curve" smooth="yes"/>
      <point x="497" y="462"/>
      <point x="483" y="445"/>
      <point x="483" y="422" type="curve" smooth="yes"/>
      <point x="483" y="404"/>
      <point x="489" y="388"/>
      <point x="500" y="367" type="curve"/>
      <point x="510" y="383" type="line"/>
      <point x="491" y="370"/>
      <point x="469" y="363"/>
      <point x="444" y="363" type="curve" smooth="yes"/>
      <point x="398" y="363"/>
      <point x="363" y="381"/>
      <point x="328" y="410" type="curve"/>
      <point x="324" y="381" type="line"/>
      <point x="361" y="352"/>
      <point x="403" y="337"/>
      <point x="445" y="337" type="curve" smooth="yes"/>
      <point x="471" y="337"/>
      <point x="497" y="344"/>
      <point x="517" y="357" type="curve"/>
      <point x="504" y="357" type="line"/>
      <point x="519" y="327"/>
      <point x="532" y="288"/>
      <point x="544" y="239" type="curve"/>
    </contour>
  </outline>
</glyph>
<glyph name="llvocalicgujr" format="2">
  <advance width="510"/>
  <unicode hex="0AE1"/>
  <outline>
    <contour>
      <point x="463" y="-13" type="curve" smooth="yes"/>
      <point x="496" y="-13"/>
      <point x="521" y="-7"/>
      <point x="548" y="5" type="curve"/>
      <point x="538" y="30" type="line"/>
      <point x="512" y="18"/>
      <point x="490" y="13"/>
      <point x="463" y="13" type="curve" smooth="yes"/>
      <point x="407" y="13"/>
      <point x="367" y="47"/>
      <point x="367" y="97" type="curve" smooth="yes"/>
      <point x="367" y="146"/>
      <point x="401" y="182"/>
      <point x="456" y="200" type="curve"/>
      <point x="466" y="233"/>
      <point x="473" y="272"/>
      <point x="473" y="304" type="curve" smooth="yes"/>
      <point x="473" y="399"/>
      <point x="431" y="450"/>
      <point x="368" y="450" type="curve" smooth="yes"/>
      <point x="296" y="450"/>
      <point x="243" y="388"/>
      <point x="219" y="253" type="curve"/>
      <point x="246" y="245" type="line"/>
      <point x="267" y="367"/>
      <point x="309" y="424"/>
      <point x="369" y="424" type="curve" smooth="yes"/>
      <point x="416" y="424"/>
      <point x="446" y="388"/>
      <point x="446" y="305" type="curve" smooth="yes"/>
      <point x="446" y="276"/>
      <point x="442" y="247"/>
      <point x="434" y="218" type="curve"/>
      <point x="372" y="194"/>
      <point x="340" y="151"/>
      <point x="340" y="97" type="curve" smooth="yes"/>
      <point x="340" y="36"/>
      <point x="395" y="-13"/>
    </contour>
    <contour>
      <point x="150" y="48" type="curve"/>
      <point x="171" y="64" type="line"/>
      <point x="105" y="146"/>
      <point x="65" y="224"/>
      <point x="65" y="303" type="curve" smooth="yes"/>
      <point x="65" y="379"/>
      <point x="105" y="424"/>
      <point x="168" y="424" type="curve" smooth="yes"/>
      <point x="211" y="424"/>
      <point x="241" y="406"/>
      <point x="269" y="380" type="curve"/>
      <point x="283" y="398" type="line"/>
      <point x="251" y="428"/>
      <point x="215" y="450"/>
      <point x="167" y="450" type="curve" smooth="yes"/>
      <point x="90" y="450"/>
      <point x="38" y="392"/>
      <point x="38" y="303" type="curve" smooth="yes"/>
      <point x="38" y="214"/>
      <point x="82" y="136"/>
    </contour>
    <contour>
      <point x="503" y="-168" type="curve" smooth="yes"/>
      <point x="536" y="-168"/>
      <point x="561" y="-162"/>
      <point x="588" y="-150" type="curve"/>
      <point x="578" y="-125" type="line"/>
      <point x="552" y="-137"/>
      <point x="530" y="-142"/>
      <point x="503" y="-142" type="curve" smooth="yes"/>
      <point x="447" y="-142"/>
      <point x="407" y="-109"/>
      <point x="407" y="-57" type="curve" smooth="yes"/>
      <point x="407" y="-34"/>
      <point x="414" y="-14"/>
      <point x="426" y="3" type="curve"/>
      <point x="401" y="14" type="line"/>
      <point x="387" y="-7"/>
      <point x="380" y="-30"/>
      <point x="380" y="-57" type="curve" smooth="yes"/>
      <point x="380" y="-121"/>
      <point x="434" y="-168"/>
    </contour>
    <contour>
      <point x="360" y="437" type="line"/>
      <point x="386" y="437" type="line"/>
      <point x="386" y="598" type="line"/>
      <point x="360" y="602" type="line"/>
    </contour>
  </outline>
</glyph>
<glyph name="lvocalicvowelsigngujr" format="2">
  <unicode hex="0AE2"/>
  <outline>
    <contour>
      <point x="-42" y="-381" type="curve" smooth="yes"/>
      <point x="-14" y="-381"/>
      <point x="8" y="-375"/>
      <point x="30" y="-365" type="curve"/>
      <point x="22" y="-340" type="line"/>
      <point x="0" y="-350"/>
      <point x="-17" y="-355"/>
      <point x="-42" y="-355" type="curve" smooth="yes"/>
      <point x="-86" y="-355"/>
      <point x="-113" y="-332"/>
      <point x="-113" y="-291" type="curve" smooth="yes"/>
      <point x="-113" y="-242"/>
      <point x="-77" y="-217"/>
      <point x="-27" y="-203" type="curve"/>
      <point x="-14" y="-171"/>
      <point x="-5" y="-137"/>
      <point x="-5" y="-107" type="curve" smooth="yes"/>
      <point x="-5" y="-41"/>
      <point x="-41" y="0"/>
      <point x="-93" y="0" type="curve" smooth="yes"/>
      <point x="-166" y="0"/>
      <point x="-201" y="-70"/>
      <point x="-212" y="-162" type="curve"/>
      <point x="-187" y="-168" type="line"/>
      <point x="-175" y="-72"/>
      <point x="-145" y="-26"/>
      <point x="-93" y="-26" type="curve" smooth="yes"/>
      <point x="-53" y="-26"/>
      <point x="-32" y="-56"/>
      <point x="-32" y="-107" type="curve" smooth="yes"/>
      <point x="-32" y="-133"/>
      <point x="-39" y="-161"/>
      <point x="-51" y="-191" type="curve"/>
      <point x="-32" y="-179" type="line"/>
      <point x="-97" y="-197"/>
      <point x="-140" y="-233"/>
      <point x="-140" y="-291" type="curve" smooth="yes"/>
      <point x="-140" y="-344"/>
      <point x="-99" y="-381"/>
    </contour>
    <contour>
      <point x="-240" y="-332" type="curve"/>
      <point x="-219" y="-316" type="line"/>
      <point x="-284" y="-239"/>
      <point x="-322" y="-183"/>
      <point x="-322" y="-116" type="curve" smooth="yes"/>
      <point x="-322" y="-66"/>
      <point x="-293" y="-26"/>
      <point x="-241" y="-26" type="curve" smooth="yes"/>
      <point x="-213" y="-26"/>
      <point x="-191" y="-37"/>
      <point x="-170" y="-57" type="curve"/>
      <point x="-155" y="-39" type="line"/>
      <point x="-181" y="-14"/>
      <point x="-208" y="0"/>
      <point x="-241" y="0" type="curve" smooth="yes"/>
      <point x="-308" y="0"/>
      <point x="-349" y="-52"/>
      <point x="-349" y="-113" type="curve" smooth="yes"/>
      <point x="-349" y="-193"/>
      <point x="-307" y="-248"/>
    </contour>
  </outline>
</glyph>
<glyph name="llvocalicvowelsigngujr" format="2">
  <unicode hex="0AE3"/>
  <outline>
    <contour>
      <point x="8" y="-265" type="curve" smooth="yes"/>
      <point x="33" y="-265"/>
      <point x="53" y="-261"/>
      <point x="73" y="-252" type="curve"/>
      <point x="65" y="-226" type="line"/>
      <point x="45" y="-236"/>
      <point x="29" y="-239"/>
      <point x="8" y="-239" type="curve" smooth="yes"/>
      <point x="-34" y="-239"/>
      <point x="-63" y="-216"/>
      <point x="-63" y="-178" type="curve" smooth="yes"/>
      <point x="-63" y="-146"/>
      <point x="-43" y="-121"/>
      <point x="-5" y="-106" type="curve"/>
      <point x="-5" y="-41"/>
      <point x="-41" y="0"/>
      <point x="-93" y="0" type="curve" smooth="yes"/>
      <point x="-166" y="0"/>
      <point x="-201" y="-70"/>
      <point x="-212" y="-162" type="curve"/>
      <point x="-187" y="-168" type="line"/>
      <point x="-175" y="-72"/>
      <point x="-145" y="-26"/>
      <point x="-93" y="-26" type="curve" smooth="yes"/>
      <point x="-53" y="-26"/>
      <point x="-32" y="-56"/>
      <point x="-32" y="-106" type="curve"/>
      <point x="-28" y="-88" type="line"/>
      <point x="-67" y="-105"/>
      <point x="-90" y="-138"/>
      <point x="-90" y="-178" type="curve" smooth="yes"/>
      <point x="-90" y="-228"/>
      <point x="-47" y="-265"/>
    </contour>
    <contour>
      <point x="-240" y="-332" type="curve"/>
      <point x="-219" y="-316" type="line"/>
      <point x="-284" y="-239"/>
      <point x="-322" y="-183"/>
      <point x="-322" y="-116" type="curve" smooth="yes"/>
      <point x="-322" y="-66"/>
      <point x="-293" y="-26"/>
      <point x="-241" y="-26" type="curve" smooth="yes"/>
      <point x="-213" y="-26"/>
      <point x="-191" y="-37"/>
      <point x="-170" y="-57" type="curve"/>
      <point x="-155" y="-39" type="line"/>
      <point x="-181" y="-14"/>
      <point x="-208" y="0"/>
      <point x="-241" y="0" type="curve" smooth="yes"/>
      <point x="-308" y="0"/>
      <point x="-349" y="-52"/>
      <point x="-349" y="-113" type="curve" smooth="yes"/>
      <point x="-349" y="-193"/>
      <point x="-307" y="-248"/>
    </contour>
    <contour>
      <point x="38" y="-381" type="curve" smooth="yes"/>
      <point x="63" y="-381"/>
      <point x="82" y="-377"/>
      <point x="102" y="-368" type="curve"/>
      <point x="94" y="-342" type="line"/>
      <point x="74" y="-352"/>
      <point x="59" y="-355"/>
      <point x="38" y="-355" type="curve" smooth="yes"/>
      <point x="-5" y="-355"/>
      <point x="-34" y="-329"/>
      <point x="-34" y="-286" type="curve" smooth="yes"/>
      <point x="-34" y="-274"/>
      <point x="-32" y="-263"/>
      <point x="-29" y="-254" type="curve"/>
      <point x="-53" y="-241" type="line"/>
      <point x="-58" y="-253"/>
      <point x="-61" y="-268"/>
      <point x="-61" y="-285" type="curve" smooth="yes"/>
      <point x="-61" y="-340"/>
      <point x="-25" y="-381"/>
    </contour>
  </outline>
</glyph>
<glyph name="zerogujr" format="2">
  <advance width="411"/>
  <unicode hex="0AE6"/>
  <outline>
    <contour>
      <point x="205" y="98" type="curve" smooth="yes"/>
      <point x="299" y="98"/>
      <point x="357" y="180"/>
      <point x="357" y="306" type="curve" smooth="yes"/>
      <point x="357" y="430"/>
      <point x="299" y="513"/>
      <point x="205" y="513" type="curve" smooth="yes"/>
      <point x="111" y="513"/>
      <point x="53" y="430"/>
      <point x="53" y="306" type="curve" smooth="yes"/>
      <point x="53" y="182"/>
      <point x="111" y="98"/>
    </contour>
    <contour>
      <point x="205" y="124" type="curve" smooth="yes"/>
      <point x="127" y="124"/>
      <point x="80" y="194"/>
      <point x="80" y="306" type="curve" smooth="yes"/>
      <point x="80" y="418"/>
      <point x="127" y="487"/>
      <point x="205" y="487" type="curve" smooth="yes"/>
      <point x="283" y="487"/>
      <point x="330" y="418"/>
      <point x="330" y="306" type="curve" smooth="yes"/>
      <point x="330" y="192"/>
      <point x="283" y="124"/>
    </contour>
  </outline>
</glyph>
<glyph name="onegujr" format="2">
  <advance width="411"/>
  <unicode hex="0AE7"/>
  <outline>
    <contour>
      <point x="357" y="0" type="curve" smooth="yes"/>
      <point x="365" y="0" type="line"/>
      <point x="368" y="26" type="line"/>
      <point x="342" y="26"/>
      <point x="323" y="31"/>
      <point x="312" y="42" type="curve" smooth="yes"/>
      <point x="298" y="56"/>
      <point x="293" y="75"/>
      <point x="293" y="105" type="curve" smooth="yes"/>
      <point x="293" y="444" type="line" smooth="yes"/>
      <point x="293" y="500"/>
      <point x="288" y="533"/>
      <point x="273" y="558" type="curve" smooth="yes"/>
      <point x="255" y="587"/>
      <point x="228" y="602"/>
      <point x="191" y="602" type="curve" smooth="yes"/>
      <point x="120" y="602"/>
      <point x="75" y="543"/>
      <point x="75" y="449" type="curve" smooth="yes"/>
      <point x="75" y="355"/>
      <point x="127" y="289"/>
      <point x="200" y="289" type="curve" smooth="yes"/>
      <point x="229" y="289"/>
      <point x="254" y="297"/>
      <point x="277" y="313" type="curve"/>
      <point x="277" y="346" type="line"/>
      <point x="255" y="325"/>
      <point x="230" y="315"/>
      <point x="200" y="315" type="curve" smooth="yes"/>
      <point x="141" y="315"/>
      <point x="102" y="370"/>
      <point x="102" y="449" type="curve" smooth="yes"/>
      <point x="102" y="529"/>
      <point x="134" y="576"/>
      <point x="191" y="576" type="curve" smooth="yes"/>
      <point x="218" y="576"/>
      <point x="237" y="566"/>
      <point x="250" y="545" type="curve" smooth="yes"/>
      <point x="262" y="525"/>
      <point x="267" y="496"/>
      <point x="267" y="444" type="curve" smooth="yes"/>
      <point x="267" y="104" type="line" smooth="yes"/>
      <point x="267" y="68"/>
      <point x="275" y="42"/>
      <point x="290" y="25" type="curve" smooth="yes"/>
      <point x="305" y="8"/>
      <point x="328" y="0"/>
    </contour>
  </outline>
</glyph>
<glyph name="twogujr" format="2">
  <advance width="411"/>
  <unicode hex="0AE8"/>
  <outline>
    <contour>
      <point x="323" y="0" type="curve" smooth="yes"/>
      <point x="351" y="0"/>
      <point x="372" y="8"/>
      <point x="388" y="18" type="curve"/>
      <point x="376" y="42" type="line"/>
      <point x="361" y="32"/>
      <point x="344" y="26"/>
      <point x="323" y="26" type="curve" smooth="yes"/>
      <point x="253" y="26"/>
      <point x="216" y="90"/>
      <point x="171" y="224" type="curve"/>
      <point x="168" y="232" type="line"/>
      <point x="155" y="259"/>
      <point x="136" y="274"/>
      <point x="112" y="274" type="curve" smooth="yes"/>
      <point x="89" y="274"/>
      <point x="76" y="262"/>
      <point x="76" y="245" type="curve" smooth="yes"/>
      <point x="76" y="221"/>
      <point x="97" y="207"/>
      <point x="135" y="207" type="curve" smooth="yes"/>
      <point x="240" y="207"/>
      <point x="321" y="283"/>
      <point x="321" y="410" type="curve" smooth="yes"/>
      <point x="321" y="528"/>
      <point x="259" y="602"/>
      <point x="157" y="602" type="curve" smooth="yes"/>
      <point x="128" y="602"/>
      <point x="102" y="597"/>
      <point x="76" y="589" type="curve"/>
      <point x="84" y="564" type="line"/>
      <point x="109" y="572"/>
      <point x="134" y="576"/>
      <point x="157" y="576" type="curve" smooth="yes"/>
      <point x="241" y="576"/>
      <point x="294" y="516"/>
      <point x="294" y="410" type="curve" smooth="yes"/>
      <point x="294" y="301"/>
      <point x="230" y="238"/>
      <point x="145" y="233" type="curve"/>
      <point x="146" y="220" type="line"/>
      <point x="196" y="70"/>
      <point x="242" y="0"/>
    </contour>
  </outline>
</glyph>
<glyph name="threegujr" format="2">
  <advance width="411"/>
  <unicode hex="0AE9"/>
  <outline>
    <contour>
      <point x="213" y="-10" type="curve" smooth="yes"/>
      <point x="292" y="-10"/>
      <point x="343" y="46"/>
      <point x="343" y="133" type="curve" smooth="yes"/>
      <point x="343" y="199"/>
      <point x="312" y="267"/>
      <point x="253" y="328" type="curve"/>
      <point x="233" y="320" type="line"/>
      <point x="233" y="312" type="line"/>
      <point x="286" y="261"/>
      <point x="316" y="195"/>
      <point x="316" y="133" type="curve" smooth="yes"/>
      <point x="316" y="60"/>
      <point x="277" y="16"/>
      <point x="213" y="16" type="curve" smooth="yes"/>
      <point x="142" y="16"/>
      <point x="90" y="63"/>
      <point x="59" y="152" type="curve"/>
      <point x="34" y="143" type="line"/>
      <point x="71" y="43"/>
      <point x="132" y="-10"/>
    </contour>
    <contour>
      <point x="145" y="282" type="line"/>
      <point x="267" y="290"/>
      <point x="334" y="351"/>
      <point x="334" y="452" type="curve" smooth="yes"/>
      <point x="334" y="545"/>
      <point x="279" y="602"/>
      <point x="184" y="602" type="curve" smooth="yes"/>
      <point x="152" y="602"/>
      <point x="116" y="595"/>
      <point x="86" y="584" type="curve"/>
      <point x="94" y="559" type="line"/>
      <point x="123" y="570"/>
      <point x="154" y="576"/>
      <point x="184" y="576" type="curve" smooth="yes"/>
      <point x="264" y="576"/>
      <point x="307" y="532"/>
      <point x="307" y="452" type="curve" smooth="yes"/>
      <point x="307" y="365"/>
      <point x="252" y="316"/>
      <point x="140" y="307" type="curve"/>
    </contour>
  </outline>
</glyph>
<glyph name="fourgujr" format="2">
  <advance width="411"/>
  <unicode hex="0AEA"/>
  <outline>
    <contour>
      <point x="204" y="-10" type="curve" smooth="yes"/>
      <point x="276" y="-10"/>
      <point x="311" y="52"/>
      <point x="311" y="120" type="curve" smooth="yes"/>
      <point x="311" y="189"/>
      <point x="288" y="256"/>
      <point x="221" y="352" type="curve"/>
      <point x="265" y="415"/>
      <point x="325" y="492"/>
      <point x="401" y="585" type="curve"/>
      <point x="381" y="602" type="line"/>
      <point x="304" y="506"/>
      <point x="250" y="434"/>
      <point x="205" y="371" type="curve"/>
      <point x="163" y="432"/>
      <point x="100" y="515"/>
      <point x="31" y="602" type="curve"/>
      <point x="10" y="585" type="line"/>
      <point x="90" y="489"/>
      <point x="147" y="412"/>
      <point x="190" y="352" type="curve"/>
      <point x="119" y="258"/>
      <point x="99" y="189"/>
      <point x="99" y="120" type="curve" smooth="yes"/>
      <point x="99" y="52"/>
      <point x="132" y="-10"/>
    </contour>
    <contour>
      <point x="204" y="16" type="curve" smooth="yes"/>
      <point x="151" y="16"/>
      <point x="126" y="59"/>
      <point x="126" y="120" type="curve" smooth="yes"/>
      <point x="126" y="186"/>
      <point x="145" y="248"/>
      <point x="206" y="333" type="curve"/>
      <point x="265" y="245"/>
      <point x="284" y="183"/>
      <point x="284" y="120" type="curve" smooth="yes"/>
      <point x="284" y="59"/>
      <point x="257" y="16"/>
    </contour>
  </outline>
</glyph>
<glyph name="fivegujr" format="2">
  <advance width="411"/>
  <unicode hex="0AEB"/>
  <outline>
    <contour>
      <point x="194" y="171" type="curve" smooth="yes"/>
      <point x="234" y="171"/>
      <point x="272" y="187"/>
      <point x="298" y="211" type="curve"/>
      <point x="298" y="246" type="line"/>
      <point x="266" y="213"/>
      <point x="232" y="197"/>
      <point x="194" y="197" type="curve" smooth="yes"/>
      <point x="170" y="197"/>
      <point x="151" y="203"/>
      <point x="137" y="215" type="curve" smooth="yes"/>
      <point x="116" y="233"/>
      <point x="106" y="262"/>
      <point x="106" y="304" type="curve" smooth="yes"/>
      <point x="106" y="494" type="line" smooth="yes"/>
      <point x="106" y="529"/>
      <point x="98" y="554"/>
      <point x="83" y="570" type="curve" smooth="yes"/>
      <point x="69" y="585"/>
      <point x="48" y="592"/>
      <point x="21" y="592" type="curve" smooth="yes"/>
      <point x="17" y="592" type="line"/>
      <point x="15" y="566" type="line"/>
      <point x="36" y="566"/>
      <point x="51" y="562"/>
      <point x="61" y="554" type="curve" smooth="yes"/>
      <point x="75" y="543"/>
      <point x="80" y="524"/>
      <point x="80" y="494" type="curve" smooth="yes"/>
      <point x="80" y="304" type="line" smooth="yes"/>
      <point x="80" y="254"/>
      <point x="95" y="216"/>
      <point x="122" y="194" type="curve" smooth="yes"/>
      <point x="140" y="179"/>
      <point x="165" y="171"/>
    </contour>
    <contour>
      <point x="374" y="0" type="curve" smooth="yes"/>
      <point x="382" y="0" type="line"/>
      <point x="385" y="26" type="line"/>
      <point x="360" y="26"/>
      <point x="342" y="30"/>
      <point x="330" y="39" type="curve" smooth="yes"/>
      <point x="316" y="50"/>
      <point x="310" y="69"/>
      <point x="310" y="98" type="curve" smooth="yes"/>
      <point x="310" y="598" type="line"/>
      <point x="284" y="602" type="line"/>
      <point x="284" y="98" type="line" smooth="yes"/>
      <point x="284" y="61"/>
      <point x="293" y="35"/>
      <point x="312" y="19" type="curve" smooth="yes"/>
      <point x="327" y="6"/>
      <point x="347" y="0"/>
    </contour>
  </outline>
</glyph>
<glyph name="sixgujr" format="2">
  <advance width="411"/>
  <unicode hex="0AEC"/>
  <outline>
    <contour>
      <point x="330" y="-148" type="line"/>
      <point x="352" y="-114"/>
      <point x="364" y="-83"/>
      <point x="364" y="-49" type="curve" smooth="yes"/>
      <point x="364" y="4"/>
      <point x="338" y="35"/>
      <point x="249" y="97" type="curve" smooth="yes"/>
      <point x="170" y="152"/>
      <point x="131" y="187"/>
      <point x="131" y="248" type="curve" smooth="yes"/>
      <point x="131" y="313"/>
      <point x="179" y="348"/>
      <point x="259" y="348" type="curve" smooth="yes"/>
      <point x="279" y="348"/>
      <point x="295" y="347"/>
      <point x="313" y="342" type="curve"/>
      <point x="318" y="368" type="line"/>
      <point x="299" y="372"/>
      <point x="281" y="374"/>
      <point x="259" y="374" type="curve" smooth="yes"/>
      <point x="164" y="374"/>
      <point x="105" y="327"/>
      <point x="105" y="248" type="curve" smooth="yes"/>
      <point x="105" y="176"/>
      <point x="145" y="138"/>
      <point x="234" y="77" type="curve" smooth="yes"/>
      <point x="316" y="21"/>
      <point x="336" y="-4"/>
      <point x="336" y="-49" type="curve" smooth="yes"/>
      <point x="336" y="-77"/>
      <point x="327" y="-101"/>
      <point x="306" y="-133" type="curve"/>
    </contour>
    <contour>
      <point x="146" y="320" type="curve"/>
      <point x="163" y="339" type="line"/>
      <point x="125" y="375"/>
      <point x="101" y="413"/>
      <point x="101" y="464" type="curve" smooth="yes"/>
      <point x="101" y="534"/>
      <point x="149" y="576"/>
      <point x="231" y="576" type="curve" smooth="yes"/>
      <point x="257" y="576"/>
      <point x="274" y="573"/>
      <point x="294" y="568" type="curve"/>
      <point x="299" y="593" type="line"/>
      <point x="279" y="598"/>
      <point x="257" y="602"/>
      <point x="230" y="602" type="curve" smooth="yes"/>
      <point x="135" y="602"/>
      <point x="74" y="551"/>
      <point x="74" y="464" type="curve" smooth="yes"/>
      <point x="74" y="407"/>
      <point x="106" y="361"/>
    </contour>
  </outline>
</glyph>
<glyph name="sevengujr" format="2">
  <advance width="411"/>
  <unicode hex="0AED"/>
  <outline>
    <contour>
      <point x="212" y="-10" type="curve" smooth="yes"/>
      <point x="328" y="-10"/>
      <point x="370" y="109"/>
      <point x="370" y="297" type="curve" smooth="yes"/>
      <point x="370" y="471"/>
      <point x="323" y="602"/>
      <point x="210" y="602" type="curve" smooth="yes"/>
      <point x="140" y="602"/>
      <point x="95" y="553"/>
      <point x="95" y="483" type="curve" smooth="yes"/>
      <point x="95" y="385"/>
      <point x="177" y="313"/>
      <point x="321" y="285" type="curve"/>
      <point x="325" y="310" type="line"/>
      <point x="193" y="334"/>
      <point x="122" y="397"/>
      <point x="122" y="483" type="curve" smooth="yes"/>
      <point x="122" y="541"/>
      <point x="158" y="576"/>
      <point x="210" y="576" type="curve" smooth="yes"/>
      <point x="308" y="576"/>
      <point x="343" y="443"/>
      <point x="343" y="297" type="curve" smooth="yes"/>
      <point x="343" y="132"/>
      <point x="311" y="16"/>
      <point x="212" y="16" type="curve" smooth="yes"/>
      <point x="111" y="16"/>
      <point x="65" y="106"/>
      <point x="52" y="276" type="curve"/>
      <point x="26" y="273" type="line"/>
      <point x="41" y="88"/>
      <point x="98" y="-10"/>
    </contour>
  </outline>
</glyph>
<glyph name="eightgujr" format="2">
  <advance width="411"/>
  <unicode hex="0AEE"/>
  <outline>
    <contour>
      <point x="225" y="-10" type="curve" smooth="yes"/>
      <point x="279" y="-10"/>
      <point x="323" y="4"/>
      <point x="366" y="29" type="curve"/>
      <point x="354" y="53" type="line"/>
      <point x="311" y="28"/>
      <point x="271" y="16"/>
      <point x="226" y="16" type="curve" smooth="yes"/>
      <point x="142" y="16"/>
      <point x="86" y="65"/>
      <point x="86" y="145" type="curve" smooth="yes"/>
      <point x="86" y="213"/>
      <point x="119" y="264"/>
      <point x="184" y="354" type="curve" smooth="yes"/>
      <point x="351" y="586" type="line"/>
      <point x="330" y="602" type="line"/>
      <point x="161" y="368" type="line" smooth="yes"/>
      <point x="87" y="266"/>
      <point x="59" y="219"/>
      <point x="59" y="145" type="curve" smooth="yes"/>
      <point x="59" y="53"/>
      <point x="128" y="-10"/>
    </contour>
  </outline>
</glyph>
<glyph name="ninegujr" format="2">
  <advance width="411"/>
  <unicode hex="0AEF"/>
  <outline>
    <contour>
      <point x="288" y="-10" type="curve" smooth="yes"/>
      <point x="322" y="-10"/>
      <point x="352" y="-3"/>
      <point x="380" y="10" type="curve"/>
      <point x="369" y="35" type="line"/>
      <point x="343" y="22"/>
      <point x="317" y="16"/>
      <point x="288" y="16" type="curve" smooth="yes"/>
      <point x="171" y="16"/>
      <point x="73" y="104"/>
      <point x="73" y="260" type="curve" smooth="yes"/>
      <point x="73" y="421"/>
      <point x="155" y="509"/>
      <point x="271" y="580" type="curve"/>
      <point x="258" y="602" type="line"/>
      <point x="134" y="527"/>
      <point x="47" y="431"/>
      <point x="47" y="260" type="curve" smooth="yes"/>
      <point x="47" y="90"/>
      <point x="157" y="-10"/>
    </contour>
    <contour>
      <point x="158" y="254" type="line"/>
      <point x="363" y="308" type="line"/>
      <point x="356" y="334" type="line"/>
      <point x="151" y="280" type="line"/>
    </contour>
  </outline>
</glyph>
<glyph name="uni0AF0" format="2">
  <advance width="284"/>
  <unicode hex="0AF0"/>
  <outline>
    <contour>
      <point x="142" y="210" type="curve" smooth="yes"/>
      <point x="204" y="210"/>
      <point x="246" y="260"/>
      <point x="246" y="338" type="curve" smooth="yes"/>
      <point x="246" y="416"/>
      <point x="205" y="466"/>
      <point x="142" y="466" type="curve" smooth="yes"/>
      <point x="79" y="466"/>
      <point x="38" y="415"/>
      <point x="38" y="338" type="curve" smooth="yes"/>
      <point x="38" y="261"/>
      <point x="80" y="210"/>
    </contour>
    <contour>
      <point x="142" y="236" type="curve" smooth="yes"/>
      <point x="96" y="236"/>
      <point x="65" y="273"/>
      <point x="65" y="338" type="curve" smooth="yes"/>
      <point x="65" y="403"/>
      <point x="95" y="440"/>
      <point x="142" y="440" type="curve" smooth="yes"/>
      <point x="189" y="440"/>
      <point x="219" y="402"/>
      <point x="219" y="338" type="curve" smooth="yes"/>
      <point x="219" y="274"/>
      <point x="188" y="236"/>
    </contour>
  </outline>
</glyph>
<glyph name="uni0AFA" format="2">
  <unicode hex="0AFA"/>
  <outline>
    <contour>
      <point x="-116" y="644" type="line"/>
      <point x="-58" y="672"/>
      <point x="-20" y="710"/>
      <point x="-20" y="777" type="curve" smooth="yes"/>
      <point x="-20" y="830"/>
      <point x="-52" y="888"/>
      <point x="-135" y="888" type="curve" smooth="yes"/>
      <point x="-163" y="888"/>
      <point x="-189" y="882"/>
      <point x="-210" y="875" type="curve"/>
      <point x="-204" y="850" type="line"/>
      <point x="-179" y="859"/>
      <point x="-158" y="862"/>
      <point x="-135" y="862" type="curve" smooth="yes"/>
      <point x="-70" y="862"/>
      <point x="-47" y="820"/>
      <point x="-47" y="777" type="curve" smooth="yes"/>
      <point x="-47" y="723"/>
      <point x="-75" y="692"/>
      <point x="-129" y="667" type="curve"/>
    </contour>
  </outline>
</glyph>
<glyph name="uni0AFB" format="2">
  <unicode hex="0AFB"/>
  <outline>
    <contour>
      <point x="-136" y="829" type="curve"/>
      <point x="-159" y="829" type="line"/>
      <point x="-161" y="746"/>
      <point x="-176" y="711"/>
      <point x="-213" y="711" type="curve" smooth="yes"/>
      <point x="-245" y="711"/>
      <point x="-265" y="736"/>
      <point x="-267" y="830" type="curve"/>
      <point x="-293" y="829" type="line"/>
      <point x="-290" y="722"/>
      <point x="-262" y="685"/>
      <point x="-214" y="685" type="curve" smooth="yes"/>
      <point x="-169" y="685"/>
      <point x="-144" y="715"/>
    </contour>
    <contour>
      <point x="-134" y="829" type="curve"/>
      <point x="-158" y="829" type="line"/>
      <point x="-151" y="716"/>
      <point x="-125" y="685"/>
      <point x="-79" y="685" type="curve" smooth="yes"/>
      <point x="-33" y="685"/>
      <point x="-3" y="718"/>
      <point x="-2" y="829" type="curve"/>
      <point x="-28" y="830" type="line"/>
      <point x="-30" y="735"/>
      <point x="-49" y="711"/>
      <point x="-80" y="711" type="curve" smooth="yes"/>
      <point x="-118" y="711"/>
      <point x="-133" y="748"/>
    </contour>
  </outline>
</glyph>
<glyph name="uni0AFC" format="2">
  <unicode hex="0AFC"/>
  <outline>
    <contour>
      <point x="4" y="818" type="line"/>
      <point x="-82" y="756"/>
      <point x="-104" y="744"/>
      <point x="-172" y="744" type="curve" smooth="yes"/>
      <point x="-211" y="744"/>
      <point x="-245" y="757"/>
      <point x="-277" y="780" type="curve"/>
      <point x="-292" y="761" type="line"/>
      <point x="-263" y="740"/>
      <point x="-224" y="722"/>
      <point x="-172" y="722" type="curve" smooth="yes"/>
      <point x="-151" y="722"/>
      <point x="-122" y="727"/>
      <point x="-102" y="738" type="curve"/>
      <point x="-105" y="738" type="line"/>
      <point x="-149" y="714"/>
      <point x="-189" y="699"/>
      <point x="-253" y="699" type="curve" smooth="yes"/>
      <point x="-298" y="699"/>
      <point x="-334" y="710"/>
      <point x="-362" y="726" type="curve"/>
      <point x="-374" y="705" type="line"/>
      <point x="-342" y="687"/>
      <point x="-305" y="675"/>
      <point x="-253" y="675" type="curve" smooth="yes"/>
      <point x="-178" y="675"/>
      <point x="-106" y="708"/>
      <point x="19" y="799" type="curve"/>
    </contour>
  </outline>
</glyph>
<glyph name="uni0AFD" format="2">
  <unicode hex="0AFD"/>
  <outline>
    <contour>
      <point x="-257" y="789" type="curve" smooth="yes"/>
      <point x="-240" y="789"/>
      <point x="-228" y="799"/>
      <point x="-228" y="826" type="curve" smooth="yes"/>
      <point x="-228" y="850"/>
      <point x="-239" y="863"/>
      <point x="-256" y="863" type="curve" smooth="yes"/>
      <point x="-272" y="863"/>
      <point x="-285" y="851"/>
      <point x="-285" y="826" type="curve" smooth="yes"/>
      <point x="-285" y="800"/>
      <point x="-271" y="789"/>
    </contour>
    <contour>
      <point x="-312" y="667" type="curve" smooth="yes"/>
      <point x="-295" y="667"/>
      <point x="-283" y="677"/>
      <point x="-283" y="704" type="curve" smooth="yes"/>
      <point x="-283" y="728"/>
      <point x="-294" y="741"/>
      <point x="-311" y="741" type="curve" smooth="yes"/>
      <point x="-327" y="741"/>
      <point x="-340" y="729"/>
      <point x="-340" y="704" type="curve" smooth="yes"/>
      <point x="-340" y="678"/>
      <point x="-326" y="667"/>
    </contour>
    <contour>
      <point x="-198" y="667" type="curve" smooth="yes"/>
      <point x="-181" y="667"/>
      <point x="-169" y="677"/>
      <point x="-169" y="704" type="curve" smooth="yes"/>
      <point x="-169" y="728"/>
      <point x="-180" y="741"/>
      <point x="-197" y="741" type="curve" smooth="yes"/>
      <point x="-213" y="741"/>
      <point x="-226" y="729"/>
      <point x="-226" y="704" type="curve" smooth="yes"/>
      <point x="-226" y="678"/>
      <point x="-212" y="667"/>
    </contour>
  </outline>
</glyph>
<glyph name="uni0AFE" format="2">
  <unicode hex="0AFE"/>
  <outline>
    <contour>
      <point x="-338" y="761" type="curve" smooth="yes"/>
      <point x="-338" y="703"/>
      <point x="-305" y="666"/>
      <point x="-255" y="666" type="curve" smooth="yes"/>
      <point x="-207" y="666"/>
      <point x="-172" y="702"/>
      <point x="-172" y="761" type="curve" smooth="yes"/>
      <point x="-172" y="822"/>
      <point x="-206" y="857"/>
      <point x="-255" y="857" type="curve" smooth="yes"/>
      <point x="-304" y="857"/>
      <point x="-338" y="819"/>
    </contour>
    <contour>
      <point x="-313" y="761" type="curve" smooth="yes"/>
      <point x="-313" y="805"/>
      <point x="-292" y="833"/>
      <point x="-255" y="833" type="curve" smooth="yes"/>
      <point x="-218" y="833"/>
      <point x="-197" y="808"/>
      <point x="-197" y="761" type="curve" smooth="yes"/>
      <point x="-197" y="716"/>
      <point x="-219" y="690"/>
      <point x="-256" y="690" type="curve" smooth="yes"/>
      <point x="-293" y="690"/>
      <point x="-313" y="717"/>
    </contour>
  </outline>
</glyph>
<glyph name="uni0AFF" format="2">
  <unicode hex="0AFF"/>
  <outline>
    <contour>
      <point x="-420" y="761" type="curve" smooth="yes"/>
      <point x="-420" y="703"/>
      <point x="-389" y="666"/>
      <point x="-342" y="666" type="curve" smooth="yes"/>
      <point x="-297" y="666"/>
      <point x="-264" y="702"/>
      <point x="-264" y="761" type="curve" smooth="yes"/>
      <point x="-264" y="822"/>
      <point x="-296" y="857"/>
      <point x="-342" y="857" type="curve" smooth="yes"/>
      <point x="-388" y="857"/>
      <point x="-420" y="819"/>
    </contour>
    <contour>
      <point x="-395" y="761" type="curve" smooth="yes"/>
      <point x="-395" y="805"/>
      <point x="-376" y="833"/>
      <point x="-342" y="833" type="curve" smooth="yes"/>
      <point x="-308" y="833"/>
      <point x="-289" y="808"/>
      <point x="-289" y="761" type="curve" smooth="yes"/>
      <point x="-289" y="716"/>
      <point x="-309" y="690"/>
      <point x="-343" y="690" type="curve" smooth="yes"/>
      <point x="-377" y="690"/>
      <point x="-395" y="717"/>
    </contour>
    <contour>
      <point x="-246" y="761" type="curve" smooth="yes"/>
      <point x="-246" y="703"/>
      <point x="-215" y="666"/>
      <point x="-168" y="666" type="curve" smooth="yes"/>
      <point x="-123" y="666"/>
      <point x="-90" y="702"/>
      <point x="-90" y="761" type="curve" smooth="yes"/>
      <point x="-90" y="822"/>
      <point x="-122" y="857"/>
      <point x="-168" y="857" type="curve" smooth="yes"/>
      <point x="-214" y="857"/>
      <point x="-246" y="819"/>
    </contour>
    <contour>
      <point x="-221" y="761" type="curve" smooth="yes"/>
      <point x="-221" y="805"/>
      <point x="-202" y="833"/>
      <point x="-168" y="833" type="curve" smooth="yes"/>
      <point x="-134" y="833"/>
      <point x="-115" y="808"/>
      <point x="-115" y="761" type="curve" smooth="yes"/>
      <point x="-115" y="716"/>
      <point x="-135" y="690"/>
      <point x="-169" y="690" type="curve" smooth="yes"/>
      <point x="-203" y="690"/>
      <point x="-221" y="717"/>
    </contour>
  </outline>
</glyph>
<glyph name="emdash.gujr" format="2">
  <advance width="1000"/>
  <unicode hex="2014"/>
  <outline>
    <contour>
      <point x="35" y="310" type="line"/>
      <point x="35" y="284" type="line"/>
      <point x="965" y="284" type="line"/>
      <point x="965" y="310" type="line"/>
    </contour>
  </outline>
</glyph>
<glyph name="uniA831" format="2">
  <advance width="313"/>
  <unicode hex="A831"/>
  <outline>
    <contour>
      <point x="212" y="0" type="line"/>
      <point x="238" y="0" type="line"/>
      <point x="238" y="622" type="line"/>
      <point x="212" y="622" type="line"/>
    </contour>
    <contour>
      <point x="74" y="0" type="line"/>
      <point x="100" y="0" type="line"/>
      <point x="100" y="622" type="line"/>
      <point x="74" y="622" type="line"/>
    </contour>
  </outline>
</glyph>
<glyph name="uniA833" format="2">
  <advance width="470"/>
  <unicode hex="A833"/>
  <outline>
    <contour>
      <point x="49" y="452" type="line"/>
      <point x="427" y="583" type="line"/>
      <point x="419" y="608" type="line"/>
      <point x="42" y="477" type="line"/>
    </contour>
  </outline>
</glyph>
<glyph name="uniA834" format="2">
  <advance width="470"/>
  <unicode hex="A834"/>
  <outline>
    <contour>
      <point x="49" y="452" type="line"/>
      <point x="427" y="583" type="line"/>
      <point x="420" y="608" type="line"/>
      <point x="42" y="477" type="line"/>
    </contour>
    <contour>
      <point x="49" y="246" type="line"/>
      <point x="427" y="377" type="line"/>
      <point x="420" y="402" type="line"/>
      <point x="42" y="271" type="line"/>
    </contour>
  </outline>
</glyph>
<glyph name="uniA835" format="2">
  <advance width="470"/>
  <unicode hex="A835"/>
  <outline>
    <contour>
      <point x="49" y="452" type="line"/>
      <point x="427" y="583" type="line"/>
      <point x="420" y="608" type="line"/>
      <point x="42" y="477" type="line"/>
    </contour>
    <contour>
      <point x="49" y="40" type="line"/>
      <point x="427" y="171" type="line"/>
      <point x="420" y="196" type="line"/>
      <point x="42" y="65" type="line"/>
    </contour>
    <contour>
      <point x="49" y="246" type="line"/>
      <point x="427" y="377" type="line"/>
      <point x="420" y="402" type="line"/>
      <point x="42" y="271" type="line"/>
    </contour>
  </outline>
</glyph>
<glyph name="uniA836" format="2">
  <advance width="340"/>
  <unicode hex="A836"/>
  <outline>
    <contour>
      <point x="170" y="170" type="curve" smooth="yes"/>
      <point x="241" y="170"/>
      <point x="283" y="230"/>
      <point x="283" y="318" type="curve" smooth="yes"/>
      <point x="283" y="411"/>
      <point x="238" y="470"/>
      <point x="170" y="470" type="curve" smooth="yes"/>
      <point x="99" y="470"/>
      <point x="57" y="409"/>
      <point x="57" y="321" type="curve" smooth="yes"/>
      <point x="57" y="229"/>
      <point x="102" y="170"/>
    </contour>
    <contour>
      <point x="170" y="196" type="curve" smooth="yes"/>
      <point x="115" y="196"/>
      <point x="84" y="244"/>
      <point x="84" y="321" type="curve" smooth="yes"/>
      <point x="84" y="396"/>
      <point x="114" y="444"/>
      <point x="170" y="444" type="curve" smooth="yes"/>
      <point x="225" y="444"/>
      <point x="256" y="396"/>
      <point x="256" y="319" type="curve" smooth="yes"/>
      <point x="256" y="244"/>
      <point x="226" y="196"/>
    </contour>
  </outline>
</glyph>
<glyph name="uniA837" format="2">
  <advance width="375"/>
  <unicode hex="A837"/>
  <outline>
    <contour>
      <point x="166" y="92" type="curve" smooth="yes"/>
      <point x="237" y="92"/>
      <point x="279" y="152"/>
      <point x="279" y="240" type="curve" smooth="yes"/>
      <point x="279" y="333"/>
      <point x="233" y="391"/>
      <point x="166" y="391" type="curve" smooth="yes"/>
      <point x="152" y="391"/>
      <point x="137" y="387"/>
      <point x="124" y="381" type="curve"/>
      <point x="106" y="351" type="line"/>
      <point x="153" y="393"/>
      <point x="192" y="428"/>
      <point x="228" y="466" type="curve" smooth="yes"/>
      <point x="358" y="603" type="line"/>
      <point x="340" y="623" type="line"/>
      <point x="124" y="396" type="line" smooth="yes"/>
      <point x="70" y="340"/>
      <point x="53" y="306"/>
      <point x="53" y="243" type="curve" smooth="yes"/>
      <point x="53" y="151"/>
      <point x="98" y="92"/>
    </contour>
    <contour>
      <point x="166" y="118" type="curve" smooth="yes"/>
      <point x="111" y="118"/>
      <point x="80" y="166"/>
      <point x="80" y="243" type="curve" smooth="yes"/>
      <point x="80" y="314"/>
      <point x="110" y="366"/>
      <point x="166" y="366" type="curve" smooth="yes"/>
      <point x="221" y="366"/>
      <point x="252" y="318"/>
      <point x="252" y="241" type="curve" smooth="yes"/>
      <point x="252" y="166"/>
      <point x="222" y="118"/>
    </contour>
  </outline>
</glyph>
<glyph name="uniA838" format="2">
  <advance width="213"/>
  <unicode hex="A838"/>
  <outline>
    <contour>
      <point x="-111" y="-107" type="curve"/>
      <point x="-114" y="-132" type="line"/>
      <point x="-96" y="-137"/>
      <point x="-68" y="-141"/>
      <point x="-46" y="-141" type="curve" smooth="yes"/>
      <point x="123" y="-141"/>
      <point x="158" y="4"/>
      <point x="158" y="180" type="curve" smooth="yes"/>
      <point x="158" y="311"/>
      <point x="135" y="508"/>
      <point x="110" y="632" type="curve"/>
      <point x="84" y="626" type="line"/>
      <point x="106" y="516"/>
      <point x="131" y="335"/>
      <point x="131" y="180" type="curve" smooth="yes"/>
      <point x="131" y="-11"/>
      <point x="92" y="-115"/>
      <point x="-48" y="-115" type="curve" smooth="yes"/>
      <point x="-71" y="-115"/>
      <point x="-90" y="-112"/>
    </contour>
  </outline>
</glyph>
<glyph name="aivowelsignrephgujr" format="2">
  <outline>
    <contour>
      <point x="-107" y="641" type="curve"/>
      <point x="-84" y="641" type="line"/>
      <point x="-96" y="711"/>
      <point x="-109" y="758"/>
      <point x="-123" y="800" type="curve"/>
      <point x="-129" y="806" type="line"/>
      <point x="-149" y="871"/>
      <point x="-181" y="896"/>
      <point x="-226" y="896" type="curve" smooth="yes"/>
      <point x="-241" y="896"/>
      <point x="-258" y="894"/>
      <point x="-270" y="891" type="curve"/>
      <point x="-263" y="866" type="line"/>
      <point x="-253" y="869"/>
      <point x="-240" y="870"/>
      <point x="-226" y="870" type="curve" smooth="yes"/>
      <point x="-167" y="870"/>
      <point x="-143" y="815"/>
    </contour>
    <contour>
      <point x="-132" y="636" type="curve"/>
      <point x="-114" y="647" type="line"/>
      <point x="-175" y="741"/>
      <point x="-214" y="777"/>
      <point x="-272" y="777" type="curve" smooth="yes"/>
      <point x="-292" y="777"/>
      <point x="-311" y="774"/>
      <point x="-333" y="766" type="curve"/>
      <point x="-325" y="741" type="line"/>
      <point x="-304" y="749"/>
      <point x="-292" y="751"/>
      <point x="-273" y="751" type="curve" smooth="yes"/>
      <point x="-223" y="751"/>
      <point x="-193" y="721"/>
    </contour>
    <contour>
      <point x="-114" y="729" type="line"/>
      <point x="-116" y="741"/>
      <point x="-117" y="753"/>
      <point x="-117" y="762" type="curve" smooth="yes"/>
      <point x="-117" y="821"/>
      <point x="-83" y="862"/>
      <point x="-22" y="862" type="curve" smooth="yes"/>
      <point x="-5" y="862"/>
      <point x="8" y="860"/>
      <point x="25" y="855" type="curve"/>
      <point x="31" y="881" type="line"/>
      <point x="14" y="886"/>
      <point x="-2" y="888"/>
      <point x="-20" y="888" type="curve" smooth="yes"/>
      <point x="-85" y="888"/>
      <point x="-127" y="853"/>
      <point x="-135" y="793" type="curve"/>
    </contour>
  </outline>
</glyph>
<glyph name="badagujr" format="2">
  <advance width="674"/>
  <outline>
    <contour>
      <point x="164" y="167" type="curve" smooth="yes"/>
      <point x="241" y="167"/>
      <point x="279" y="228"/>
      <point x="279" y="324" type="curve" smooth="yes"/>
      <point x="279" y="422" type="line"/>
      <point x="253" y="426" type="line"/>
      <point x="253" y="331" type="line" smooth="yes"/>
      <point x="253" y="281"/>
      <point x="247" y="249"/>
      <point x="226" y="221" type="curve" smooth="yes"/>
      <point x="214" y="205"/>
      <point x="194" y="193"/>
      <point x="164" y="193" type="curve" smooth="yes"/>
      <point x="102" y="193"/>
      <point x="64" y="241"/>
      <point x="64" y="338" type="curve" smooth="yes"/>
      <point x="64" y="447"/>
      <point x="122" y="525"/>
      <point x="192" y="582" type="curve"/>
      <point x="176" y="602" type="line"/>
      <point x="99" y="537"/>
      <point x="38" y="455"/>
      <point x="38" y="338" type="curve" smooth="yes"/>
      <point x="38" y="226"/>
      <point x="88" y="167"/>
    </contour>
    <contour>
      <point x="339" y="254" type="curve" smooth="yes"/>
      <point x="374" y="254"/>
      <point x="392" y="261"/>
      <point x="412" y="270" type="curve"/>
      <point x="404" y="295" type="line"/>
      <point x="384" y="285"/>
      <point x="368" y="280"/>
      <point x="339" y="280" type="curve" smooth="yes"/>
      <point x="313" y="280"/>
      <point x="289" y="293"/>
      <point x="274" y="314" type="curve"/>
      <point x="264" y="288" type="line"/>
      <point x="286" y="266"/>
      <point x="311" y="254"/>
    </contour>
    <contour>
      <point x="567" y="-10" type="curve" smooth="yes"/>
      <point x="625" y="-10"/>
      <point x="677" y="21"/>
      <point x="677" y="71" type="curve" smooth="yes"/>
      <point x="677" y="100"/>
      <point x="662" y="118"/>
      <point x="640" y="118" type="curve" smooth="yes"/>
      <point x="619" y="118"/>
      <point x="603" y="102"/>
      <point x="603" y="76" type="curve" smooth="yes"/>
      <point x="603" y="56"/>
      <point x="613" y="37"/>
      <point x="633" y="27" type="curve"/>
      <point x="633" y="40" type="line"/>
      <point x="617" y="24"/>
      <point x="594" y="16"/>
      <point x="567" y="16" type="curve" smooth="yes"/>
      <point x="491" y="16"/>
      <point x="435" y="80"/>
      <point x="435" y="167" type="curve" smooth="yes"/>
      <point x="435" y="259"/>
      <point x="497" y="317"/>
      <point x="570" y="317" type="curve" smooth="yes"/>
      <point x="584" y="317"/>
      <point x="596" y="316"/>
      <point x="606" y="314" type="curve"/>
      <point x="611" y="339" type="line"/>
      <point x="596" y="342"/>
      <point x="585" y="343"/>
      <point x="570" y="343" type="curve" smooth="yes"/>
      <point x="483" y="343"/>
      <point x="408" y="273"/>
      <point x="408" y="167" type="curve" smooth="yes"/>
      <point x="408" y="66"/>
      <point x="478" y="-10"/>
    </contour>
    <contour>
      <point x="465" y="288" type="curve"/>
      <point x="486" y="304" type="line"/>
      <point x="434" y="340"/>
      <point x="404" y="390"/>
      <point x="404" y="456" type="curve" smooth="yes"/>
      <point x="404" y="528"/>
      <point x="451" y="576"/>
      <point x="520" y="576" type="curve" smooth="yes"/>
      <point x="539" y="576"/>
      <point x="562" y="573"/>
      <point x="577" y="569" type="curve"/>
      <point x="583" y="594" type="line"/>
      <point x="563" y="599"/>
      <point x="545" y="602"/>
      <point x="520" y="602" type="curve" smooth="yes"/>
      <point x="437" y="602"/>
      <point x="377" y="542"/>
      <point x="377" y="456" type="curve" smooth="yes"/>
      <point x="377" y="381"/>
      <point x="413" y="325"/>
    </contour>
  </outline>
</glyph>
<glyph name="baraprehalfgujr" format="2">
  <advance width="387"/>
  <outline>
    <contour>
      <point x="164" y="167" type="curve" smooth="yes"/>
      <point x="241" y="167"/>
      <point x="279" y="228"/>
      <point x="279" y="324" type="curve" smooth="yes"/>
      <point x="279" y="422" type="line"/>
      <point x="253" y="426" type="line"/>
      <point x="253" y="331" type="line" smooth="yes"/>
      <point x="253" y="281"/>
      <point x="247" y="249"/>
      <point x="226" y="221" type="curve" smooth="yes"/>
      <point x="214" y="205"/>
      <point x="194" y="193"/>
      <point x="164" y="193" type="curve" smooth="yes"/>
      <point x="102" y="193"/>
      <point x="64" y="241"/>
      <point x="64" y="338" type="curve" smooth="yes"/>
      <point x="64" y="447"/>
      <point x="122" y="525"/>
      <point x="192" y="582" type="curve"/>
      <point x="176" y="602" type="line"/>
      <point x="99" y="537"/>
      <point x="38" y="455"/>
      <point x="38" y="338" type="curve" smooth="yes"/>
      <point x="38" y="226"/>
      <point x="88" y="167"/>
    </contour>
    <contour>
      <point x="219" y="18" type="line"/>
      <point x="402" y="154" type="line"/>
      <point x="402" y="184" type="line"/>
      <point x="202" y="39" type="line"/>
    </contour>
    <contour>
      <point x="339" y="254" type="curve" smooth="yes"/>
      <point x="370" y="254"/>
      <point x="392" y="266"/>
      <point x="408" y="284" type="curve"/>
      <point x="398" y="308" type="line"/>
      <point x="381" y="289"/>
      <point x="361" y="280"/>
      <point x="339" y="280" type="curve" smooth="yes"/>
      <point x="313" y="280"/>
      <point x="289" y="293"/>
      <point x="274" y="314" type="curve"/>
      <point x="264" y="288" type="line"/>
      <point x="286" y="266"/>
      <point x="311" y="254"/>
    </contour>
  </outline>
</glyph>
<glyph name="barastemgujr" format="2">
  <advance width="506"/>
  <outline>
    <contour>
      <point x="164" y="167" type="curve" smooth="yes"/>
      <point x="241" y="167"/>
      <point x="279" y="228"/>
      <point x="279" y="324" type="curve" smooth="yes"/>
      <point x="279" y="422" type="line"/>
      <point x="253" y="426" type="line"/>
      <point x="253" y="331" type="line" smooth="yes"/>
      <point x="253" y="281"/>
      <point x="247" y="249"/>
      <point x="226" y="221" type="curve" smooth="yes"/>
      <point x="214" y="205"/>
      <point x="194" y="193"/>
      <point x="164" y="193" type="curve" smooth="yes"/>
      <point x="102" y="193"/>
      <point x="64" y="241"/>
      <point x="64" y="338" type="curve" smooth="yes"/>
      <point x="64" y="447"/>
      <point x="122" y="525"/>
      <point x="192" y="582" type="curve"/>
      <point x="176" y="602" type="line"/>
      <point x="99" y="537"/>
      <point x="38" y="455"/>
      <point x="38" y="338" type="curve" smooth="yes"/>
      <point x="38" y="226"/>
      <point x="88" y="167"/>
    </contour>
    <contour>
      <point x="219" y="18" type="line"/>
      <point x="420" y="168" type="line"/>
      <point x="409" y="189" type="line"/>
      <point x="402" y="184" type="line"/>
      <point x="202" y="39" type="line"/>
    </contour>
    <contour>
      <point x="339" y="254" type="curve" smooth="yes"/>
      <point x="373" y="254"/>
      <point x="396" y="269"/>
      <point x="413" y="291" type="curve"/>
      <point x="410" y="324" type="line"/>
      <point x="390" y="294"/>
      <point x="366" y="280"/>
      <point x="339" y="280" type="curve" smooth="yes"/>
      <point x="313" y="280"/>
      <point x="289" y="293"/>
      <point x="274" y="314" type="curve"/>
      <point x="264" y="288" type="line"/>
      <point x="286" y="266"/>
      <point x="311" y="254"/>
    </contour>
    <contour>
      <point x="402" y="-15" type="line"/>
      <point x="428" y="-15" type="line"/>
      <point x="428" y="598" type="line"/>
      <point x="402" y="602" type="line"/>
    </contour>
  </outline>
</glyph>
<glyph name="bhaprehalfgujr" format="2">
  <advance width="452"/>
  <outline>
    <contour>
      <point x="169" y="66" type="curve"/>
      <point x="190" y="83" type="line"/>
      <point x="112" y="173"/>
      <point x="66" y="287"/>
      <point x="66" y="396" type="curve" smooth="yes"/>
      <point x="66" y="510"/>
      <point x="106" y="576"/>
      <point x="177" y="576" type="curve" smooth="yes"/>
      <point x="207" y="576"/>
      <point x="229" y="565"/>
      <point x="246" y="542" type="curve" smooth="yes"/>
      <point x="268" y="512"/>
      <point x="279" y="460"/>
      <point x="279" y="387" type="curve" smooth="yes"/>
      <point x="279" y="322" type="line"/>
      <point x="305" y="322" type="line"/>
      <point x="305" y="387" type="line" smooth="yes"/>
      <point x="305" y="466"/>
      <point x="292" y="524"/>
      <point x="266" y="559" type="curve" smooth="yes"/>
      <point x="245" y="588"/>
      <point x="215" y="602"/>
      <point x="177" y="602" type="curve" smooth="yes"/>
      <point x="91" y="602"/>
      <point x="40" y="525"/>
      <point x="40" y="396" type="curve" smooth="yes"/>
      <point x="40" y="277"/>
      <point x="90" y="161"/>
    </contour>
    <contour>
      <point x="283" y="233" type="curve" smooth="yes"/>
      <point x="296" y="233"/>
      <point x="305" y="241"/>
      <point x="305" y="264" type="curve" smooth="yes"/>
      <point x="305" y="306" type="line"/>
      <point x="468" y="306" type="line"/>
      <point x="468" y="332" type="line"/>
      <point x="261" y="332" type="line" smooth="yes"/>
      <point x="235" y="332"/>
      <point x="226" y="319"/>
      <point x="226" y="301" type="curve" smooth="yes"/>
      <point x="226" y="276"/>
      <point x="251" y="233"/>
    </contour>
  </outline>
</glyph>
<glyph name="bharagujr" format="2">
  <advance width="572"/>
  <outline>
    <contour>
      <point x="169" y="66" type="curve"/>
      <point x="190" y="83" type="line"/>
      <point x="112" y="173"/>
      <point x="66" y="287"/>
      <point x="66" y="396" type="curve" smooth="yes"/>
      <point x="66" y="510"/>
      <point x="106" y="576"/>
      <point x="177" y="576" type="curve" smooth="yes"/>
      <point x="207" y="576"/>
      <point x="229" y="565"/>
      <point x="246" y="542" type="curve" smooth="yes"/>
      <point x="268" y="512"/>
      <point x="279" y="460"/>
      <point x="279" y="387" type="curve" smooth="yes"/>
      <point x="279" y="322" type="line"/>
      <point x="305" y="322" type="line"/>
      <point x="305" y="387" type="line" smooth="yes"/>
      <point x="305" y="466"/>
      <point x="292" y="524"/>
      <point x="266" y="559" type="curve" smooth="yes"/>
      <point x="245" y="588"/>
      <point x="215" y="602"/>
      <point x="177" y="602" type="curve" smooth="yes"/>
      <point x="91" y="602"/>
      <point x="40" y="525"/>
      <point x="40" y="396" type="curve" smooth="yes"/>
      <point x="40" y="277"/>
      <point x="90" y="161"/>
    </contour>
    <contour>
      <point x="285" y="18" type="line"/>
      <point x="486" y="168" type="line"/>
      <point x="475" y="189" type="line"/>
      <point x="468" y="184" type="line"/>
      <point x="268" y="39" type="line"/>
    </contour>
    <contour>
      <point x="283" y="233" type="curve" smooth="yes"/>
      <point x="296" y="233"/>
      <point x="305" y="241"/>
      <point x="305" y="264" type="curve" smooth="yes"/>
      <point x="305" y="306" type="line"/>
      <point x="481" y="306" type="line"/>
      <point x="481" y="332" type="line"/>
      <point x="261" y="332" type="line" smooth="yes"/>
      <point x="235" y="332"/>
      <point x="226" y="319"/>
      <point x="226" y="301" type="curve" smooth="yes"/>
      <point x="226" y="276"/>
      <point x="251" y="233"/>
    </contour>
    <contour>
      <point x="558" y="0" type="curve" smooth="yes"/>
      <point x="566" y="0" type="line"/>
      <point x="569" y="26" type="line"/>
      <point x="544" y="26"/>
      <point x="526" y="30"/>
      <point x="514" y="39" type="curve" smooth="yes"/>
      <point x="500" y="50"/>
      <point x="494" y="69"/>
      <point x="494" y="98" type="curve" smooth="yes"/>
      <point x="494" y="598" type="line"/>
      <point x="468" y="602" type="line"/>
      <point x="468" y="98" type="line" smooth="yes"/>
      <point x="468" y="61"/>
      <point x="477" y="35"/>
      <point x="496" y="19" type="curve" smooth="yes"/>
      <point x="511" y="6"/>
      <point x="531" y="0"/>
    </contour>
  </outline>
</glyph>
<glyph name="bharastemgujr" format="2">
  <advance width="572"/>
  <outline>
    <contour>
      <point x="169" y="66" type="curve"/>
      <point x="190" y="83" type="line"/>
      <point x="112" y="173"/>
      <point x="66" y="288"/>
      <point x="66" y="397" type="curve" smooth="yes"/>
      <point x="66" y="511"/>
      <point x="106" y="577"/>
      <point x="177" y="577" type="curve" smooth="yes"/>
      <point x="207" y="577"/>
      <point x="229" y="566"/>
      <point x="246" y="543" type="curve" smooth="yes"/>
      <point x="268" y="513"/>
      <point x="279" y="461"/>
      <point x="279" y="388" type="curve" smooth="yes"/>
      <point x="279" y="322" type="line"/>
      <point x="305" y="322" type="line"/>
      <point x="305" y="388" type="line" smooth="yes"/>
      <point x="305" y="467"/>
      <point x="292" y="525"/>
      <point x="266" y="560" type="curve" smooth="yes"/>
      <point x="245" y="589"/>
      <point x="215" y="603"/>
      <point x="177" y="603" type="curve" smooth="yes"/>
      <point x="91" y="603"/>
      <point x="40" y="526"/>
      <point x="40" y="397" type="curve" smooth="yes"/>
      <point x="40" y="278"/>
      <point x="90" y="161"/>
    </contour>
    <contour>
      <point x="285" y="18" type="line"/>
      <point x="486" y="168" type="line"/>
      <point x="475" y="189" type="line"/>
      <point x="468" y="184" type="line"/>
      <point x="268" y="39" type="line"/>
    </contour>
    <contour>
      <point x="283" y="233" type="curve" smooth="yes"/>
      <point x="296" y="233"/>
      <point x="305" y="241"/>
      <point x="305" y="264" type="curve" smooth="yes"/>
      <point x="305" y="306" type="line"/>
      <point x="481" y="306" type="line"/>
      <point x="481" y="332" type="line"/>
      <point x="261" y="332" type="line" smooth="yes"/>
      <point x="235" y="332"/>
      <point x="226" y="319"/>
      <point x="226" y="301" type="curve" smooth="yes"/>
      <point x="226" y="276"/>
      <point x="251" y="233"/>
    </contour>
    <contour>
      <point x="468" y="-15" type="line"/>
      <point x="494" y="-15" type="line"/>
      <point x="494" y="599" type="line"/>
      <point x="468" y="603" type="line"/>
    </contour>
  </outline>
</glyph>
<glyph name="caprehalfgujr" format="2">
  <advance width="319"/>
  <outline>
    <contour>
      <point x="253" y="149" type="curve" smooth="yes"/>
      <point x="300" y="149"/>
      <point x="331" y="169"/>
      <point x="352" y="190" type="curve"/>
      <point x="342" y="216" type="line"/>
      <point x="316" y="190"/>
      <point x="293" y="175"/>
      <point x="253" y="175" type="curve" smooth="yes"/>
      <point x="191" y="175"/>
      <point x="148" y="207"/>
      <point x="121" y="268" type="curve"/>
      <point x="120" y="279" type="line"/>
      <point x="106" y="307"/>
      <point x="89" y="325"/>
      <point x="60" y="325" type="curve" smooth="yes"/>
      <point x="40" y="325"/>
      <point x="27" y="314"/>
      <point x="27" y="296" type="curve" smooth="yes"/>
      <point x="27" y="268"/>
      <point x="53" y="259"/>
      <point x="93" y="259" type="curve" smooth="yes"/>
      <point x="180" y="259"/>
      <point x="243" y="333"/>
      <point x="243" y="434" type="curve" smooth="yes"/>
      <point x="243" y="531"/>
      <point x="194" y="602"/>
      <point x="103" y="602" type="curve" smooth="yes"/>
      <point x="78" y="602"/>
      <point x="53" y="597"/>
      <point x="27" y="588" type="curve"/>
      <point x="35" y="563" type="line"/>
      <point x="59" y="572"/>
      <point x="81" y="576"/>
      <point x="104" y="576" type="curve" smooth="yes"/>
      <point x="179" y="576"/>
      <point x="216" y="517"/>
      <point x="216" y="434" type="curve" smooth="yes"/>
      <point x="216" y="348"/>
      <point x="167" y="281"/>
      <point x="82" y="281" type="curve"/>
      <point x="91" y="269" type="line"/>
      <point x="94" y="267" type="line"/>
      <point x="129" y="185"/>
      <point x="186" y="149"/>
    </contour>
  </outline>
</glyph>
<glyph name="caragujr" format="2">
  <advance width="451"/>
  <outline>
    <contour>
      <point x="253" y="151" type="curve" smooth="yes"/>
      <point x="298" y="151"/>
      <point x="332" y="171"/>
      <point x="352" y="195" type="curve"/>
      <point x="352" y="226" type="line"/>
      <point x="328" y="195"/>
      <point x="298" y="175"/>
      <point x="253" y="175" type="curve" smooth="yes"/>
      <point x="191" y="175"/>
      <point x="148" y="207"/>
      <point x="121" y="268" type="curve"/>
      <point x="120" y="279" type="line"/>
      <point x="106" y="307"/>
      <point x="89" y="325"/>
      <point x="60" y="325" type="curve" smooth="yes"/>
      <point x="40" y="325"/>
      <point x="27" y="314"/>
      <point x="27" y="296" type="curve" smooth="yes"/>
      <point x="27" y="268"/>
      <point x="53" y="259"/>
      <point x="93" y="259" type="curve" smooth="yes"/>
      <point x="180" y="259"/>
      <point x="243" y="333"/>
      <point x="243" y="434" type="curve" smooth="yes"/>
      <point x="243" y="531"/>
      <point x="194" y="602"/>
      <point x="103" y="602" type="curve" smooth="yes"/>
      <point x="78" y="602"/>
      <point x="53" y="597"/>
      <point x="27" y="588" type="curve"/>
      <point x="35" y="563" type="line"/>
      <point x="59" y="572"/>
      <point x="81" y="576"/>
      <point x="104" y="576" type="curve" smooth="yes"/>
      <point x="179" y="576"/>
      <point x="216" y="517"/>
      <point x="216" y="434" type="curve" smooth="yes"/>
      <point x="216" y="348"/>
      <point x="167" y="281"/>
      <point x="82" y="281" type="curve"/>
      <point x="91" y="269" type="line"/>
      <point x="94" y="267" type="line"/>
      <point x="129" y="186"/>
      <point x="186" y="151"/>
    </contour>
    <contour>
      <point x="113" y="-4" type="line"/>
      <point x="359" y="196" type="line"/>
      <point x="351" y="211" type="line"/>
      <point x="282" y="160" type="line"/>
      <point x="96" y="17" type="line"/>
    </contour>
    <contour>
      <point x="437" y="0" type="curve" smooth="yes"/>
      <point x="445" y="0" type="line"/>
      <point x="448" y="26" type="line"/>
      <point x="423" y="26"/>
      <point x="405" y="30"/>
      <point x="393" y="39" type="curve" smooth="yes"/>
      <point x="379" y="50"/>
      <point x="373" y="69"/>
      <point x="373" y="98" type="curve" smooth="yes"/>
      <point x="373" y="598" type="line"/>
      <point x="347" y="602" type="line"/>
      <point x="347" y="98" type="line" smooth="yes"/>
      <point x="347" y="61"/>
      <point x="356" y="35"/>
      <point x="375" y="19" type="curve" smooth="yes"/>
      <point x="390" y="6"/>
      <point x="410" y="0"/>
    </contour>
  </outline>
</glyph>
<glyph name="caraprehalfgujr" format="2">
  <advance width="319"/>
  <outline>
    <contour>
      <point x="253" y="151" type="curve" smooth="yes"/>
      <point x="298" y="151"/>
      <point x="332" y="171"/>
      <point x="347" y="190" type="curve"/>
      <point x="343" y="215" type="line"/>
      <point x="320" y="190"/>
      <point x="292" y="175"/>
      <point x="253" y="175" type="curve" smooth="yes"/>
      <point x="191" y="175"/>
      <point x="148" y="207"/>
      <point x="121" y="268" type="curve"/>
      <point x="120" y="279" type="line"/>
      <point x="106" y="307"/>
      <point x="89" y="325"/>
      <point x="60" y="325" type="curve" smooth="yes"/>
      <point x="40" y="325"/>
      <point x="27" y="314"/>
      <point x="27" y="296" type="curve" smooth="yes"/>
      <point x="27" y="268"/>
      <point x="53" y="259"/>
      <point x="93" y="259" type="curve" smooth="yes"/>
      <point x="180" y="259"/>
      <point x="243" y="333"/>
      <point x="243" y="434" type="curve" smooth="yes"/>
      <point x="243" y="531"/>
      <point x="194" y="602"/>
      <point x="103" y="602" type="curve" smooth="yes"/>
      <point x="78" y="602"/>
      <point x="53" y="597"/>
      <point x="27" y="588" type="curve"/>
      <point x="35" y="563" type="line"/>
      <point x="59" y="572"/>
      <point x="81" y="576"/>
      <point x="104" y="576" type="curve" smooth="yes"/>
      <point x="179" y="576"/>
      <point x="216" y="517"/>
      <point x="216" y="434" type="curve" smooth="yes"/>
      <point x="216" y="348"/>
      <point x="167" y="281"/>
      <point x="82" y="281" type="curve"/>
      <point x="91" y="269" type="line"/>
      <point x="94" y="267" type="line"/>
      <point x="129" y="186"/>
      <point x="186" y="151"/>
    </contour>
    <contour>
      <point x="113" y="-4" type="line"/>
      <point x="354" y="188" type="line"/>
      <point x="343" y="215" type="line"/>
      <point x="327.991" y="193.993" type="line"/>
      <point x="282" y="160" type="line"/>
      <point x="96" y="17" type="line"/>
    </contour>
  </outline>
</glyph>
<glyph name="chasquishgujr" format="2">
  <advance width="548"/>
  <outline>
    <contour>
      <point x="236" y="118" type="curve" smooth="yes"/>
      <point x="392" y="118"/>
      <point x="503" y="249"/>
      <point x="503" y="434" type="curve" smooth="yes"/>
      <point x="503" y="542"/>
      <point x="460" y="603"/>
      <point x="383" y="603" type="curve" smooth="yes"/>
      <point x="320" y="603"/>
      <point x="278" y="562"/>
      <point x="278" y="498" type="curve" smooth="yes"/>
      <point x="278" y="421"/>
      <point x="334" y="364"/>
      <point x="437" y="338" type="curve"/>
      <point x="444" y="362" type="line"/>
      <point x="355" y="382"/>
      <point x="305" y="431"/>
      <point x="305" y="498" type="curve" smooth="yes"/>
      <point x="305" y="547"/>
      <point x="335" y="577"/>
      <point x="383" y="577" type="curve" smooth="yes"/>
      <point x="443" y="577"/>
      <point x="476" y="526"/>
      <point x="476" y="434" type="curve" smooth="yes"/>
      <point x="476" y="264"/>
      <point x="376" y="144"/>
      <point x="236" y="144" type="curve" smooth="yes"/>
      <point x="152" y="144"/>
      <point x="96" y="192"/>
      <point x="96" y="263" type="curve" smooth="yes"/>
      <point x="96" y="334"/>
      <point x="144" y="378"/>
      <point x="222" y="378" type="curve" smooth="yes"/>
      <point x="229" y="378"/>
      <point x="239" y="377"/>
      <point x="245" y="376" type="curve"/>
      <point x="248" y="402" type="line"/>
      <point x="241" y="403"/>
      <point x="230" y="404"/>
      <point x="222" y="404" type="curve" smooth="yes"/>
      <point x="130" y="404"/>
      <point x="69" y="348"/>
      <point x="69" y="263" type="curve" smooth="yes"/>
      <point x="69" y="178"/>
      <point x="137" y="118"/>
    </contour>
    <contour>
      <point x="114" y="351" type="curve"/>
      <point x="131" y="370" type="line"/>
      <point x="91" y="396"/>
      <point x="65" y="433"/>
      <point x="65" y="482" type="curve" smooth="yes"/>
      <point x="65" y="546"/>
      <point x="108" y="577"/>
      <point x="167" y="577" type="curve" smooth="yes"/>
      <point x="184" y="577"/>
      <point x="197" y="576"/>
      <point x="212" y="572" type="curve"/>
      <point x="217" y="598" type="line"/>
      <point x="203" y="601"/>
      <point x="186" y="603"/>
      <point x="167" y="603" type="curve" smooth="yes"/>
      <point x="95" y="603"/>
      <point x="38" y="560"/>
      <point x="38" y="482" type="curve" smooth="yes"/>
      <point x="38" y="425"/>
      <point x="69" y="382"/>
    </contour>
  </outline>
</glyph>
<glyph name="chavagujr" format="2">
  <advance width="548"/>
  <outline>
    <contour>
      <point x="248" y="67" type="curve" smooth="yes"/>
      <point x="407" y="67"/>
      <point x="503" y="196"/>
      <point x="503" y="409" type="curve" smooth="yes"/>
      <point x="503" y="531"/>
      <point x="460" y="602"/>
      <point x="380" y="602" type="curve" smooth="yes"/>
      <point x="318" y="602"/>
      <point x="278" y="558"/>
      <point x="278" y="489" type="curve" smooth="yes"/>
      <point x="278" y="405"/>
      <point x="341" y="329"/>
      <point x="437" y="304" type="curve"/>
      <point x="444" y="330" type="line"/>
      <point x="360" y="351"/>
      <point x="305" y="413"/>
      <point x="305" y="489" type="curve" smooth="yes"/>
      <point x="305" y="543"/>
      <point x="334" y="576"/>
      <point x="380" y="576" type="curve" smooth="yes"/>
      <point x="442" y="576"/>
      <point x="476" y="518"/>
      <point x="476" y="409" type="curve" smooth="yes"/>
      <point x="476" y="211"/>
      <point x="391" y="93"/>
      <point x="248" y="93" type="curve" smooth="yes"/>
      <point x="157" y="93"/>
      <point x="96" y="143"/>
      <point x="96" y="230" type="curve" smooth="yes"/>
      <point x="96" y="313"/>
      <point x="148" y="352"/>
      <point x="221" y="352" type="curve" smooth="yes"/>
      <point x="230" y="352"/>
      <point x="239" y="351"/>
      <point x="245" y="350" type="curve"/>
      <point x="248" y="376" type="line"/>
      <point x="243" y="377"/>
      <point x="228" y="378"/>
      <point x="221" y="378" type="curve" smooth="yes"/>
      <point x="135" y="378"/>
      <point x="69" y="326"/>
      <point x="69" y="230" type="curve" smooth="yes"/>
      <point x="69" y="127"/>
      <point x="142" y="67"/>
    </contour>
    <contour>
      <point x="122" y="328" type="curve"/>
      <point x="137" y="347" type="line"/>
      <point x="92" y="382"/>
      <point x="65" y="426"/>
      <point x="65" y="477" type="curve" smooth="yes"/>
      <point x="65" y="543"/>
      <point x="103" y="576"/>
      <point x="166" y="576" type="curve" smooth="yes"/>
      <point x="182" y="576"/>
      <point x="199" y="575"/>
      <point x="213" y="571" type="curve"/>
      <point x="217" y="596" type="line"/>
      <point x="205" y="600"/>
      <point x="184" y="602"/>
      <point x="166" y="602" type="curve" smooth="yes"/>
      <point x="85" y="602"/>
      <point x="38" y="553"/>
      <point x="38" y="477" type="curve" smooth="yes"/>
      <point x="38" y="419"/>
      <point x="72" y="367"/>
    </contour>
    <contour>
      <point x="303" y="-209" type="curve" smooth="yes"/>
      <point x="343" y="-209"/>
      <point x="370" y="-194"/>
      <point x="400" y="-171" type="curve"/>
      <point x="388" y="-147" type="line"/>
      <point x="364" y="-169"/>
      <point x="339" y="-183"/>
      <point x="303" y="-183" type="curve" smooth="yes"/>
      <point x="246" y="-183"/>
      <point x="211" y="-153"/>
      <point x="211" y="-94" type="curve" smooth="yes"/>
      <point x="211" y="-35"/>
      <point x="247" y="-4"/>
      <point x="304" y="-4" type="curve" smooth="yes"/>
      <point x="316" y="-4"/>
      <point x="326" y="-4"/>
      <point x="335" y="-6" type="curve"/>
      <point x="337" y="19" type="line"/>
      <point x="326" y="21"/>
      <point x="316" y="22"/>
      <point x="304" y="22" type="curve" smooth="yes"/>
      <point x="234" y="22"/>
      <point x="184" y="-20"/>
      <point x="184" y="-94" type="curve" smooth="yes"/>
      <point x="184" y="-167"/>
      <point x="232" y="-209"/>
    </contour>
    <contour>
      <point x="472" y="-268" type="curve" smooth="yes"/>
      <point x="480" y="-268" type="line"/>
      <point x="483" y="-242" type="line"/>
      <point x="458" y="-242"/>
      <point x="440" y="-238"/>
      <point x="428" y="-229" type="curve" smooth="yes"/>
      <point x="414" y="-218"/>
      <point x="408" y="-199"/>
      <point x="408" y="-170" type="curve" smooth="yes"/>
      <point x="408" y="145" type="line"/>
      <point x="382" y="135" type="line"/>
      <point x="382" y="-170" type="line" smooth="yes"/>
      <point x="382" y="-207"/>
      <point x="391" y="-233"/>
      <point x="410" y="-249" type="curve" smooth="yes"/>
      <point x="425" y="-262"/>
      <point x="445" y="-268"/>
    </contour>
  </outline>
</glyph>
<glyph name="chayastemgujr" format="2">
  <advance width="956"/>
  <outline>
    <contour>
      <point x="250" y="-10" type="curve" smooth="yes"/>
      <point x="427" y="-10"/>
      <point x="503" y="172"/>
      <point x="503" y="382" type="curve" smooth="yes"/>
      <point x="503" y="522"/>
      <point x="462" y="602"/>
      <point x="382" y="602" type="curve" smooth="yes"/>
      <point x="315" y="602"/>
      <point x="278" y="547"/>
      <point x="278" y="474" type="curve" smooth="yes"/>
      <point x="278" y="385"/>
      <point x="339" y="306"/>
      <point x="437" y="276" type="curve"/>
      <point x="444" y="302" type="line"/>
      <point x="362" y="325"/>
      <point x="305" y="395"/>
      <point x="305" y="474" type="curve" smooth="yes"/>
      <point x="305" y="533"/>
      <point x="331" y="576"/>
      <point x="382" y="576" type="curve" smooth="yes"/>
      <point x="446" y="576"/>
      <point x="476" y="501"/>
      <point x="476" y="382" type="curve" smooth="yes"/>
      <point x="476" y="185"/>
      <point x="407" y="16"/>
      <point x="250" y="16" type="curve" smooth="yes"/>
      <point x="161" y="16"/>
      <point x="96" y="76"/>
      <point x="96" y="174" type="curve" smooth="yes"/>
      <point x="96" y="266"/>
      <point x="148" y="319"/>
      <point x="221" y="319" type="curve" smooth="yes"/>
      <point x="228" y="319"/>
      <point x="236" y="319"/>
      <point x="245" y="318" type="curve"/>
      <point x="248" y="343" type="line"/>
      <point x="243" y="344"/>
      <point x="228" y="345"/>
      <point x="221" y="345" type="curve" smooth="yes"/>
      <point x="135" y="345"/>
      <point x="69" y="278"/>
      <point x="69" y="174" type="curve" smooth="yes"/>
      <point x="69" y="63"/>
      <point x="146" y="-10"/>
    </contour>
    <contour>
      <point x="123" y="294" type="curve"/>
      <point x="139" y="313" type="line"/>
      <point x="97" y="346"/>
      <point x="65" y="396"/>
      <point x="65" y="460" type="curve" smooth="yes"/>
      <point x="65" y="538"/>
      <point x="108" y="576"/>
      <point x="167" y="576" type="curve" smooth="yes"/>
      <point x="182" y="576"/>
      <point x="199" y="575"/>
      <point x="213" y="571" type="curve"/>
      <point x="217" y="596" type="line"/>
      <point x="205" y="600"/>
      <point x="184" y="602"/>
      <point x="167" y="602" type="curve" smooth="yes"/>
      <point x="95" y="602"/>
      <point x="38" y="553"/>
      <point x="38" y="460" type="curve" smooth="yes"/>
      <point x="38" y="387"/>
      <point x="76" y="331"/>
    </contour>
    <contour>
      <point x="745" y="134" type="curve" smooth="yes"/>
      <point x="794" y="134"/>
      <point x="836" y="155"/>
      <point x="861" y="183" type="curve"/>
      <point x="867" y="203" type="line"/>
      <point x="861" y="223" type="line"/>
      <point x="829" y="180"/>
      <point x="792" y="160"/>
      <point x="745" y="160" type="curve" smooth="yes"/>
      <point x="682" y="160"/>
      <point x="633" y="192"/>
      <point x="600" y="271" type="curve"/>
      <point x="593" y="256" type="line"/>
      <point x="664" y="291"/>
      <point x="712" y="336"/>
      <point x="712" y="409" type="curve" smooth="yes"/>
      <point x="712" y="443"/>
      <point x="702" y="469"/>
      <point x="683" y="487" type="curve" smooth="yes"/>
      <point x="658" y="511"/>
      <point x="627" y="522"/>
      <point x="566" y="522" type="curve" smooth="yes"/>
      <point x="475" y="522" type="line"/>
      <point x="475" y="496" type="line"/>
      <point x="562" y="496" type="line" smooth="yes"/>
      <point x="620" y="496"/>
      <point x="644" y="487"/>
      <point x="661" y="471" type="curve" smooth="yes"/>
      <point x="677" y="456"/>
      <point x="685" y="435"/>
      <point x="685" y="409" type="curve" smooth="yes"/>
      <point x="685" y="344"/>
      <point x="638" y="308"/>
      <point x="570" y="277" type="curve"/>
      <point x="603" y="181"/>
      <point x="666" y="134"/>
    </contour>
    <contour>
      <point x="852" y="-15" type="line"/>
      <point x="878" y="-15" type="line"/>
      <point x="878" y="598" type="line"/>
      <point x="852" y="602" type="line"/>
    </contour>
  </outline>
</glyph>
<glyph name="dabagujr" format="2">
  <advance width="474"/>
  <outline>
    <contour>
      <point x="307" y="52" type="curve" smooth="yes"/>
      <point x="372" y="52"/>
      <point x="443" y="95"/>
      <point x="443" y="146" type="curve" smooth="yes"/>
      <point x="443" y="174"/>
      <point x="428" y="189"/>
      <point x="408" y="189" type="curve" smooth="yes"/>
      <point x="386" y="189"/>
      <point x="370" y="175"/>
      <point x="370" y="149" type="curve" smooth="yes"/>
      <point x="370" y="129"/>
      <point x="377" y="111"/>
      <point x="387" y="97" type="curve"/>
      <point x="396" y="107" type="line"/>
      <point x="370" y="86"/>
      <point x="343" y="77"/>
      <point x="307" y="77" type="curve" smooth="yes"/>
      <point x="228" y="77"/>
      <point x="176" y="124"/>
      <point x="176" y="207" type="curve" smooth="yes"/>
      <point x="176" y="282"/>
      <point x="223" y="325"/>
      <point x="287" y="369" type="curve" smooth="yes"/>
      <point x="380" y="433"/>
      <point x="398" y="468"/>
      <point x="398" y="515" type="curve" smooth="yes"/>
      <point x="398" y="555"/>
      <point x="375" y="582"/>
      <point x="351" y="603" type="curve"/>
      <point x="331" y="586" type="line"/>
      <point x="356" y="563"/>
      <point x="371" y="544"/>
      <point x="371" y="514" type="curve" smooth="yes"/>
      <point x="371" y="473"/>
      <point x="353" y="447"/>
      <point x="276" y="393" type="curve" smooth="yes"/>
      <point x="198" y="339"/>
      <point x="149" y="289"/>
      <point x="149" y="206" type="curve" smooth="yes"/>
      <point x="149" y="112"/>
      <point x="209" y="52"/>
    </contour>
    <contour>
      <point x="475" y="-82" type="line"/>
      <point x="500" y="-72" type="line"/>
      <point x="411" y="103" type="line"/>
      <point x="391" y="89" type="line"/>
    </contour>
    <contour>
      <point x="177" y="-114" type="curve" smooth="yes"/>
      <point x="272" y="-114"/>
      <point x="346" y="-66"/>
      <point x="399" y="81" type="curve"/>
      <point x="374" y="85" type="line"/>
      <point x="324" y="-46"/>
      <point x="260" y="-88"/>
      <point x="177" y="-88" type="curve" smooth="yes"/>
      <point x="102" y="-88"/>
      <point x="54" y="-46"/>
      <point x="54" y="26" type="curve" smooth="yes"/>
      <point x="54" y="97"/>
      <point x="101" y="146"/>
      <point x="165" y="175" type="curve"/>
      <point x="155" y="198" type="line"/>
      <point x="75" y="160"/>
      <point x="27" y="106"/>
      <point x="27" y="26" type="curve" smooth="yes"/>
      <point x="27" y="-60"/>
      <point x="86" y="-114"/>
    </contour>
    <contour>
      <point x="261" y="-90" type="line"/>
      <point x="281" y="-76" type="line"/>
      <point x="89" y="137" type="line"/>
      <point x="71" y="121" type="line"/>
    </contour>
  </outline>
</glyph>
<glyph name="dabhagujr" format="2">
  <advance width="448"/>
  <outline>
    <contour>
      <point x="280" y="89" type="curve" smooth="yes"/>
      <point x="355" y="89"/>
      <point x="416" y="131"/>
      <point x="416" y="184" type="curve" smooth="yes"/>
      <point x="416" y="212"/>
      <point x="401" y="227"/>
      <point x="381" y="227" type="curve" smooth="yes"/>
      <point x="359" y="227"/>
      <point x="343" y="213"/>
      <point x="343" y="187" type="curve" smooth="yes"/>
      <point x="343" y="167"/>
      <point x="350" y="150"/>
      <point x="359" y="135" type="curve"/>
      <point x="372" y="145" type="line"/>
      <point x="346" y="124"/>
      <point x="322" y="115"/>
      <point x="280" y="115" type="curve" smooth="yes"/>
      <point x="205" y="115"/>
      <point x="152" y="157"/>
      <point x="152" y="230" type="curve" smooth="yes"/>
      <point x="152" y="296"/>
      <point x="188" y="331"/>
      <point x="262" y="378" type="curve" smooth="yes"/>
      <point x="354" y="436"/>
      <point x="374" y="464"/>
      <point x="374" y="514" type="curve" smooth="yes"/>
      <point x="374" y="554"/>
      <point x="351" y="582"/>
      <point x="327" y="603" type="curve"/>
      <point x="307" y="586" type="line"/>
      <point x="332" y="563"/>
      <point x="347" y="544"/>
      <point x="347" y="514" type="curve" smooth="yes"/>
      <point x="347" y="473"/>
      <point x="332" y="452"/>
      <point x="249" y="400" type="curve" smooth="yes"/>
      <point x="170" y="351"/>
      <point x="125" y="304"/>
      <point x="125" y="231" type="curve" smooth="yes"/>
      <point x="125" y="142"/>
      <point x="192" y="89"/>
    </contour>
    <contour>
      <point x="151" y="-216" type="curve"/>
      <point x="170" y="-198" type="line"/>
      <point x="87" y="-125"/>
      <point x="44" y="-78"/>
      <point x="44" y="-15" type="curve" smooth="yes"/>
      <point x="44" y="30"/>
      <point x="71" y="59"/>
      <point x="112" y="59" type="curve" smooth="yes"/>
      <point x="150" y="59"/>
      <point x="186" y="40"/>
      <point x="230" y="-33" type="curve"/>
      <point x="228" y="-15" type="line"/>
      <point x="216" y="-23" type="line" smooth="yes"/>
      <point x="200" y="-33"/>
      <point x="191" y="-41"/>
      <point x="191" y="-55" type="curve" smooth="yes"/>
      <point x="191" y="-81"/>
      <point x="227" y="-106"/>
      <point x="253" y="-106" type="curve" smooth="yes"/>
      <point x="270" y="-106"/>
      <point x="278" y="-98"/>
      <point x="278" y="-82" type="curve" smooth="yes"/>
      <point x="278" y="-68"/>
      <point x="275" y="-59"/>
      <point x="262" y="-38" type="curve" smooth="yes"/>
      <point x="252" y="-22" type="line"/>
      <point x="217" y="-53" type="line"/>
      <point x="412" y="71" type="line"/>
      <point x="406" y="87" type="line"/>
      <point x="395" y="89" type="line"/>
      <point x="235" y="-11" type="line"/>
      <point x="250" y="-17" type="line"/>
      <point x="197" y="69"/>
      <point x="150" y="84"/>
      <point x="112" y="84" type="curve" smooth="yes"/>
      <point x="55" y="84"/>
      <point x="17" y="43"/>
      <point x="17" y="-15" type="curve" smooth="yes"/>
      <point x="17" y="-92"/>
      <point x="75" y="-149"/>
    </contour>
    <contour>
      <point x="466" y="-82" type="line"/>
      <point x="491" y="-72" type="line"/>
      <point x="384" y="141" type="line"/>
      <point x="364" y="127" type="line"/>
    </contour>
  </outline>
</glyph>
<glyph name="dadagujr" format="2">
  <advance width="333"/>
  <outline>
    <contour>
      <point x="218" y="-10" type="curve" smooth="yes"/>
      <point x="271" y="-10"/>
      <point x="316" y="21"/>
      <point x="316" y="72" type="curve" smooth="yes"/>
      <point x="316" y="100"/>
      <point x="304" y="118"/>
      <point x="283" y="118" type="curve" smooth="yes"/>
      <point x="262" y="118"/>
      <point x="249" y="101"/>
      <point x="249" y="74" type="curve" smooth="yes"/>
      <point x="249" y="55"/>
      <point x="254" y="36"/>
      <point x="261" y="19" type="curve"/>
      <point x="272" y="32" type="line"/>
      <point x="253" y="20"/>
      <point x="241" y="16"/>
      <point x="218" y="16" type="curve" smooth="yes"/>
      <point x="148" y="16"/>
      <point x="96" y="80"/>
      <point x="96" y="167" type="curve" smooth="yes"/>
      <point x="96" y="259"/>
      <point x="159" y="317"/>
      <point x="233" y="317" type="curve" smooth="yes"/>
      <point x="244" y="317"/>
      <point x="254" y="316"/>
      <point x="262" y="315" type="curve"/>
      <point x="267" y="340" type="line"/>
      <point x="256" y="342"/>
      <point x="246" y="343"/>
      <point x="233" y="343" type="curve" smooth="yes"/>
      <point x="145" y="343"/>
      <point x="69" y="273"/>
      <point x="69" y="167" type="curve" smooth="yes"/>
      <point x="69" y="66"/>
      <point x="135" y="-10"/>
    </contour>
    <contour>
      <point x="375" y="-139" type="line"/>
      <point x="383" y="-114" type="line"/>
      <point x="375" y="-112" type="line" smooth="yes"/>
      <point x="336" y="-102"/>
      <point x="312" y="-68"/>
      <point x="285" y="23" type="curve"/>
      <point x="263" y="12" type="line"/>
      <point x="293" y="-87"/>
      <point x="320" y="-123"/>
      <point x="368" y="-137" type="curve" smooth="yes"/>
    </contour>
    <contour>
      <point x="126" y="288" type="curve"/>
      <point x="147" y="304" type="line"/>
      <point x="95" y="340"/>
      <point x="65" y="390"/>
      <point x="65" y="456" type="curve" smooth="yes"/>
      <point x="65" y="528"/>
      <point x="112" y="576"/>
      <point x="181" y="576" type="curve" smooth="yes"/>
      <point x="200" y="576"/>
      <point x="223" y="573"/>
      <point x="238" y="569" type="curve"/>
      <point x="244" y="594" type="line"/>
      <point x="224" y="599"/>
      <point x="206" y="602"/>
      <point x="181" y="602" type="curve" smooth="yes"/>
      <point x="98" y="602"/>
      <point x="38" y="542"/>
      <point x="38" y="456" type="curve" smooth="yes"/>
      <point x="38" y="381"/>
      <point x="74" y="325"/>
    </contour>
  </outline>
</glyph>
<glyph name="dadasquishgujr" format="2">
  <advance width="333"/>
  <outline>
    <contour>
      <point x="218" y="50" type="curve" smooth="yes"/>
      <point x="271" y="50"/>
      <point x="316" y="81"/>
      <point x="316" y="132" type="curve" smooth="yes"/>
      <point x="316" y="160"/>
      <point x="304" y="178"/>
      <point x="283" y="178" type="curve" smooth="yes"/>
      <point x="262" y="178"/>
      <point x="249" y="161"/>
      <point x="249" y="134" type="curve" smooth="yes"/>
      <point x="249" y="115"/>
      <point x="254" y="96"/>
      <point x="261" y="79" type="curve"/>
      <point x="272" y="92" type="line"/>
      <point x="253" y="80"/>
      <point x="241" y="76"/>
      <point x="218" y="76" type="curve" smooth="yes"/>
      <point x="148" y="76"/>
      <point x="96" y="129"/>
      <point x="96" y="208" type="curve" smooth="yes"/>
      <point x="96" y="294"/>
      <point x="159" y="343"/>
      <point x="234" y="343" type="curve" smooth="yes"/>
      <point x="245" y="343"/>
      <point x="254" y="342"/>
      <point x="262" y="341" type="curve"/>
      <point x="267" y="366" type="line"/>
      <point x="256" y="368"/>
      <point x="247" y="369"/>
      <point x="234" y="369" type="curve" smooth="yes"/>
      <point x="145" y="369"/>
      <point x="69" y="309"/>
      <point x="69" y="208" type="curve" smooth="yes"/>
      <point x="69" y="114"/>
      <point x="135" y="50"/>
    </contour>
    <contour>
      <point x="305" y="-43" type="line"/>
      <point x="333" y="-43" type="line"/>
      <point x="282" y="92" type="line"/>
      <point x="260" y="82" type="line"/>
    </contour>
    <contour>
      <point x="129" y="321" type="curve"/>
      <point x="150" y="337" type="line"/>
      <point x="96" y="368"/>
      <point x="65" y="412"/>
      <point x="65" y="469" type="curve" smooth="yes"/>
      <point x="65" y="535"/>
      <point x="112" y="576"/>
      <point x="181" y="576" type="curve" smooth="yes"/>
      <point x="200" y="576"/>
      <point x="223" y="573"/>
      <point x="238" y="569" type="curve"/>
      <point x="244" y="594" type="line"/>
      <point x="224" y="599"/>
      <point x="206" y="602"/>
      <point x="181" y="602" type="curve" smooth="yes"/>
      <point x="98" y="602"/>
      <point x="38" y="549"/>
      <point x="38" y="469" type="curve" smooth="yes"/>
      <point x="38" y="403"/>
      <point x="75" y="354"/>
    </contour>
  </outline>
</glyph>
<glyph name="dadhagujr" format="2">
  <advance width="543"/>
  <outline>
    <contour>
      <point x="376" y="52" type="curve" smooth="yes"/>
      <point x="441" y="52"/>
      <point x="512" y="95"/>
      <point x="512" y="146" type="curve" smooth="yes"/>
      <point x="512" y="174"/>
      <point x="497" y="189"/>
      <point x="477" y="189" type="curve" smooth="yes"/>
      <point x="455" y="189"/>
      <point x="439" y="175"/>
      <point x="439" y="149" type="curve" smooth="yes"/>
      <point x="439" y="129"/>
      <point x="446" y="111"/>
      <point x="456" y="97" type="curve"/>
      <point x="465" y="107" type="line"/>
      <point x="439" y="86"/>
      <point x="412" y="77"/>
      <point x="376" y="77" type="curve" smooth="yes"/>
      <point x="297" y="77"/>
      <point x="245" y="124"/>
      <point x="245" y="207" type="curve" smooth="yes"/>
      <point x="245" y="279"/>
      <point x="292" y="325"/>
      <point x="356" y="369" type="curve" smooth="yes"/>
      <point x="449" y="433"/>
      <point x="467" y="468"/>
      <point x="467" y="515" type="curve" smooth="yes"/>
      <point x="467" y="555"/>
      <point x="444" y="582"/>
      <point x="420" y="603" type="curve"/>
      <point x="400" y="586" type="line"/>
      <point x="425" y="563"/>
      <point x="440" y="544"/>
      <point x="440" y="514" type="curve" smooth="yes"/>
      <point x="440" y="473"/>
      <point x="422" y="447"/>
      <point x="345" y="393" type="curve" smooth="yes"/>
      <point x="267" y="339"/>
      <point x="218" y="289"/>
      <point x="218" y="206" type="curve" smooth="yes"/>
      <point x="218" y="112"/>
      <point x="278" y="52"/>
    </contour>
    <contour>
      <point x="544" y="-82" type="line"/>
      <point x="569" y="-72" type="line"/>
      <point x="480" y="103" type="line"/>
      <point x="460" y="89" type="line"/>
    </contour>
    <contour>
      <point x="204" y="-129" type="curve" smooth="yes"/>
      <point x="317" y="-129"/>
      <point x="399" y="-52"/>
      <point x="463" y="81" type="curve"/>
      <point x="437" y="84" type="line"/>
      <point x="372" y="-42"/>
      <point x="298" y="-103"/>
      <point x="204" y="-103" type="curve" smooth="yes"/>
      <point x="135" y="-103"/>
      <point x="95" y="-68"/>
      <point x="95" y="-5" type="curve" smooth="yes"/>
      <point x="95" y="48"/>
      <point x="142" y="85"/>
      <point x="186" y="85" type="curve" smooth="yes"/>
      <point x="193" y="85"/>
      <point x="203" y="85"/>
      <point x="208" y="84" type="curve"/>
      <point x="210" y="110" type="line"/>
      <point x="204" y="111"/>
      <point x="194" y="111"/>
      <point x="186" y="111" type="curve" smooth="yes"/>
      <point x="132" y="111"/>
      <point x="68" y="63"/>
      <point x="68" y="-5" type="curve" smooth="yes"/>
      <point x="68" y="-84"/>
      <point x="121" y="-129"/>
    </contour>
    <contour>
      <point x="110" y="50" type="curve"/>
      <point x="127" y="68" type="line"/>
      <point x="90" y="99"/>
      <point x="61" y="132"/>
      <point x="61" y="184" type="curve" smooth="yes"/>
      <point x="61" y="241"/>
      <point x="96" y="276"/>
      <point x="176" y="316" type="curve"/>
      <point x="164" y="340" type="line"/>
      <point x="85" y="302"/>
      <point x="34" y="259"/>
      <point x="34" y="184" type="curve" smooth="yes"/>
      <point x="34" y="130"/>
      <point x="66" y="87"/>
    </contour>
  </outline>
</glyph>
